<svg width="16" height="17" viewBox="0 0 16 17" fill="none" xmlns="http://www.w3.org/2000/svg">
<path d="M10.7633 10.1158V16.1779H14.7222C15.2171 16.1779 15.5883 15.8067 15.5883 15.3118V1.45561C15.5883 0.960749 15.2171 0.5896 14.7222 0.5896H0.866014C0.371149 0.5896 0 0.960749 0 1.45561V15.3118C0 15.8067 0.371149 16.1779 0.866014 16.1779H8.289V10.1158H6.30953V7.76515H8.289V6.03312C8.289 4.05366 9.52616 2.94021 11.3819 2.94021C12.0005 2.94021 12.6191 2.94021 13.2376 3.06393V5.1671H12.0005C11.0108 5.1671 10.887 5.66197 10.887 6.28055V7.76515H13.2376L12.8665 10.1158H10.7633Z" fill="white"/>
</svg>
