<svg width="91" height="25" viewBox="0 0 91 25" fill="none" xmlns="http://www.w3.org/2000/svg">
<path d="M55.3464 7.05998C54.0217 7.07499 52.72 7.42176 51.5532 8.07105C51.5532 4.54494 51.6056 1.4833 51.6849 0.308716L44.7038 1.70289V2.3585L45.3893 2.44065C46.3636 2.57731 46.7325 3.17842 46.8642 4.51809C47.0753 7.11449 47.0491 20.9717 46.8642 23.1858C48.8159 23.6652 50.8123 23.922 52.8179 23.9512C58.3494 23.9512 61.6952 20.3982 61.6952 14.767C61.669 10.2851 58.9556 7.05998 55.3464 7.05998ZM52.9234 22.8303C52.5258 22.8256 52.1293 22.7892 51.7373 22.7213C51.6325 21.1628 51.5532 14.7402 51.5794 9.13663C52.1026 8.94303 52.6561 8.85037 53.2122 8.86332C55.5051 8.86332 56.7952 11.624 56.7952 15.068C56.769 19.4962 55.1885 22.8303 52.9234 22.8303ZM18.4663 7.22349L17.3864 7.52365C16.4114 4.24478 14.9103 2.38615 12.0913 2.38615H8.456C8.29811 4.49044 8.21878 7.9889 8.24574 11.624L10.695 11.5419C12.3286 11.4874 12.9871 10.2306 13.383 8.39886H14.3041V16.1067H13.3822C12.9871 14.2481 12.3024 12.9905 10.6688 12.936L8.24574 12.8539C8.27192 15.6146 8.35048 17.9645 8.456 19.3595C8.61389 21.4093 9.16766 22.3114 10.5633 22.5294L11.8017 22.666V23.5957H0V22.666L0.97507 22.5294C2.37067 22.3114 2.92367 21.4093 3.08233 19.3595C3.34574 15.97 3.39811 8.94547 3.08233 5.01019C2.92444 2.98726 2.37067 2.0852 0.97507 1.8664L0 1.73053V0.827679H18.3615L18.4663 7.22349ZM24.3406 6.86804C29.5571 6.86804 32.1388 10.5308 32.1388 15.3958C32.1388 20.2616 29.2144 23.978 23.9978 23.978C18.7828 23.978 16.1749 20.3161 16.1749 15.4787C16.1749 10.6406 19.0986 6.86883 24.3406 6.86883V6.86804ZM24.0772 7.90675C21.7589 7.90675 21.1273 11.1319 21.1273 15.4234C21.1273 19.7142 22.1547 22.9401 24.2882 22.9401C26.4216 22.9401 27.238 19.7142 27.238 15.4234C27.238 11.1319 26.1852 7.9344 24.051 7.9344L24.0772 7.90675ZM62.9598 15.5877C62.9598 11.1051 65.6732 6.89568 71.0731 6.89568C75.4463 6.89568 77.5273 10.2575 77.5535 14.658H67.7805C67.675 18.6486 69.6243 21.6004 73.3652 21.6004C74.998 21.6004 75.8945 21.1905 76.895 20.3982L77.3433 20.9717C76.2627 22.5294 73.9975 24.0057 70.9945 24.0057C66.2786 23.978 62.9598 20.5349 62.9598 15.5877ZM67.8329 13.5372L72.7329 13.4281C72.759 11.1872 72.4171 7.96205 70.6518 7.96205C68.8873 7.96205 67.8598 10.9953 67.8067 13.5103L67.8329 13.5372ZM90.0931 11.925L89.3029 12.1438C88.4595 9.27328 87.1694 8.07105 85.2724 8.07105C84.0078 8.07105 83.112 9.05527 83.112 10.4763C83.112 11.8981 84.1395 12.6359 87.0901 13.8105C90.04 14.9858 90.8833 16.1612 90.8833 18.4574C90.8833 21.8737 88.3548 23.9788 84.1919 23.9788C82.3135 23.9708 80.4508 23.6287 78.6865 22.9678L78.5548 18.2386L79.345 18.0198C80.4772 21.3271 81.9791 22.5302 83.9554 22.5302C85.931 22.5302 86.5633 21.2995 86.5633 19.9875C86.5633 18.6762 85.8516 17.9377 83.1914 16.9543C80.5303 15.97 78.9237 14.9045 78.9237 12.034C78.9237 9.16427 81.2944 6.86804 85.2193 6.86804C87.037 6.86804 88.7761 7.19663 89.9352 7.74325L90.0931 11.925ZM44.0453 11.7883C41.938 10.312 39.6459 10.9684 39.1984 11.7607C39.0457 14.6746 39.0632 17.5954 39.2508 20.5072C39.3563 21.8461 39.7514 22.448 40.7265 22.5847L41.9904 22.666V23.5957H32.2713V22.666L32.956 22.5847C33.9303 22.448 34.2992 21.8461 34.4309 20.5072C34.6351 17.3674 34.6351 14.2172 34.4309 11.0774C34.3254 9.73853 33.9303 9.13663 32.956 8.99997L32.2705 8.91861V8.263L39.2516 6.86804L39.173 10.6406C40.8059 6.75903 44.0199 6.24007 45.7582 7.33329L44.0461 11.7883H44.0453Z" fill="black"/>
</svg>
