<svg width="17" height="17" viewBox="0 0 17 17" fill="none" xmlns="http://www.w3.org/2000/svg">
<path fill-rule="evenodd" clip-rule="evenodd" d="M16.9999 8.38379C16.9999 13.014 13.2006 16.7676 8.51386 16.7676C3.82716 16.7676 0.027832 13.014 0.027832 8.38379C0.027832 3.75355 3.82716 0 8.51386 0C13.2006 0 16.9999 3.75355 16.9999 8.38379ZM8.81754 6.18888C7.9927 6.52759 6.34301 7.23015 3.86849 8.29489C3.46795 8.45251 3.25749 8.60677 3.23882 8.75936C3.20598 9.01305 3.52903 9.11364 3.96885 9.2506C4.02903 9.26933 4.09138 9.28875 4.15531 9.30933C4.5881 9.4485 5.17024 9.61115 5.47404 9.61786C5.74899 9.62456 6.05449 9.51222 6.39393 9.2825C8.70552 7.74156 9.89866 6.96187 9.97334 6.9451C10.0276 6.93337 10.1006 6.91827 10.1498 6.96187C10.1991 7.00547 10.194 7.08763 10.1889 7.10943C10.1561 7.2466 8.85569 8.44045 8.20607 9.03681C8.01398 9.21316 7.87879 9.33726 7.85013 9.36634C7.78377 9.43423 7.71616 9.49848 7.65117 9.56024C7.24747 9.9439 6.94467 10.2317 7.66683 10.701C8.0042 10.9212 8.2761 11.1042 8.5457 11.2857C8.85525 11.4941 9.16178 11.7005 9.56092 11.9586C9.66035 12.0229 9.75536 12.0898 9.84792 12.155C10.1993 12.4023 10.5155 12.6249 10.9051 12.5891C11.1325 12.5673 11.3667 12.3577 11.4855 11.7289C11.7656 10.2433 12.3189 7.02726 12.4462 5.70095C12.458 5.58525 12.4428 5.43602 12.4326 5.37063C12.4224 5.30523 12.3986 5.21301 12.3121 5.14426C12.2103 5.06378 12.0524 5.04534 11.9828 5.04701C11.6638 5.05204 11.175 5.21972 8.81754 6.18888Z" fill="white"/>
</svg>
