<svg width="17" height="17" viewBox="0 0 17 17" fill="none" xmlns="http://www.w3.org/2000/svg">
<path d="M6.1287 16.4871H11.0774C15.6549 16.4871 16.7683 15.3737 16.7683 10.7962V5.84751C16.7683 1.39372 15.6549 0.280273 11.0774 0.280273H6.1287C1.55119 0.280273 0.437744 1.39372 0.437744 5.97123V10.9199C0.561461 15.4974 1.55119 16.4871 6.1287 16.4871ZM3.65437 5.47636H4.89153C5.13896 5.47636 5.26268 5.60008 5.3864 5.97123C6.00498 7.70325 6.99471 9.18785 7.36586 9.18785C7.48957 9.18785 7.61329 9.06413 7.61329 8.69299V6.83724C7.61329 6.09494 7.11842 5.97123 7.11842 5.72379C7.11842 5.60008 7.24214 5.47636 7.36586 5.47636H9.2216C9.46904 5.47636 9.59275 5.60008 9.59275 5.97123V8.32184C9.59275 8.56927 9.71647 8.69299 9.71647 8.69299C9.84019 8.69299 9.9639 8.56927 10.2113 8.32184C11.0773 7.33211 11.6959 5.84751 11.6959 5.84751C11.8197 5.72379 11.9434 5.47636 12.1908 5.47636H13.428C13.7991 5.47636 13.9228 5.60008 13.7991 5.97123C13.6754 6.71352 12.1908 8.69299 12.1908 8.69299C12.0671 8.94042 12.0671 8.94042 12.1908 9.18785C12.3145 9.31157 12.6857 9.68272 13.0568 10.0539C13.5517 10.6724 13.9228 11.1673 14.0465 11.4147C14.1703 11.7859 14.0465 11.9096 13.6754 11.9096H12.4382C11.9434 11.9096 11.8197 11.5385 11.0774 10.7962C10.3351 10.1776 10.0876 10.0539 9.84019 10.0539C9.59275 10.0539 9.46904 10.1776 9.46904 10.425V11.4147C9.46904 11.6622 9.34532 11.9096 8.60302 11.9096C7.36586 11.9096 6.00498 11.1673 5.01525 9.68272C3.65437 7.57954 3.28322 6.09494 3.28322 5.72379C3.28322 5.60008 3.28322 5.47636 3.65437 5.47636Z" fill="white"/>
</svg>
