<svg width="198" height="31" viewBox="0 0 198 31" fill="none" xmlns="http://www.w3.org/2000/svg">
<path d="M21.013 24.2146H8.02934L5.9793 30.1952H0L10.7627 0.121338H18.6212L29.384 30.1952H23.2338L21.013 24.2146ZM19.3046 19.2592L18.1087 15.8417C17.7671 14.8165 17.4254 13.9621 17.4254 13.7913C16.2295 10.3738 15.2045 7.29804 14.5212 4.90581C13.8378 6.9563 12.8128 10.3738 11.2752 14.8165L10.9336 15.8417L9.73771 19.2592H19.3046Z" fill="black"/>
<path d="M46.9803 15.3293C44.5885 13.1079 43.2218 12.4244 41.3426 12.4244C37.9259 12.4244 35.705 15.3293 35.705 19.2594C35.705 23.1895 37.7551 26.0943 41.1718 26.0943C43.2218 26.0943 44.7594 25.0691 46.9803 22.6769L50.5678 25.7526C47.8344 29.5118 45.101 30.8788 41.1718 30.8788C34.68 30.8788 30.0674 26.4361 30.0674 19.4302C30.0674 12.4244 34.68 7.98169 41.1718 7.98169C44.7594 7.98169 47.4928 9.00693 50.2262 12.0827L46.9803 15.3293Z" fill="black"/>
<path d="M68.8474 15.3273C66.4557 13.1059 64.9181 12.4224 63.2098 12.4224C59.793 12.4224 57.5721 15.3273 57.5721 19.2574C57.5721 23.1875 59.6222 26.0924 63.0389 26.0924C65.089 26.0924 66.6265 25.0671 68.8474 22.6749L72.435 25.7506C69.3599 29.5098 66.7973 30.7059 62.8681 30.7059C56.3763 30.7059 51.7637 26.2632 51.7637 19.2574C51.7637 12.2516 56.3763 7.80884 62.8681 7.80884C66.4557 7.80884 69.1891 8.83408 71.9224 11.9098L68.8474 15.3273Z" fill="black"/>
<path d="M94.8144 8.49243V30.0226H89.6893V27.8012C88.4934 29.6808 86.4434 30.706 83.3683 30.706C78.2432 30.706 75.6807 27.9721 75.6807 23.8711V8.49243H81.1474V22.3332C81.1474 24.5546 82.3433 25.9216 84.735 25.9216C87.4684 25.9216 89.1768 24.3837 89.1768 21.4789V8.49243H94.8144Z" fill="black"/>
<path d="M113.435 9.00796L112.581 13.7924C111.556 13.4507 110.531 13.4507 109.848 13.4507C106.944 13.4507 105.064 15.8429 105.064 19.6021V30.1963H99.5977V8.49534H104.723V11.7419C105.919 9.52058 107.627 8.32446 110.19 8.32446C111.215 8.32446 111.898 8.49534 113.435 9.00796Z" fill="black"/>
<path d="M135.133 15.4981V30.0224H130.178V27.8011C128.812 29.6807 126.42 30.8768 123.174 30.8768C118.732 30.8768 115.486 28.8263 115.486 24.7253C115.486 20.1117 119.074 18.0612 124.882 17.036L130.007 16.0108V15.669C130.007 13.6185 128.47 12.4224 125.907 12.4224C124.541 12.4224 123.345 12.7641 122.491 13.2768C121.636 13.7894 120.441 14.6438 119.074 16.0108L115.657 12.7641C118.391 9.51754 121.636 7.97968 125.737 7.97968C131.887 7.8088 135.133 10.8845 135.133 15.4981ZM129.837 21.3078V20.1117L126.249 20.7952C122.491 21.6496 120.782 22.3331 120.782 24.2127C120.782 25.5797 121.978 26.4341 124.028 26.4341C127.274 26.4341 129.837 24.8962 129.837 21.3078Z" fill="black"/>
<path d="M152.728 29.8517C151.191 30.3643 149.482 30.7061 147.945 30.7061C143.674 30.7061 141.795 28.6556 141.795 24.5546V12.7643H138.036V8.49246H141.795V1.82837H147.261V8.49246H152.386V12.5934H147.261V23.7002C147.261 25.2381 147.945 25.7507 149.482 25.7507C150.166 25.7507 151.191 25.5799 152.216 25.409L152.728 29.8517Z" fill="black"/>
<path d="M168.958 25.5797C169.812 25.238 170.837 24.3836 172.204 23.1875L175.279 26.605C172.204 29.6807 169.299 30.8768 165.712 30.8768C158.707 30.8768 154.437 26.4341 154.437 19.4283C154.437 12.7642 158.537 7.80884 165.199 7.80884C171.691 7.80884 175.279 11.9098 175.279 18.5739C175.279 19.4283 175.279 20.1118 175.279 20.7953H159.732C160.245 24.2127 162.295 26.2632 165.883 26.2632C167.078 26.0924 168.104 25.9215 168.958 25.5797ZM159.903 16.8652H169.983C169.812 13.9603 167.933 12.0807 165.028 12.0807C162.295 12.0807 160.587 13.9603 159.903 16.8652Z" fill="black"/>
<path d="M198 15.3302V30.1962H192.533V17.0389C192.533 14.1341 191.166 12.5962 188.433 12.5962C185.87 12.5962 183.991 14.4758 183.991 17.2098V30.1962H178.524V8.49524H183.65V10.8875C185.016 8.83699 187.237 7.64087 190.141 7.64087C195.266 7.81174 198 10.8875 198 15.3302Z" fill="black"/>
</svg>
