<svg width="269" height="268" viewBox="0 0 269 268" fill="none" xmlns="http://www.w3.org/2000/svg">
<path opacity="0.3" d="M268.163 133.596C268.163 207.379 208.35 267.192 134.567 267.192C60.784 267.192 0.971069 207.379 0.971069 133.596C0.971069 59.8129 60.784 0 134.567 0C208.35 0 268.163 59.8129 268.163 133.596ZM48.2647 133.596C48.2647 181.259 86.9035 219.898 134.567 219.898C182.23 219.898 220.869 181.259 220.869 133.596C220.869 85.9324 182.23 47.2936 134.567 47.2936C86.9035 47.2936 48.2647 85.9324 48.2647 133.596Z" fill="white"/>
<mask id="path-2-inside-1" fill="white">
<path d="M30.7435 49.5212C11.6323 73.1216 1.13192 102.529 0.972901 132.896C0.813886 163.264 11.0057 192.779 29.8687 216.579C48.7317 240.378 75.1401 257.04 104.742 263.82C134.343 270.6 165.371 267.092 192.712 253.875C220.053 240.658 242.075 218.52 255.149 191.11C268.222 163.701 271.568 132.655 264.633 103.089C257.699 73.5236 240.898 47.2028 217 28.4646C193.103 9.72651 163.534 -0.310668 133.168 0.00732449L133.663 47.2584C153.288 47.0529 172.398 53.5398 187.843 65.6502C203.288 77.7605 214.146 94.7715 218.628 113.88C223.11 132.988 220.948 153.052 212.498 170.767C204.049 188.482 189.816 202.789 172.146 211.331C154.475 219.873 134.422 222.141 115.291 217.759C96.1597 213.377 79.0921 202.608 66.9011 187.227C54.7101 171.846 48.1231 152.77 48.2259 133.144C48.3287 113.517 55.115 94.5117 67.4664 79.2589L30.7435 49.5212Z"/>
</mask>
<path d="M30.7435 49.5212C11.6323 73.1216 1.13192 102.529 0.972901 132.896C0.813886 163.264 11.0057 192.779 29.8687 216.579C48.7317 240.378 75.1401 257.04 104.742 263.82C134.343 270.6 165.371 267.092 192.712 253.875C220.053 240.658 242.075 218.52 255.149 191.11C268.222 163.701 271.568 132.655 264.633 103.089C257.699 73.5236 240.898 47.2028 217 28.4646C193.103 9.72651 163.534 -0.310668 133.168 0.00732449L133.663 47.2584C153.288 47.0529 172.398 53.5398 187.843 65.6502C203.288 77.7605 214.146 94.7715 218.628 113.88C223.11 132.988 220.948 153.052 212.498 170.767C204.049 188.482 189.816 202.789 172.146 211.331C154.475 219.873 134.422 222.141 115.291 217.759C96.1597 213.377 79.0921 202.608 66.9011 187.227C54.7101 171.846 48.1231 152.77 48.2259 133.144C48.3287 113.517 55.115 94.5117 67.4664 79.2589L30.7435 49.5212Z" fill="white" stroke="white" stroke-width="2.7762" mask="url(#path-2-inside-1)"/>
</svg>
