<svg width="353" height="353" viewBox="0 0 353 353" fill="none" xmlns="http://www.w3.org/2000/svg">
<path opacity="0.3" d="M353 176.5C353 273.978 273.978 353 176.5 353C79.0217 353 0 273.978 0 176.5C0 79.0217 79.0217 0 176.5 0C273.978 0 353 79.0217 353 176.5ZM62.4819 176.5C62.4819 239.47 113.53 290.518 176.5 290.518C239.47 290.518 290.518 239.47 290.518 176.5C290.518 113.53 239.47 62.4819 176.5 62.4819C113.53 62.4819 62.4819 113.53 62.4819 176.5Z" fill="white"/>
<mask id="path-2-inside-1" fill="white">
<path d="M39.3338 65.4249C14.0851 96.6045 0.212502 135.456 0.0024197 175.576C-0.207663 215.696 13.2573 254.69 38.1781 286.133C63.0989 317.575 97.9883 339.588 137.096 348.545C176.204 357.502 217.197 352.868 253.318 335.406C289.44 317.945 318.534 288.698 335.806 252.485C353.079 216.273 357.498 175.257 348.337 136.196C339.175 97.1356 316.979 62.3619 285.407 37.606C253.835 12.8502 214.77 -0.410439 174.652 0.00967674L175.306 62.4354C201.234 62.1638 226.481 70.7341 246.886 86.7337C267.291 102.733 281.636 125.207 287.557 150.452C293.478 175.696 290.622 202.205 279.459 225.609C268.296 249.013 249.492 267.915 226.147 279.2C202.802 290.486 176.309 293.481 151.034 287.692C125.758 281.903 103.21 267.676 87.1034 247.355C70.9972 227.034 62.2949 201.832 62.4307 175.903C62.5664 149.973 71.5322 124.864 87.8503 104.713L39.3338 65.4249Z"/>
</mask>
<path d="M39.3338 65.4249C14.0851 96.6045 0.212502 135.456 0.0024197 175.576C-0.207663 215.696 13.2573 254.69 38.1781 286.133C63.0989 317.575 97.9883 339.588 137.096 348.545C176.204 357.502 217.197 352.868 253.318 335.406C289.44 317.945 318.534 288.698 335.806 252.485C353.079 216.273 357.498 175.257 348.337 136.196C339.175 97.1356 316.979 62.3619 285.407 37.606C253.835 12.8502 214.77 -0.410439 174.652 0.00967674L175.306 62.4354C201.234 62.1638 226.481 70.7341 246.886 86.7337C267.291 102.733 281.636 125.207 287.557 150.452C293.478 175.696 290.622 202.205 279.459 225.609C268.296 249.013 249.492 267.915 226.147 279.2C202.802 290.486 176.309 293.481 151.034 287.692C125.758 281.903 103.21 267.676 87.1034 247.355C70.9972 227.034 62.2949 201.832 62.4307 175.903C62.5664 149.973 71.5322 124.864 87.8503 104.713L39.3338 65.4249Z" fill="white" stroke="white" stroke-width="4" mask="url(#path-2-inside-1)"/>
</svg>
