<svg width="43" height="57" viewBox="0 0 43 57" fill="none" xmlns="http://www.w3.org/2000/svg">
<mask id="path-1-inside-1" fill="white">
<path fill-rule="evenodd" clip-rule="evenodd" d="M39.4167 57.1205C41.3957 57.1205 43 55.5162 43 53.5372V3.68102C43 1.702 41.3957 0.097683 39.4167 0.097683H14.597C13.0951 0.097683 11.6547 0.694317 10.5927 1.75632L1.65892 10.6901C0.596912 11.7521 0.000282288 13.1925 0.000282288 14.6944V53.5372C0.000282288 55.5162 1.60459 57.1205 3.58361 57.1205H39.4167Z"/>
</mask>
<path fill-rule="evenodd" clip-rule="evenodd" d="M39.4167 57.1205C41.3957 57.1205 43 55.5162 43 53.5372V3.68102C43 1.702 41.3957 0.097683 39.4167 0.097683H14.597C13.0951 0.097683 11.6547 0.694317 10.5927 1.75632L1.65892 10.6901C0.596912 11.7521 0.000282288 13.1925 0.000282288 14.6944V53.5372C0.000282288 55.5162 1.60459 57.1205 3.58361 57.1205H39.4167Z" fill="white"/>
<path fill-rule="evenodd" clip-rule="evenodd" d="M39.4167 57.1205C41.3957 57.1205 43 55.5162 43 53.5372V3.68102C43 1.702 41.3957 0.097683 39.4167 0.097683H14.597C13.0951 0.097683 11.6547 0.694317 10.5927 1.75632L1.65892 10.6901C0.596912 11.7521 0.000282288 13.1925 0.000282288 14.6944V53.5372C0.000282288 55.5162 1.60459 57.1205 3.58361 57.1205H39.4167Z" fill="black" fill-opacity="0.1"/>
<path d="M1.65892 10.6901L3.07314 12.1043L1.65892 10.6901ZM10.5927 1.75632L12.0069 3.17054L10.5927 1.75632ZM41 53.5372C41 54.4117 40.2911 55.1205 39.4167 55.1205V59.1205C42.5003 59.1205 45 56.6208 45 53.5372H41ZM41 3.68102V53.5372H45V3.68102H41ZM39.4167 2.09768C40.2911 2.09768 41 2.80656 41 3.68102H45C45 0.597427 42.5003 -1.90232 39.4167 -1.90232V2.09768ZM14.597 2.09768H39.4167V-1.90232H14.597V2.09768ZM9.17849 0.342113L0.244709 9.2759L3.07314 12.1043L12.0069 3.17054L9.17849 0.342113ZM2.00028 53.5372V14.6944H-1.99972V53.5372H2.00028ZM3.58361 55.1205C2.70916 55.1205 2.00028 54.4117 2.00028 53.5372H-1.99972C-1.99972 56.6208 0.500019 59.1205 3.58361 59.1205V55.1205ZM39.4167 55.1205H3.58361V59.1205H39.4167V55.1205ZM0.244709 9.2759C-1.19238 10.713 -1.99972 12.6621 -1.99972 14.6944H2.00028C2.00028 13.7229 2.3862 12.7913 3.07314 12.1043L0.244709 9.2759ZM14.597 -1.90232C12.5647 -1.90232 10.6156 -1.09497 9.17849 0.342113L12.0069 3.17054C12.6939 2.4836 13.6255 2.09768 14.597 2.09768V-1.90232Z" fill="#252F3C" mask="url(#path-1-inside-1)"/>
</svg>
