<svg width="43" height="57" viewBox="0 0 43 57" fill="none" xmlns="http://www.w3.org/2000/svg">
<mask id="path-1-inside-1" fill="white">
<path fill-rule="evenodd" clip-rule="evenodd" d="M39.4167 57.1205C41.3957 57.1205 43 55.5162 43 53.5371V3.68095C43 1.70192 41.3957 0.0976105 39.4167 0.0976105H14.597C13.0951 0.0976105 11.6547 0.694241 10.5927 1.75625L1.65892 10.69C0.596912 11.752 0.000282288 13.1924 0.000282288 14.6943V53.5371C0.000282288 55.5162 1.60459 57.1205 3.58361 57.1205H39.4167Z"/>
</mask>
<path fill-rule="evenodd" clip-rule="evenodd" d="M39.4167 57.1205C41.3957 57.1205 43 55.5162 43 53.5371V3.68095C43 1.70192 41.3957 0.0976105 39.4167 0.0976105H14.597C13.0951 0.0976105 11.6547 0.694241 10.5927 1.75625L1.65892 10.69C0.596912 11.752 0.000282288 13.1924 0.000282288 14.6943V53.5371C0.000282288 55.5162 1.60459 57.1205 3.58361 57.1205H39.4167Z" fill="white"/>
<path d="M41 53.5371C41 54.4116 40.2911 55.1205 39.4167 55.1205V59.1205C42.5003 59.1205 45 56.6207 45 53.5371H41ZM41 3.68095V53.5371H45V3.68095H41ZM39.4167 2.09761C40.2911 2.09761 41 2.80649 41 3.68095H45C45 0.597359 42.5003 -1.90239 39.4167 -1.90239V2.09761ZM14.597 2.09761H39.4167V-1.90239H14.597V2.09761ZM9.17846 0.342037L0.244709 9.27578L3.07314 12.1042L12.0069 3.17046L9.17846 0.342037ZM2.00028 53.5371V14.6943H-1.99972V53.5371H2.00028ZM3.58361 55.1205C2.70916 55.1205 2.00028 54.4116 2.00028 53.5371H-1.99972C-1.99972 56.6207 0.500019 59.1205 3.58361 59.1205V55.1205ZM39.4167 55.1205H3.58361V59.1205H39.4167V55.1205ZM0.244709 9.27578C-1.19237 10.7129 -1.99972 12.662 -1.99972 14.6943H2.00028C2.00028 13.7228 2.3862 12.7911 3.07314 12.1042L0.244709 9.27578ZM14.597 -1.90239C12.5646 -1.90239 10.6155 -1.09504 9.17846 0.342037L12.0069 3.17046C12.6938 2.48353 13.6255 2.09761 14.597 2.09761V-1.90239Z" fill="#252F3C" mask="url(#path-1-inside-1)"/>
</svg>
