<svg width="97" height="97" viewBox="0 0 97 97" fill="none" xmlns="http://www.w3.org/2000/svg">
<path d="M24.8069 85.4089H23.8069C23.8069 85.9612 24.2546 86.4089 24.8069 86.4089H28.4069C28.8187 86.4089 29.1885 86.1564 29.3383 85.7728L35.0898 71.0489H41.879L40.6188 79.1349C40.5738 79.4235 40.6573 79.7174 40.8473 79.9393C41.0373 80.1612 41.3148 80.2889 41.6069 80.2889H55.1669C55.459 80.2889 55.7365 80.1612 55.9265 79.9393C56.1165 79.7174 56.1999 79.4235 56.155 79.1349L54.8948 71.0489H62.2889L68.1579 85.779C68.3094 86.1594 68.6775 86.4089 69.0869 86.4089H72.6869C73.2392 86.4089 73.6869 85.9612 73.6869 85.4089H72.6869C73.6869 85.4089 73.6869 85.4089 73.6869 85.4088V85.4084V85.4077V85.4068V85.4056V85.4042V85.4025V85.4005V85.3983V85.3958V85.3931V85.3901V85.3868V85.3833V85.3795V85.3755V85.3712V85.3667V85.3619V85.3569V85.3516V85.346V85.3402V85.3342V85.3279V85.3213V85.3145V85.3075V85.3002V85.2926V85.2848V85.2768V85.2685V85.2599V85.2512V85.2421V85.2329V85.2233V85.2136V85.2036V85.1933V85.1828V85.1721V85.1611V85.1499V85.1385V85.1268V85.1148V85.1027V85.0903V85.0776V85.0647V85.0516V85.0383V85.0247V85.0109V84.9968V84.9825V84.968V84.9532V84.9382V84.923V84.9076V84.8919V84.876V84.8598V84.8434V84.8268V84.81V84.793V84.7757V84.7582V84.7404V84.7225V84.7043V84.6859V84.6673V84.6484V84.6293V84.61V84.5905V84.5707V84.5508V84.5306V84.5102V84.4896V84.4687V84.4477V84.4264V84.4049V84.3832V84.3613V84.3391V84.3168V84.2942V84.2714V84.2484V84.2252V84.2018V84.1782V84.1543V84.1303V84.106V84.0815V84.0568V84.032V84.0069V83.9815V83.956V83.9303V83.9044V83.8783V83.8519V83.8254V83.7986V83.7717V83.7445V83.7172V83.6896V83.6619V83.6339V83.6058V83.5774V83.5489V83.5201V83.4911V83.462V83.4327V83.4031V83.3734V83.3434V83.3133V83.283V83.2525V83.2218V83.1909V83.1598V83.1285V83.097V83.0653V83.0335V83.0014V82.9692V82.9368V82.9042V82.8714V82.8384V82.8052V82.7719V82.7383V82.7046V82.6707V82.6366V82.6023V82.5678V82.5332V82.4984V82.4633V82.4282V82.3928V82.3572V82.3215V82.2856V82.2495V82.2133V82.1768V82.1402V82.1034V82.0665V82.0293V81.992V81.9545V81.9169V81.879V81.841V81.8028V81.7645V81.726V81.6873V81.6484V81.6094V81.5702V81.5308V81.4913V81.4516V81.4117V81.3717V81.3315V81.2911V81.2506V81.2099V81.1691V81.128V81.0869V81.0455V81.004V80.9624V80.9205V80.8786V80.8364V80.7941V80.7517V80.709V80.6663V80.6233V80.5803V80.537V80.4936V80.4501V80.4064V80.3625V80.3185V80.2744V80.23V80.1856V80.141V80.0962V80.0513V80.0062V79.961V79.9156V79.8701V79.8245V79.7787V79.7327V79.6867V79.6404V79.594V79.5475V79.5008V79.454V79.4071V79.36V79.3127V79.2654V79.2179V79.1702V79.1224V79.0745V79.0264V78.9782V78.9298V78.8814V78.8327V78.784V78.7351V78.6861V78.6369V78.5876V78.5382V78.4886V78.439V78.3891V78.3392V78.2891V78.2389V78.1886V78.1381V78.0875V78.0368V77.9859V77.935V77.8839V77.8326V77.7813V77.7298V77.6782V77.6265V77.5746V77.5227V77.4706V77.4184V77.366V77.3136V77.261V77.2083V77.1555V77.1026V77.0495V76.9964V76.9431V76.8897V76.8362V76.7826V76.7288V76.675V76.621V76.5669V76.5127V76.4584V76.404V76.3495V76.2949V76.2401V76.1853V76.1303V76.0752V76.0201V75.9648V75.9094V75.8539V75.7983V75.7426V75.6868V75.6308V75.5748V75.5187V75.4625V75.4062V75.3497V75.2932V75.2366V75.1798V75.123V75.0661V75.0091V74.9519V74.8947V74.8374V74.78V74.7225V74.6649V74.6072V74.5494V74.4915V74.4335V74.3755V74.3173V74.2591V74.2007V74.1423V74.0838V74.0252V73.9665V73.9077V73.8488V73.7898V73.7308V73.6717V73.6124V73.5531V73.4937V73.4343V73.3747V73.3151V73.2554V73.1956V73.1357V73.0757V73.0157V72.9555V72.8953V72.835V72.7747V72.7142V72.6537V72.5931V72.5325V72.4717V72.4109V72.35V72.289V72.228V72.1669V72.1057V72.0445V71.9831V71.9217V71.8603V71.7987V71.7371V71.6754V71.6137V71.5519V71.49V71.4281V71.366V71.304V71.2418V71.1796V71.1173V71.055V70.9926V70.9302V70.8676V70.8051V70.7424V70.6797V70.6169V70.5541V70.4912V70.4283V70.3653V70.3022V70.2391V70.176V70.1128V70.0495V69.9861V69.9228V69.8593V69.7958V69.7323V69.6687V69.605V69.5413V69.4776V69.4138V69.35V69.2861V69.2221V69.1581V69.0941V69.03V68.9659V68.9017V68.8375V68.7732V68.7089V68.6445V68.5802V68.5157V68.4512V68.3867V68.3222V68.2575V68.1929V68.1282V68.0635V67.9987V67.934V67.8691V67.8043V67.7393V67.6744V67.6094V67.5444V67.4794V67.4143V67.3492V67.284V67.2189V67.1537V67.0884V67.0232V66.9579V66.8925V66.8272V66.7618V66.6964V66.631V66.5655V66.5V66.4345V66.3689V66.3034V66.2378V66.1722V66.1065V66.0409V65.9752V65.9095V65.8438V65.778V65.7123V65.6465V65.5807V65.5149V65.449V65.3832V65.3173V65.2514V65.1855V65.1196V65.0537V64.9878V64.9218V64.8558V64.7898V64.7238V64.6578V64.5918V64.5258V64.4598V64.3937V64.3277V64.2616V64.1955V64.1294V64.0634V63.9973V63.9312V63.8651V63.799V63.7329V63.6667V63.6006V63.5345V63.4684V63.4023V63.3362V63.27V63.2039V63.1378V63.0717V63.0055V62.9394V62.8733V62.8072V62.7411V62.675V62.6139C73.7491 56.5349 70.8741 52.9184 67.9705 50.8583C66.534 49.8391 65.0994 49.2047 64.0265 48.8245C63.6352 48.6858 63.2897 48.5801 63.0069 48.5016V32.2489C63.0069 29.466 62.3761 26.5521 61.1023 24.0036C61.102 24.003 61.1016 24.0023 61.1013 24.0017L51.8681 5.29534C50.6413 2.6877 47.073 2.80493 45.7645 5.25832C45.7604 5.26606 45.7564 5.27385 45.7525 5.28169L36.3925 24.0017C35.1195 26.5476 34.4869 29.3418 34.4869 32.2489V48.5037C34.2076 48.5822 33.867 48.6875 33.4814 48.8254C32.4175 49.206 30.9946 49.8407 29.5661 50.8599C26.6786 52.92 23.8069 56.5335 23.8069 62.6089V62.6757V62.7425V62.8093V62.8761V62.9429V63.0097V63.0765V63.1432V63.21V63.2768V63.3436V63.4103V63.4771V63.5438V63.6106V63.6773V63.744V63.8108V63.8775V63.9442V64.0109V64.0775V64.1442V64.2109V64.2775V64.3441V64.4107V64.4774V64.5439V64.6105V64.6771V64.7436V64.8102V64.8767V64.9432V65.0096V65.0761V65.1425V65.2089V65.2753V65.3417V65.4081V65.4744V65.5407V65.607V65.6733V65.7395V65.8058V65.872V65.9381V66.0043V66.0704V66.1365V66.2026V66.2686V66.3346V66.4006V66.4666V66.5325V66.5984V66.6642V66.7301V66.7959V66.8616V66.9274V66.9931V67.0588V67.1244V67.19V67.2556V67.3211V67.3866V67.452V67.5175V67.5828V67.6482V67.7135V67.7788V67.844V67.9092V67.9743V68.0394V68.1045V68.1695V68.2345V68.2994V68.3643V68.4291V68.4939V68.5587V68.6234V68.6881V68.7527V68.8173V68.8818V68.9463V69.0107V69.0751V69.1394V69.2037V69.2679V69.3321V69.3962V69.4602V69.5243V69.5882V69.6521V69.716V69.7798V69.8435V69.9072V69.9708V70.0344V70.0979V70.1614V70.2248V70.2881V70.3514V70.4146V70.4778V70.5409V70.6039V70.6669V70.7298V70.7926V70.8554V70.9181V70.9808V71.0434V71.1059V71.1684V71.2307V71.2931V71.3553V71.4175V71.4796V71.5417V71.6037V71.6656V71.7274V71.7892V71.8509V71.9125V71.974V72.0355V72.0969V72.1582V72.2195V72.2807V72.3418V72.4028V72.4637V72.5246V72.5854V72.6461V72.7068V72.7673V72.8278V72.8882V72.9485V73.0087V73.0689V73.129V73.1889V73.2488V73.3087V73.3684V73.428V73.4876V73.5471V73.6065V73.6658V73.725V73.7841V73.8431V73.9021V73.961V74.0197V74.0784V74.137V74.1955V74.2539V74.3122V74.3704V74.4285V74.4866V74.5445V74.6023V74.6601V74.7177V74.7753V74.8327V74.8901V74.9473V75.0045V75.0616V75.1185V75.1754V75.2321V75.2888V75.3453V75.4018V75.4581V75.5144V75.5705V75.6266V75.6825V75.7383V75.794V75.8496V75.9052V75.9606V76.0158V76.071V76.1261V76.1811V76.2359V76.2907V76.3453V76.3998V76.4542V76.5085V76.5627V76.6168V76.6707V76.7246V76.7783V76.8319V76.8854V76.9388V76.992V77.0452V77.0982V77.1511V77.2039V77.2565V77.3091V77.3615V77.4138V77.466V77.5181V77.57V77.6218V77.6735V77.7251V77.7765V77.8278V77.879V77.9301V77.981V78.0318V78.0825V78.133V78.1834V78.2337V78.2839V78.3339V78.3838V78.4336V78.4832V78.5328V78.5821V78.6314V78.6805V78.7294V78.7783V78.827V78.8755V78.924V78.9723V79.0204V79.0684V79.1163V79.164V79.2116V79.2591V79.3064V79.3536V79.4006V79.4475V79.4942V79.5409V79.5873V79.6336V79.6798V79.7258V79.7717V79.8175V79.863V79.9085V79.9538V79.9989V80.0439V80.0888V80.1335V80.178V80.2224V80.2666V80.3107V80.3547V80.3985V80.4421V80.4856V80.5289V80.5721V80.6151V80.658V80.7007V80.7432V80.7856V80.8278V80.8699V80.9118V80.9536V80.9952V81.0366V81.0779V81.119V81.1599V81.2007V81.2413V81.2818V81.3221V81.3622V81.4022V81.442V81.4816V81.5211V81.5604V81.5995V81.6385V81.6773V81.7159V81.7543V81.7926V81.8307V81.8687V81.9065V81.9441V81.9815V82.0187V82.0558V82.0927V82.1295V82.166V82.2024V82.2386V82.2746V82.3105V82.3462V82.3816V82.417V82.4521V82.4871V82.5218V82.5564V82.5908V82.6251V82.6591V82.693V82.7267V82.7602V82.7935V82.8266V82.8595V82.8923V82.9249V82.9573V82.9894V83.0215V83.0533V83.0849V83.1163V83.1476V83.1786V83.2095V83.2402V83.2707V83.301V83.3311V83.361V83.3907V83.4202V83.4495V83.4787V83.5076V83.5363V83.5648V83.5932V83.6213V83.6493V83.677V83.7046V83.7319V83.759V83.786V83.8127V83.8392V83.8656V83.8917V83.9176V83.9434V83.9689V83.9942V84.0193V84.0442V84.0689V84.0934V84.1176V84.1417V84.1656V84.1892V84.2127V84.2359V84.2589V84.2817V84.3043V84.3267V84.3489V84.3708V84.3925V84.4141V84.4354V84.4565V84.4774V84.498V84.5185V84.5387V84.5587V84.5785V84.5981V84.6174V84.6366V84.6555V84.6742V84.6926V84.7109V84.7289V84.7467V84.7643V84.7816V84.7988V84.8157V84.8324V84.8488V84.865V84.881V84.8968V84.9123V84.9277V84.9427V84.9576V84.9722V84.9866V85.0008V85.0147V85.0284V85.0418V85.0551V85.0681V85.0808V85.0934V85.1057V85.1177V85.1295V85.1411V85.1525V85.1636V85.1744V85.1851V85.1954V85.2056V85.2155V85.2252V85.2346V85.2438V85.2527V85.2614V85.2699V85.2781V85.2861V85.2938V85.3013V85.3085V85.3155V85.3222V85.3287V85.3349V85.3409V85.3467V85.3522V85.3574V85.3624V85.3671V85.3716V85.3759V85.3798V85.3836V85.387V85.3903V85.3932V85.3959V85.3984V85.4006V85.4025V85.4042V85.4057V85.4068V85.4077V85.4084V85.4088C23.8069 85.4089 23.8069 85.4089 24.8069 85.4089Z" fill="#FF85A2" stroke="black" stroke-width="2" stroke-miterlimit="10" stroke-linejoin="round"/>
<path opacity="0.1" d="M48.5669 80.0082V70.4082H55.7669V80.0082H48.5669Z" fill="black"/>
<path opacity="0.2" d="M73.7669 61.4086C73.7669 52.7686 66.1669 49.4086 62.3669 48.8086V71.0086L67.7669 86.0086H73.7669V61.4086Z" fill="black"/>
<path d="M34.9869 70.0489V70.5489H35.4869H62.0069H62.1269H62.6269V70.0489V32.2489C62.6269 29.4154 62.0106 26.6983 60.7741 24.2253L51.4141 5.5053L51.4142 5.50522L51.4081 5.49361C50.274 3.36729 47.2307 3.30826 46.1968 5.5111L36.8397 24.2253C35.6024 26.6998 34.9869 29.5371 34.9869 32.2489V70.0489Z" fill="white" stroke="black" stroke-miterlimit="10"/>
<path opacity="0.1" d="M53.9669 30.209C53.9669 25.409 49.1669 5.60898 48.5669 3.20898L51.5669 4.40898L62.9669 27.809V70.409H53.9669V30.209Z" fill="black"/>
<path d="M14.1269 86.6084H86.4869" stroke="black" stroke-width="2" stroke-miterlimit="10"/>
<path d="M14.2469 94.6489L19.6469 87.0889" stroke="black" stroke-miterlimit="10"/>
<path d="M20.2469 94.6489L25.5269 87.0889" stroke="black" stroke-miterlimit="10"/>
<path d="M26.2469 94.6489L31.5269 87.0889" stroke="black" stroke-miterlimit="10"/>
<path d="M32.1269 94.6489L37.5269 87.0889" stroke="black" stroke-miterlimit="10"/>
<path d="M38.1269 94.6489L43.5269 87.0889" stroke="black" stroke-miterlimit="10"/>
<path d="M44.1269 94.6489L49.4069 87.0889" stroke="black" stroke-miterlimit="10"/>
<path d="M50.1269 94.6489L55.4069 87.0889" stroke="black" stroke-miterlimit="10"/>
<path d="M56.0069 94.6489L61.4069 87.0889" stroke="black" stroke-miterlimit="10"/>
<path d="M62.0069 94.6489L67.2869 87.0889" stroke="black" stroke-miterlimit="10"/>
<path d="M68.0069 94.6489L73.2869 87.0889" stroke="black" stroke-miterlimit="10"/>
<path d="M73.8868 94.6489L79.2868 87.0889" stroke="black" stroke-miterlimit="10"/>
<path d="M79.6469 94.6489L85.0468 87.0889" stroke="black" stroke-miterlimit="10"/>
<path opacity="0.1" d="M48.4469 44.6084C51.4955 44.6084 53.9669 42.137 53.9669 39.0884C53.9669 36.0397 51.4955 33.5684 48.4469 33.5684C45.3983 33.5684 42.9269 36.0397 42.9269 39.0884C42.9269 42.137 45.3983 44.6084 48.4469 44.6084Z" fill="black"/>
<path d="M53.4669 36.6889C53.4669 39.4614 51.2194 41.7089 48.4469 41.7089C45.6744 41.7089 43.4269 39.4614 43.4269 36.6889C43.4269 33.9165 45.6744 31.6689 48.4469 31.6689C51.2194 31.6689 53.4669 33.9165 53.4669 36.6889Z" fill="#E4E4E4" stroke="black" stroke-miterlimit="10"/>
<path opacity="0.1" d="M48.4469 61.8886C51.4955 61.8886 53.9669 59.4172 53.9669 56.3686C53.9669 53.32 51.4955 50.8486 48.4469 50.8486C45.3983 50.8486 42.9269 53.32 42.9269 56.3686C42.9269 59.4172 45.3983 61.8886 48.4469 61.8886Z" fill="black"/>
<path d="M53.4669 53.9682C53.4669 56.7407 51.2193 58.9882 48.4469 58.9882C45.6744 58.9882 43.4269 56.7407 43.4269 53.9682C43.4269 51.1958 45.6744 48.9482 48.4469 48.9482C51.2194 48.9482 53.4669 51.1958 53.4669 53.9682Z" fill="#E4E4E4" stroke="black" stroke-miterlimit="10"/>
<path d="M37.7669 21.209H59.3669" stroke="black" stroke-miterlimit="10"/>
</svg>
