<svg width="117" height="163" viewBox="0 0 117 163" fill="none" xmlns="http://www.w3.org/2000/svg">
<g clip-path="url(#clip0)">
<path d="M18.2227 143.871H24.3448M18.2227 143.871V142.17V105.097C18.2227 85.7103 36.3851 82.4452 36.3851 82.4452L24.3448 143.871M18.2227 143.871H16.5221C16.5221 144.81 17.2834 145.572 18.2227 145.572H24.3448C25.0452 145.572 25.674 145.142 25.9289 144.49L35.7099 119.45H47.2555L45.1125 133.201C45.036 133.692 45.1779 134.192 45.501 134.569C45.8241 134.947 46.296 135.164 46.7928 135.164H69.853C70.3497 135.164 70.8217 134.947 71.1448 134.569C71.4678 134.192 71.6098 133.692 71.5333 133.201L69.3903 119.45H81.9646L91.9456 144.5C92.2033 145.147 92.8292 145.572 93.5254 145.572H99.6476C100.587 145.572 101.348 144.81 101.348 143.871H99.6476C101.348 143.871 101.348 143.871 101.348 143.871V143.87V143.869V143.867V143.865V143.863V143.86V143.857V143.853V143.849V143.844V143.839V143.833V143.827V143.821V143.814V143.807V143.799V143.791V143.782V143.773V143.764V143.754V143.744V143.733V143.722V143.71V143.698V143.686V143.673V143.66V143.646V143.632V143.618V143.603V143.587V143.572V143.555V143.539V143.522V143.504V143.487V143.468V143.45V143.431V143.411V143.391V143.371V143.35V143.329V143.308V143.286V143.263V143.241V143.218V143.194V143.17V143.146V143.121V143.096V143.071V143.045V143.018V142.992V142.965V142.937V142.909V142.881V142.852V142.823V142.794V142.764V142.734V142.704V142.673V142.641V142.61V142.578V142.545V142.512V142.479V142.446V142.412V142.377V142.343V142.308V142.272V142.236V142.2V142.164V142.127V142.089V142.052V142.014V141.975V141.937V141.897V141.858V141.818V141.778V141.737V141.697V141.655V141.614V141.572V141.529V141.487V141.444V141.4V141.356V141.312V141.268V141.223V141.178V141.133V141.087V141.041V140.994V140.947V140.9V140.852V140.805V140.756V140.708V140.659V140.61V140.56V140.51V140.46V140.409V140.358V140.307V140.256V140.204V140.152V140.099V140.046V139.993V139.939V139.885V139.831V139.777V139.722V139.667V139.611V139.556V139.5V139.443V139.386V139.329V139.272V139.214V139.156V139.098V139.039V138.98V138.921V138.862V138.802V138.742V138.681V138.621V138.559V138.498V138.436V138.374V138.312V138.25V138.187V138.124V138.06V137.996V137.932V137.868V137.803V137.738V137.673V137.608V137.542V137.476V137.409V137.343V137.276V137.209V137.141V137.073V137.005V136.937V136.868V136.799V136.73V136.661V136.591V136.521V136.451V136.38V136.309V136.238V136.167V136.095V136.023V135.951V135.878V135.806V135.733V135.659V135.586V135.512V135.438V135.364V135.289V135.214V135.139V135.064V134.988V134.912V134.836V134.76V134.683V134.606V134.529V134.452V134.374V134.296V134.218V134.14V134.061V133.982V133.903V133.824V133.744V133.664V133.584V133.504V133.423V133.342V133.261V133.18V133.099V133.017V132.935V132.853V132.77V132.688V132.605V132.521V132.438V132.354V132.271V132.187V132.102V132.018V131.933V131.848V131.763V131.678V131.592V131.506V131.42V131.334V131.247V131.161V131.074V130.987V130.899V130.812V130.724V130.636V130.548V130.46V130.371V130.282V130.193V130.104V130.015V129.925V129.835V129.745V129.655V129.565V129.474V129.383V129.292V129.201V129.11V129.018V128.926V128.834V128.742V128.65V128.557V128.464V128.372V128.278V128.185V128.092V127.998V127.904V127.81V127.716V127.622V127.527V127.432V127.337V127.242V127.147V127.052V126.956V126.86V126.764V126.668V126.572V126.475V126.379V126.282V126.185V126.088V125.991V125.893V125.795V125.698V125.6V125.502V125.403V125.305V125.206V125.107V125.009V124.91V124.81V124.711V124.611V124.512V124.412V124.312V124.212V124.112V124.011V123.911V123.81V123.709V123.608V123.507V123.406V123.304V123.203V123.101V122.999V122.897V122.795V122.693V122.59V122.488V122.385V122.282V122.179V122.076V121.973V121.87V121.767V121.663V121.559V121.455V121.352V121.247V121.143V121.039V120.935V120.83V120.725V120.621V120.516V120.411V120.306V120.2V120.095V119.99V119.884V119.778V119.673V119.567V119.461V119.355V119.248V119.142V119.036V118.929V118.822V118.716V118.609V118.502V118.395V118.288V118.181V118.073V117.966V117.858V117.751V117.643V117.535V117.427V117.319V117.211V117.103V116.995V116.887V116.778V116.67V116.561V116.452V116.344V116.235V116.126V116.017V115.908V115.799V115.69V115.58V115.471V115.361V115.252V115.142V115.033V114.923V114.813V114.703V114.593V114.483V114.373V114.263V114.153V114.043V113.932V113.822V113.712V113.601V113.491V113.38V113.269V113.159V113.048V112.937V112.826V112.715V112.604V112.493V112.382V112.271V112.16V112.048V111.937V111.826V111.714V111.603V111.492V111.38V111.268V111.157V111.045V110.934V110.822V110.71V110.598V110.487V110.375V110.263V110.151V110.039V109.927V109.815V109.703V109.591V109.479V109.367V109.255V109.143V109.03V108.918V108.806V108.694V108.582V108.469V108.357V108.245V108.132V108.02V107.908V107.795V107.683V107.571V107.458V107.346V107.233V107.121V107.009V106.896V106.784V106.671V106.559V106.446V106.334V106.222V106.109V105.997V105.884V105.772V105.659V105.547V105.434V105.322V105.21V105.106C101.454 94.7676 96.5648 88.6175 91.6269 85.1141C89.1839 83.3808 86.7443 82.3019 84.9197 81.6553C84.2542 81.4195 83.6667 81.2398 83.1857 81.1062V53.4669C83.1857 48.7345 82.1131 43.7794 79.9471 39.4457C79.9464 39.4443 79.9458 39.443 79.9451 39.4416L64.243 7.62957C62.1568 3.19497 56.0885 3.39433 53.8633 7.56658C53.8563 7.57974 53.8494 7.59299 53.8428 7.60633L37.9251 39.4416C35.7603 43.7713 34.6845 48.523 34.6845 53.4669V81.1098C34.2095 81.2434 33.6303 81.4224 32.9745 81.657C31.1653 82.3041 28.7454 83.3835 26.3162 85.1167C21.4058 88.6202 16.5221 94.7654 16.5221 105.097V105.211V105.324V105.438V105.552V105.665V105.779V105.892V106.006V106.119V106.233V106.347V106.46V106.574V106.687V106.801V106.914V107.028V107.141V107.255V107.368V107.481V107.595V107.708V107.821V107.935V108.048V108.161V108.275V108.388V108.501V108.614V108.728V108.841V108.954V109.067V109.18V109.293V109.406V109.519V109.632V109.745V109.857V109.97V110.083V110.196V110.309V110.421V110.534V110.646V110.759V110.871V110.984V111.096V111.209V111.321V111.433V111.545V111.658V111.77V111.882V111.994V112.106V112.218V112.329V112.441V112.553V112.665V112.776V112.888V112.999V113.111V113.222V113.333V113.445V113.556V113.667V113.778V113.889V114V114.111V114.222V114.332V114.443V114.554V114.664V114.774V114.885V114.995V115.105V115.215V115.325V115.435V115.545V115.655V115.765V115.875V115.984V116.094V116.203V116.312V116.421V116.531V116.64V116.749V116.857V116.966V117.075V117.183V117.292V117.4V117.509V117.617V117.725V117.833V117.941V118.049V118.156V118.264V118.372V118.479V118.586V118.693V118.801V118.908V119.014V119.121V119.228V119.334V119.441V119.547V119.653V119.76V119.866V119.971V120.077V120.183V120.288V120.394V120.499V120.604V120.709V120.814V120.919V121.024V121.128V121.233V121.337V121.441V121.545V121.649V121.753V121.856V121.96V122.063V122.167V122.27V122.373V122.475V122.578V122.681V122.783V122.885V122.988V123.09V123.192V123.293V123.395V123.496V123.598V123.699V123.8V123.901V124.001V124.102V124.202V124.302V124.403V124.502V124.602V124.702V124.801V124.901V125V125.099V125.198V125.296V125.395V125.493V125.591V125.69V125.787V125.885V125.983V126.08V126.177V126.274V126.371V126.468V126.564V126.661V126.757V126.853V126.949V127.044V127.14V127.235V127.33V127.425V127.52V127.614V127.709V127.803V127.897V127.991V128.085V128.178V128.271V128.364V128.457V128.55V128.643V128.735V128.827V128.919V129.011V129.102V129.194V129.285V129.376V129.467V129.557V129.648V129.738V129.828V129.917V130.007V130.096V130.186V130.274V130.363V130.452V130.54V130.628V130.716V130.804V130.891V130.979V131.066V131.152V131.239V131.325V131.412V131.498V131.583V131.669V131.754V131.839V131.924V132.009V132.093V132.177V132.261V132.345V132.429V132.512V132.595V132.678V132.76V132.843V132.925V133.007V133.088V133.17V133.251V133.332V133.413V133.493V133.573V133.653V133.733V133.812V133.892V133.971V134.05V134.128V134.206V134.284V134.362V134.44V134.517V134.594V134.671V134.747V134.824V134.9V134.975V135.051V135.126V135.201V135.276V135.35V135.424V135.498V135.572V135.645V135.719V135.791V135.864V135.936V136.009V136.08V136.152V136.223V136.294V136.365V136.435V136.506V136.575V136.645V136.714V136.784V136.852V136.921V136.989V137.057V137.125V137.192V137.259V137.326V137.393V137.459V137.525V137.591V137.656V137.721V137.786V137.85V137.915V137.979V138.042V138.106V138.169V138.231V138.294V138.356V138.418V138.48V138.541V138.602V138.662V138.723V138.783V138.843V138.902V138.961V139.02V139.079V139.137V139.195V139.252V139.31V139.366V139.423V139.479V139.535V139.591V139.647V139.702V139.756V139.811V139.865V139.919V139.972V140.025V140.078V140.131V140.183V140.235V140.286V140.337V140.388V140.439V140.489V140.539V140.588V140.638V140.686V140.735V140.783V140.831V140.879V140.926V140.973V141.019V141.065V141.111V141.156V141.202V141.246V141.291V141.335V141.379V141.422V141.465V141.508V141.55V141.592V141.634V141.675V141.716V141.757V141.797V141.837V141.876V141.915V141.954V141.992V142.031V142.068V142.106V142.143V142.179V142.215V142.251V142.287V142.322V142.357V142.391V142.425V142.459V142.492V142.525V142.558V142.59V142.621V142.653V142.684V142.715V142.745V142.775V142.804V142.833V142.862V142.89V142.918V142.946V142.973V143V143.026V143.053V143.078V143.103V143.128V143.153V143.177V143.201V143.224V143.247V143.269V143.291V143.313V143.334V143.355V143.376V143.396V143.416V143.435V143.454V143.472V143.49V143.508V143.525V143.542V143.559V143.575V143.59V143.605V143.62V143.635V143.648V143.662V143.675V143.688V143.7V143.712V143.724V143.735V143.745V143.755V143.765V143.774V143.783V143.792V143.8V143.808V143.815V143.822V143.828V143.834V143.839V143.844V143.849V143.853V143.857V143.86V143.863V143.865V143.867V143.869V143.87V143.871C16.5221 143.871 16.5221 143.871 18.2227 143.871ZM24.3448 143.871L34.5484 117.75L24.3448 143.871Z" fill="#FF85A2" stroke="black" stroke-width="3.40121" stroke-miterlimit="10" stroke-linejoin="round"/>
<path opacity="0.1" d="M58.6289 134.688V118.362H70.8732V134.688H58.6289Z" fill="black"/>
<path opacity="0.2" d="M101.484 103.057C101.484 88.3634 88.5597 82.6494 82.0974 81.629V119.382L91.2807 144.891H101.484V103.057Z" fill="black"/>
<path d="M35.5347 117.75V118.6H36.385H81.485H81.6891H82.5394V117.75V53.4669C82.5394 48.6481 81.4913 44.0274 79.3885 39.8219L63.4709 7.98659L63.4659 7.97659L63.4606 7.96672C61.5321 4.35069 56.3565 4.25029 54.5983 7.99644L38.6856 39.8219C36.5815 44.03 35.5347 48.8552 35.5347 53.4669V117.75Z" fill="white" stroke="black" stroke-width="1.7006" stroke-miterlimit="10"/>
<path opacity="0.1" d="M67.8122 49.9978C67.8122 41.8349 59.6493 8.16299 58.6289 4.08154L63.7307 6.12227L83.1176 45.9164V118.362H67.8122V49.9978Z" fill="black"/>
<path d="M0.0603027 145.912H123.116" stroke="black" stroke-width="3.40121" stroke-miterlimit="10"/>
<path d="M0.26416 159.585L9.44742 146.728" stroke="black" stroke-width="1.7006" stroke-miterlimit="10"/>
<path d="M10.4678 159.585L19.447 146.728" stroke="black" stroke-width="1.7006" stroke-miterlimit="10"/>
<path d="M20.6714 159.585L29.6506 146.728" stroke="black" stroke-width="1.7006" stroke-miterlimit="10"/>
<path d="M30.6711 159.585L39.8544 146.728" stroke="black" stroke-width="1.7006" stroke-miterlimit="10"/>
<path d="M40.8748 159.585L50.058 146.728" stroke="black" stroke-width="1.7006" stroke-miterlimit="10"/>
<path d="M51.0784 159.585L60.0576 146.728" stroke="black" stroke-width="1.7006" stroke-miterlimit="10"/>
<path d="M61.282 159.585L70.2612 146.728" stroke="black" stroke-width="1.7006" stroke-miterlimit="10"/>
<path d="M71.2812 159.585L80.4645 146.728" stroke="black" stroke-width="1.7006" stroke-miterlimit="10"/>
<path d="M81.4849 159.585L90.464 146.728" stroke="black" stroke-width="1.7006" stroke-miterlimit="10"/>
<path d="M91.6887 159.585L100.668 146.728" stroke="black" stroke-width="1.7006" stroke-miterlimit="10"/>
<path d="M101.688 159.585L110.872 146.728" stroke="black" stroke-width="1.7006" stroke-miterlimit="10"/>
<path d="M111.484 159.585L120.667 146.728" stroke="black" stroke-width="1.7006" stroke-miterlimit="10"/>
<path opacity="0.1" d="M58.4247 74.4865C63.6092 74.4865 67.812 70.2836 67.812 65.0991C67.812 59.9146 63.6092 55.7118 58.4247 55.7118C53.2402 55.7118 49.0374 59.9146 49.0374 65.0991C49.0374 70.2836 53.2402 74.4865 58.4247 74.4865Z" fill="black"/>
<path d="M66.9617 61.0178C66.9617 65.7327 63.1396 69.5549 58.4247 69.5549C53.7098 69.5549 49.8877 65.7327 49.8877 61.0178C49.8877 56.303 53.7098 52.4808 58.4247 52.4808C63.1396 52.4808 66.9617 56.303 66.9617 61.0178Z" fill="#E4E4E4" stroke="black" stroke-width="1.7006" stroke-miterlimit="10"/>
<path opacity="0.1" d="M58.4247 103.873C63.6092 103.873 67.812 99.6698 67.812 94.4853C67.812 89.3009 63.6092 85.098 58.4247 85.098C53.2402 85.098 49.0374 89.3009 49.0374 94.4853C49.0374 99.6698 53.2402 103.873 58.4247 103.873Z" fill="black"/>
<path d="M66.9617 90.4039C66.9617 95.1188 63.1396 98.941 58.4247 98.941C53.7098 98.941 49.8877 95.1188 49.8877 90.4039C49.8877 85.6891 53.7098 81.8669 58.4247 81.8669C63.1396 81.8669 66.9617 85.6891 66.9617 90.4039Z" fill="#E4E4E4" stroke="black" stroke-width="1.7006" stroke-miterlimit="10"/>
<path d="M40.2625 34.6924H76.9955" stroke="black" stroke-width="1.7006" stroke-miterlimit="10"/>
</g>
<defs>
<clipPath id="clip0">
<rect width="117" height="163" fill="white"/>
</clipPath>
</defs>
</svg>
