<svg width="128" height="160" viewBox="0 0 128 160" fill="none" xmlns="http://www.w3.org/2000/svg">
<path d="M2 145H125.056" stroke="black" stroke-width="3.40121" stroke-miterlimit="10"/>
<path d="M3 156L12 145" stroke="black" stroke-width="1.7006" stroke-miterlimit="10"/>
<path d="M11 156L20 145" stroke="black" stroke-width="1.7006" stroke-miterlimit="10"/>
<path d="M19 156L28 145" stroke="black" stroke-width="1.7006" stroke-miterlimit="10"/>
<path d="M27 156L36 145" stroke="black" stroke-width="1.7006" stroke-miterlimit="10"/>
<path d="M35 156L44 145" stroke="black" stroke-width="1.7006" stroke-miterlimit="10"/>
<path d="M43 156L52 145" stroke="black" stroke-width="1.7006" stroke-miterlimit="10"/>
<path d="M51 156L60 145" stroke="black" stroke-width="1.7006" stroke-miterlimit="10"/>
<path d="M59 156L68 145" stroke="black" stroke-width="1.7006" stroke-miterlimit="10"/>
<path d="M67 156L76 145" stroke="black" stroke-width="1.7006" stroke-miterlimit="10"/>
<path d="M75 156L84 145" stroke="black" stroke-width="1.7006" stroke-miterlimit="10"/>
<path d="M83 156L92 145" stroke="black" stroke-width="1.7006" stroke-miterlimit="10"/>
<path d="M91 156L100 145" stroke="black" stroke-width="1.7006" stroke-miterlimit="10"/>
<path d="M99 156L108 145" stroke="black" stroke-width="1.7006" stroke-miterlimit="10"/>
<path d="M107 156L116 145" stroke="black" stroke-width="1.7006" stroke-miterlimit="10"/>
<path d="M115 156L124 145" stroke="black" stroke-width="1.7006" stroke-miterlimit="10"/>
<path d="M86.2625 81.0123V52.034C86.2625 47.5444 85.2421 42.8507 83.2014 38.7693L67.4878 6.934C66.0593 3.87291 61.7738 3.87291 60.1412 6.934L44.2235 38.7693C42.1828 42.8507 41.1624 47.3403 41.1624 52.034V81.0123C41.1624 81.0123 23 84.2775 23 103.664C23 123.051 23 142.438 23 142.438H29.1222L42.3258 116.317H54.019L51.5701 132.03H74.6303L72.1815 116.317H84.895L98.3027 142.438H104.425C104.425 142.438 104.425 122.847 104.425 103.664C104.629 84.2775 86.2625 81.0123 86.2625 81.0123Z" fill="#FF85A2" stroke="black" stroke-width="3.40121" stroke-miterlimit="10" stroke-linejoin="round"/>
<path opacity="0.1" d="M64.0273 132V115.5H72.0273L74.5273 132H64.0273Z" fill="black"/>
<path opacity="0.2" d="M104.027 101.661C104.027 87.4935 91.5273 81.4839 85.5273 80.5V117L98.5273 142H104.027V101.661Z" fill="black"/>
<path d="M85.6161 52.034V115.467H42.0127V52.034C42.0127 47.6665 43.0066 43.1044 44.984 39.1496L60.9016 7.31427L60.9068 7.30399L60.9116 7.29358C62.0139 4.93153 65.3942 4.83172 66.7324 7.32479L82.6448 39.1496C84.6235 43.1069 85.6161 47.4654 85.6161 52.034Z" fill="white" stroke="black" stroke-width="1.7006" stroke-miterlimit="10"/>
<path opacity="0.1" d="M74.0273 49.5982C74.0273 41.6696 63.9857 8.96429 63.0273 5H66.0273L86.0273 45.6339V116H74.0273V49.5982Z" fill="black"/>
<path opacity="0.1" d="M63.202 73.0536C68.3865 73.0536 72.5894 68.8507 72.5894 63.6663C72.5894 58.4818 68.3865 54.2789 63.202 54.2789C58.0175 54.2789 53.8147 58.4818 53.8147 63.6663C53.8147 68.8507 58.0175 73.0536 63.202 73.0536Z" fill="black"/>
<path d="M71.7391 59.585C71.7391 64.2998 67.9169 68.122 63.202 68.122C58.4872 68.122 54.665 64.2998 54.665 59.585C54.665 54.8701 58.4872 51.0479 63.202 51.0479C67.9169 51.0479 71.7391 54.8701 71.7391 59.585Z" fill="#E4E4E4" stroke="black" stroke-width="1.7006" stroke-miterlimit="10"/>
<path opacity="0.1" d="M63.202 102.44C68.3865 102.44 72.5894 98.237 72.5894 93.0525C72.5894 87.868 68.3865 83.6652 63.202 83.6652C58.0175 83.6652 53.8147 87.868 53.8147 93.0525C53.8147 98.237 58.0175 102.44 63.202 102.44Z" fill="black"/>
<path d="M71.7391 88.9711C71.7391 93.6859 67.9169 97.5081 63.202 97.5081C58.4872 97.5081 54.665 93.6859 54.665 88.9711C54.665 84.2562 58.4872 80.434 63.202 80.434C67.9169 80.434 71.7391 84.2562 71.7391 88.9711Z" fill="#E4E4E4" stroke="black" stroke-width="1.7006" stroke-miterlimit="10"/>
<path d="M47.0273 33L80.0273 33" stroke="black" stroke-width="1.7006" stroke-miterlimit="10"/>
</svg>
