<svg width="370" height="350" viewBox="0 0 370 350" fill="none" xmlns="http://www.w3.org/2000/svg">
<path d="M1 335H370" stroke="white" stroke-width="3.40121" stroke-miterlimit="10"/>
<path d="M1.01465 349.152L10.1979 336.295" stroke="white" stroke-width="1.7006" stroke-miterlimit="10"/>
<path d="M11.1978 349.152L20.381 336.295" stroke="white" stroke-width="1.7006" stroke-miterlimit="10"/>
<path d="M21.3813 349.152L30.5646 336.295" stroke="white" stroke-width="1.7006" stroke-miterlimit="10"/>
<path d="M31.5645 349.152L40.5436 336.295" stroke="white" stroke-width="1.7006" stroke-miterlimit="10"/>
<path d="M41.5435 349.152L50.5226 336.295" stroke="white" stroke-width="1.7006" stroke-miterlimit="10"/>
<path d="M51.5229 349.152L60.5021 336.295" stroke="white" stroke-width="1.7006" stroke-miterlimit="10"/>
<path d="M61.502 349.152L70.4811 336.295" stroke="white" stroke-width="1.7006" stroke-miterlimit="10"/>
<path d="M71.481 349.152L80.4601 336.295" stroke="white" stroke-width="1.7006" stroke-miterlimit="10"/>
<path d="M81.4604 349.152L90.4396 336.295" stroke="white" stroke-width="1.7006" stroke-miterlimit="10"/>
<path d="M91.4395 349.152L100.623 336.295" stroke="white" stroke-width="1.7006" stroke-miterlimit="10"/>
<path d="M101.623 349.152L110.806 336.295" stroke="white" stroke-width="1.7006" stroke-miterlimit="10"/>
<path d="M111.806 349.152L120.989 336.295" stroke="white" stroke-width="1.7006" stroke-miterlimit="10"/>
<path d="M121.989 349.152L131.173 336.295" stroke="white" stroke-width="1.7006" stroke-miterlimit="10"/>
<path d="M132.172 349.152L141.356 336.295" stroke="white" stroke-width="1.7006" stroke-miterlimit="10"/>
<path d="M142.356 349.152L151.539 336.295" stroke="white" stroke-width="1.7006" stroke-miterlimit="10"/>
<path d="M152.539 349.152L161.518 336.295" stroke="white" stroke-width="1.7006" stroke-miterlimit="10"/>
<path d="M162.518 349.152L171.497 336.295" stroke="white" stroke-width="1.7006" stroke-miterlimit="10"/>
<path d="M172.498 349.152L181.477 336.295" stroke="white" stroke-width="1.7006" stroke-miterlimit="10"/>
<path d="M182.477 349.152L191.456 336.295" stroke="white" stroke-width="1.7006" stroke-miterlimit="10"/>
<path d="M192.456 349.152L201.435 336.295" stroke="white" stroke-width="1.7006" stroke-miterlimit="10"/>
<path d="M202.435 349.152L211.414 336.295" stroke="white" stroke-width="1.7006" stroke-miterlimit="10"/>
<path d="M212.414 349.152L221.597 336.295" stroke="white" stroke-width="1.7006" stroke-miterlimit="10"/>
<path d="M222.598 349.152L231.781 336.295" stroke="white" stroke-width="1.7006" stroke-miterlimit="10"/>
<path d="M232.781 349.152L241.964 336.295" stroke="white" stroke-width="1.7006" stroke-miterlimit="10"/>
<path d="M242.964 349.152L251.943 336.295" stroke="white" stroke-width="1.7006" stroke-miterlimit="10"/>
<path d="M252.943 349.152L261.922 336.295" stroke="white" stroke-width="1.7006" stroke-miterlimit="10"/>
<path d="M262.922 349.152L271.902 336.295" stroke="white" stroke-width="1.7006" stroke-miterlimit="10"/>
<path d="M272.901 349.152L281.881 336.295" stroke="white" stroke-width="1.7006" stroke-miterlimit="10"/>
<path d="M282.881 349.152L291.86 336.295" stroke="white" stroke-width="1.7006" stroke-miterlimit="10"/>
<path d="M292.86 349.152L301.839 336.295" stroke="white" stroke-width="1.7006" stroke-miterlimit="10"/>
<path d="M302.839 349.152L312.022 336.295" stroke="white" stroke-width="1.7006" stroke-miterlimit="10"/>
<path d="M313.022 349.152L322.206 336.295" stroke="white" stroke-width="1.7006" stroke-miterlimit="10"/>
<path d="M323.206 349.152L332.389 336.295" stroke="white" stroke-width="1.7006" stroke-miterlimit="10"/>
<path d="M333.389 349.152L342.572 336.295" stroke="white" stroke-width="1.7006" stroke-miterlimit="10"/>
<path d="M343.572 349.152L352.756 336.295" stroke="white" stroke-width="1.7006" stroke-miterlimit="10"/>
<path d="M353.755 349.152L362.939 336.295" stroke="white" stroke-width="1.7006" stroke-miterlimit="10"/>
<path d="M288.661 116.985L282.75 118.578M288.661 116.985L289.103 118.627L298.747 154.424C303.79 173.144 287.102 181.021 287.102 181.021L282.75 118.578M288.661 116.985L290.303 116.543C290.059 115.636 289.125 115.099 288.219 115.343L282.307 116.936C281.631 117.118 281.135 117.696 281.059 118.392L278.128 145.114L266.98 148.117L265.472 134.282C265.418 133.788 265.151 133.343 264.741 133.062C264.331 132.782 263.819 132.695 263.339 132.824L241.073 138.823C240.593 138.952 240.194 139.285 239.98 139.733C239.766 140.181 239.759 140.701 239.961 141.155L245.607 153.875L233.466 157.146L217.312 135.555C216.895 134.997 216.18 134.75 215.508 134.931L209.597 136.524C208.69 136.768 208.153 137.701 208.397 138.608L210.039 138.166C208.397 138.608 208.397 138.608 208.397 138.608L208.397 138.609L208.398 138.61L208.398 138.612L208.398 138.614L208.399 138.616L208.4 138.619L208.401 138.622L208.402 138.626L208.403 138.63L208.404 138.634L208.405 138.639L208.407 138.644L208.408 138.65L208.41 138.656L208.412 138.663L208.414 138.67L208.416 138.677L208.418 138.685L208.42 138.694L208.422 138.702L208.425 138.711L208.427 138.721L208.43 138.731L208.433 138.741L208.436 138.752L208.439 138.763L208.442 138.775L208.445 138.787L208.448 138.799L208.452 138.812L208.455 138.825L208.459 138.839L208.463 138.853L208.467 138.867L208.471 138.882L208.475 138.897L208.479 138.913L208.483 138.929L208.488 138.945L208.492 138.962L208.497 138.979L208.502 138.997L208.507 139.015L208.512 139.033L208.517 139.052L208.522 139.071L208.527 139.091L208.532 139.111L208.538 139.131L208.544 139.152L208.549 139.173L208.555 139.195L208.561 139.217L208.567 139.239L208.573 139.262L208.579 139.285L208.586 139.308L208.592 139.332L208.599 139.356L208.605 139.381L208.612 139.406L208.619 139.431L208.626 139.457L208.633 139.483L208.64 139.51L208.647 139.537L208.654 139.564L208.662 139.592L208.669 139.62L208.677 139.648L208.685 139.677L208.693 139.706L208.701 139.735L208.709 139.765L208.717 139.795L208.725 139.826L208.733 139.857L208.742 139.888L208.75 139.92L208.759 139.952L208.768 139.984L208.777 140.017L208.786 140.05L208.795 140.084L208.804 140.118L208.813 140.152L208.822 140.187L208.832 140.221L208.841 140.257L208.851 140.292L208.86 140.328L208.87 140.365L208.88 140.401L208.89 140.439L208.9 140.476L208.91 140.514L208.921 140.552L208.931 140.59L208.941 140.629L208.952 140.668L208.963 140.708L208.973 140.748L208.984 140.788L208.995 140.828L209.006 140.869L209.017 140.91L209.028 140.952L209.04 140.994L209.051 141.036L209.063 141.079L209.074 141.122L209.086 141.165L209.097 141.208L209.109 141.252L209.121 141.297L209.133 141.341L209.145 141.386L209.158 141.431L209.17 141.477L209.182 141.523L209.195 141.569L209.207 141.616L209.22 141.662L209.233 141.71L209.245 141.757L209.258 141.805L209.271 141.853L209.284 141.902L209.297 141.951L209.311 142L209.324 142.049L209.337 142.099L209.351 142.149L209.365 142.2L209.378 142.25L209.392 142.301L209.406 142.353L209.42 142.404L209.434 142.456L209.448 142.509L209.462 142.561L209.476 142.614L209.491 142.668L209.505 142.721L209.52 142.775L209.534 142.829L209.549 142.884L209.564 142.938L209.578 142.993L209.593 143.049L209.608 143.104L209.623 143.16L209.639 143.217L209.654 143.273L209.669 143.33L209.685 143.387L209.7 143.445L209.716 143.503L209.731 143.561L209.747 143.619L209.763 143.678L209.779 143.737L209.795 143.796L209.811 143.856L209.827 143.915L209.843 143.976L209.859 144.036L209.876 144.097L209.892 144.158L209.909 144.219L209.925 144.28L209.942 144.342L209.958 144.404L209.975 144.467L209.992 144.53L210.009 144.593L210.026 144.656L210.043 144.719L210.061 144.783L210.078 144.847L210.095 144.912L210.113 144.976L210.13 145.041L210.148 145.106L210.165 145.172L210.183 145.237L210.201 145.303L210.219 145.37L210.236 145.436L210.254 145.503L210.273 145.57L210.291 145.638L210.309 145.705L210.327 145.773L210.346 145.841L210.364 145.91L210.382 145.978L210.401 146.047L210.42 146.116L210.438 146.186L210.457 146.256L210.476 146.326L210.495 146.396L210.514 146.466L210.533 146.537L210.552 146.608L210.571 146.679L210.591 146.751L210.61 146.823L210.629 146.895L210.649 146.967L210.668 147.039L210.688 147.112L210.708 147.185L210.727 147.258L210.747 147.332L210.767 147.406L210.787 147.48L210.807 147.554L210.827 147.628L210.847 147.703L210.867 147.778L210.888 147.853L210.908 147.929L210.928 148.004L210.949 148.08L210.969 148.157L210.99 148.233L211.011 148.31L211.031 148.386L211.052 148.463L211.073 148.541L211.094 148.618L211.115 148.696L211.136 148.774L211.157 148.852L211.178 148.931L211.199 149.01L211.22 149.089L211.242 149.168L211.263 149.247L211.285 149.327L211.306 149.407L211.328 149.487L211.349 149.567L211.371 149.647L211.393 149.728L211.414 149.809L211.436 149.89L211.458 149.972L211.48 150.053L211.502 150.135L211.524 150.217L211.547 150.299L211.569 150.382L211.591 150.464L211.613 150.547L211.636 150.63L211.658 150.714L211.681 150.797L211.703 150.881L211.726 150.965L211.748 151.049L211.771 151.133L211.794 151.218L211.817 151.302L211.84 151.387L211.863 151.472L211.886 151.558L211.909 151.643L211.932 151.729L211.955 151.815L211.978 151.901L212.001 151.987L212.025 152.074L212.048 152.161L212.071 152.248L212.095 152.335L212.118 152.422L212.142 152.51L212.166 152.597L212.189 152.685L212.213 152.773L212.237 152.861L212.261 152.95L212.284 153.038L212.308 153.127L212.332 153.216L212.356 153.305L212.38 153.395L212.405 153.484L212.429 153.574L212.453 153.664L212.477 153.754L212.502 153.844L212.526 153.935L212.55 154.025L212.575 154.116L212.599 154.207L212.624 154.298L212.648 154.389L212.673 154.481L212.698 154.572L212.722 154.664L212.747 154.756L212.772 154.848L212.797 154.941L212.822 155.033L212.847 155.126L212.872 155.219L212.897 155.312L212.922 155.405L212.947 155.498L212.972 155.592L212.998 155.685L213.023 155.779L213.048 155.873L213.073 155.967L213.099 156.061L213.124 156.156L213.15 156.25L213.175 156.345L213.201 156.44L213.226 156.535L213.252 156.63L213.278 156.726L213.304 156.821L213.329 156.917L213.355 157.013L213.381 157.109L213.407 157.205L213.433 157.301L213.459 157.397L213.485 157.494L213.511 157.591L213.537 157.687L213.563 157.784L213.589 157.881L213.615 157.979L213.642 158.076L213.668 158.174L213.694 158.271L213.721 158.369L213.747 158.467L213.773 158.565L213.8 158.663L213.826 158.762L213.853 158.86L213.879 158.959L213.906 159.057L213.933 159.156L213.959 159.255L213.986 159.354L214.013 159.454L214.039 159.553L214.066 159.652L214.093 159.752L214.12 159.852L214.147 159.952L214.174 160.052L214.201 160.152L214.228 160.252L214.255 160.352L214.282 160.453L214.309 160.553L214.336 160.654L214.363 160.755L214.39 160.856L214.418 160.957L214.445 161.058L214.472 161.159L214.5 161.261L214.527 161.362L214.554 161.464L214.582 161.566L214.609 161.667L214.637 161.769L214.664 161.871L214.692 161.974L214.719 162.076L214.747 162.178L214.774 162.281L214.802 162.383L214.83 162.486L214.857 162.589L214.885 162.691L214.913 162.794L214.94 162.897L214.968 163.001L214.996 163.104L215.024 163.207L215.052 163.311L215.08 163.414L215.108 163.518L215.136 163.622L215.163 163.725L215.191 163.829L215.219 163.933L215.248 164.037L215.276 164.142L215.304 164.246L215.332 164.35L215.36 164.455L215.388 164.559L215.416 164.664L215.444 164.768L215.473 164.873L215.501 164.978L215.529 165.083L215.557 165.188L215.586 165.293L215.614 165.398L215.642 165.503L215.671 165.609L215.699 165.714L215.728 165.819L215.756 165.925L215.785 166.031L215.813 166.136L215.841 166.242L215.87 166.348L215.898 166.454L215.927 166.56L215.956 166.666L215.984 166.772L216.013 166.878L216.041 166.984L216.07 167.09L216.099 167.197L216.127 167.303L216.156 167.41L216.185 167.516L216.213 167.623L216.242 167.729L216.271 167.836L216.3 167.943L216.328 168.05L216.357 168.156L216.386 168.263L216.415 168.37L216.444 168.477L216.472 168.584L216.501 168.691L216.53 168.799L216.559 168.906L216.588 169.013L216.617 169.12L216.646 169.228L216.675 169.335L216.704 169.443L216.733 169.55L216.762 169.658L216.791 169.765L216.82 169.873L216.849 169.981L216.878 170.088L216.907 170.196L216.936 170.304L216.965 170.412L216.994 170.519L217.023 170.627L217.052 170.735L217.081 170.843L217.11 170.951L217.139 171.059L217.168 171.167L217.197 171.275L217.227 171.383L217.256 171.492L217.285 171.6L217.314 171.708L217.343 171.816L217.372 171.924L217.401 172.033L217.431 172.141L217.46 172.249L217.489 172.358L217.518 172.466L217.547 172.574L217.577 172.683L217.606 172.791L217.635 172.899L217.664 173.008L217.693 173.116L217.723 173.225L217.752 173.333L217.781 173.442L217.81 173.55L217.84 173.659L217.869 173.767L217.898 173.876L217.927 173.984L217.956 174.093L217.986 174.202L218.015 174.31L218.044 174.419L218.073 174.527L218.103 174.636L218.132 174.744L218.161 174.853L218.19 174.962L218.22 175.07L218.249 175.179L218.278 175.287L218.307 175.396L218.337 175.504L218.366 175.613L218.395 175.722L218.424 175.83L218.454 175.939L218.481 176.039C221.068 186.049 227.388 190.715 233.068 192.814C235.877 193.852 238.514 194.259 240.444 194.409C241.148 194.463 241.762 194.484 242.261 194.488L249.45 221.176C250.681 225.745 253.006 230.251 256.225 233.872C256.226 233.873 256.227 233.874 256.228 233.875L279.664 260.508C282.832 264.247 288.64 262.476 289.703 257.868C289.706 257.854 289.71 257.839 289.713 257.825L296.801 222.945C297.765 218.201 297.568 213.333 296.282 208.559L289.091 181.868C289.515 181.615 290.028 181.292 290.6 180.895C292.179 179.799 294.235 178.128 296.129 175.822C299.959 171.162 303.076 163.958 300.389 153.982L300.359 153.872L300.33 153.763L300.3 153.653L300.271 153.543L300.241 153.434L300.212 153.324L300.182 153.214L300.153 153.105L300.123 152.995L300.094 152.885L300.064 152.776L300.034 152.666L300.005 152.556L299.975 152.447L299.946 152.337L299.916 152.228L299.887 152.118L299.857 152.008L299.828 151.899L299.798 151.789L299.769 151.68L299.739 151.57L299.71 151.461L299.68 151.351L299.651 151.242L299.621 151.133L299.592 151.023L299.562 150.914L299.533 150.804L299.504 150.695L299.474 150.586L299.445 150.477L299.415 150.367L299.386 150.258L299.356 150.149L299.327 150.04L299.298 149.931L299.268 149.822L299.239 149.712L299.209 149.603L299.18 149.494L299.151 149.385L299.121 149.277L299.092 149.168L299.063 149.059L299.033 148.95L299.004 148.841L298.975 148.732L298.945 148.624L298.916 148.515L298.887 148.407L298.858 148.298L298.828 148.189L298.799 148.081L298.77 147.972L298.741 147.864L298.712 147.756L298.682 147.647L298.653 147.539L298.624 147.431L298.595 147.323L298.566 147.215L298.537 147.107L298.508 146.999L298.479 146.891L298.45 146.783L298.42 146.675L298.391 146.567L298.362 146.459L298.333 146.352L298.304 146.244L298.275 146.137L298.247 146.029L298.218 145.922L298.189 145.814L298.16 145.707L298.131 145.6L298.102 145.493L298.073 145.386L298.044 145.279L298.015 145.172L297.987 145.065L297.958 144.958L297.929 144.851L297.9 144.744L297.872 144.638L297.843 144.531L297.814 144.425L297.786 144.318L297.757 144.212L297.728 144.106L297.7 144L297.671 143.893L297.643 143.787L297.614 143.681L297.586 143.576L297.557 143.47L297.529 143.364L297.5 143.258L297.472 143.153L297.443 143.047L297.415 142.942L297.386 142.837L297.358 142.732L297.33 142.626L297.302 142.521L297.273 142.417L297.245 142.312L297.217 142.207L297.189 142.102L297.16 141.998L297.132 141.893L297.104 141.789L297.076 141.685L297.048 141.58L297.02 141.476L296.992 141.372L296.964 141.268L296.936 141.164L296.908 141.061L296.88 140.957L296.852 140.854L296.824 140.75L296.797 140.647L296.769 140.544L296.741 140.441L296.713 140.338L296.686 140.235L296.658 140.132L296.63 140.029L296.603 139.927L296.575 139.824L296.547 139.722L296.52 139.62L296.492 139.518L296.465 139.416L296.437 139.314L296.41 139.212L296.383 139.11L296.355 139.009L296.328 138.907L296.301 138.806L296.273 138.705L296.246 138.604L296.219 138.503L296.192 138.402L296.165 138.301L296.138 138.201L296.11 138.1L296.083 138L296.056 137.9L296.03 137.8L296.003 137.7L295.976 137.6L295.949 137.5L295.922 137.401L295.895 137.301L295.868 137.202L295.842 137.103L295.815 137.004L295.788 136.905L295.762 136.806L295.735 136.707L295.709 136.609L295.682 136.51L295.656 136.412L295.629 136.314L295.603 136.216L295.577 136.118L295.55 136.021L295.524 135.923L295.498 135.826L295.472 135.729L295.445 135.632L295.419 135.535L295.393 135.438L295.367 135.341L295.341 135.245L295.315 135.148L295.289 135.052L295.263 134.956L295.238 134.86L295.212 134.764L295.186 134.669L295.16 134.573L295.135 134.478L295.109 134.383L295.083 134.288L295.058 134.193L295.032 134.098L295.007 134.004L294.982 133.91L294.956 133.815L294.931 133.721L294.906 133.628L294.88 133.534L294.855 133.44L294.83 133.347L294.805 133.254L294.78 133.161L294.755 133.068L294.73 132.975L294.705 132.883L294.68 132.79L294.655 132.698L294.63 132.606L294.606 132.514L294.581 132.423L294.556 132.331L294.532 132.24L294.507 132.149L294.483 132.058L294.458 131.967L294.434 131.876L294.409 131.786L294.385 131.696L294.361 131.606L294.337 131.516L294.312 131.426L294.288 131.336L294.264 131.247L294.24 131.158L294.216 131.069L294.192 130.98L294.168 130.892L294.145 130.803L294.121 130.715L294.097 130.627L294.074 130.539L294.05 130.451L294.026 130.364L294.003 130.277L293.979 130.19L293.956 130.103L293.933 130.016L293.909 129.93L293.886 129.843L293.863 129.757L293.84 129.671L293.817 129.586L293.794 129.5L293.771 129.415L293.748 129.33L293.725 129.245L293.702 129.16L293.679 129.076L293.657 128.992L293.634 128.907L293.611 128.824L293.589 128.74L293.566 128.657L293.544 128.573L293.522 128.49L293.499 128.408L293.477 128.325L293.455 128.243L293.433 128.16L293.411 128.079L293.389 127.997L293.367 127.915L293.345 127.834L293.323 127.753L293.301 127.672L293.279 127.591L293.258 127.511L293.236 127.431L293.215 127.351L293.193 127.271L293.172 127.192L293.15 127.112L293.129 127.033L293.108 126.954L293.087 126.876L293.066 126.797L293.044 126.719L293.023 126.641L293.003 126.564L292.982 126.486L292.961 126.409L292.94 126.332L292.919 126.255L292.899 126.179L292.878 126.102L292.858 126.026L292.837 125.95L292.817 125.875L292.797 125.8L292.776 125.724L292.756 125.65L292.736 125.575L292.716 125.501L292.696 125.426L292.676 125.353L292.656 125.279L292.637 125.206L292.617 125.132L292.597 125.059L292.578 124.987L292.558 124.914L292.539 124.842L292.519 124.77L292.5 124.699L292.481 124.627L292.462 124.556L292.443 124.485L292.424 124.415L292.405 124.344L292.386 124.274L292.367 124.204L292.348 124.135L292.33 124.065L292.311 123.996L292.292 123.927L292.274 123.859L292.255 123.791L292.237 123.723L292.219 123.655L292.201 123.587L292.183 123.52L292.165 123.453L292.147 123.386L292.129 123.32L292.111 123.254L292.093 123.188L292.075 123.122L292.058 123.057L292.04 122.992L292.023 122.927L292.005 122.862L291.988 122.798L291.971 122.734L291.954 122.67L291.937 122.607L291.92 122.544L291.903 122.481L291.886 122.418L291.869 122.356L291.852 122.294L291.836 122.232L291.819 122.171L291.803 122.11L291.786 122.049L291.77 121.988L291.754 121.928L291.738 121.868L291.721 121.808L291.705 121.749L291.689 121.69L291.674 121.631L291.658 121.572L291.642 121.514L291.627 121.456L291.611 121.398L291.596 121.341L291.58 121.284L291.565 121.227L291.55 121.17L291.534 121.114L291.519 121.058L291.504 121.003L291.49 120.947L291.475 120.892L291.46 120.838L291.445 120.783L291.431 120.729L291.416 120.675L291.402 120.622L291.388 120.569L291.373 120.516L291.359 120.463L291.345 120.411L291.331 120.359L291.317 120.307L291.303 120.256L291.29 120.205L291.276 120.154L291.262 120.104L291.249 120.054L291.235 120.004L291.222 119.955L291.209 119.906L291.196 119.857L291.183 119.808L291.17 119.76L291.157 119.713L291.144 119.665L291.131 119.618L291.119 119.571L291.106 119.524L291.094 119.478L291.081 119.432L291.069 119.387L291.057 119.342L291.045 119.297L291.033 119.252L291.021 119.208L291.009 119.164L290.997 119.12L290.986 119.077L290.974 119.034L290.963 118.992L290.951 118.949L290.94 118.908L290.929 118.866L290.918 118.825L290.907 118.784L290.896 118.743L290.885 118.703L290.874 118.663L290.864 118.624L290.853 118.585L290.843 118.546L290.832 118.507L290.822 118.469L290.812 118.431L290.802 118.394L290.792 118.357L290.782 118.32L290.772 118.284L290.762 118.248L290.753 118.212L290.743 118.176L290.734 118.141L290.724 118.107L290.715 118.073L290.706 118.039L290.697 118.005L290.688 117.972L290.679 117.939L290.67 117.906L290.662 117.874L290.653 117.843L290.645 117.811L290.636 117.78L290.628 117.749L290.62 117.719L290.612 117.689L290.604 117.66L290.596 117.63L290.588 117.601L290.58 117.573L290.573 117.545L290.565 117.517L290.558 117.49L290.551 117.463L290.544 117.436L290.537 117.41L290.53 117.384L290.523 117.358L290.516 117.333L290.509 117.308L290.503 117.284L290.496 117.26L290.49 117.236L290.484 117.213L290.477 117.19L290.471 117.168L290.465 117.146L290.46 117.124L290.454 117.103L290.448 117.082L290.443 117.061L290.437 117.041L290.432 117.021L290.427 117.002L290.421 116.983L290.416 116.964L290.412 116.946L290.407 116.928L290.402 116.91L290.397 116.893L290.393 116.877L290.389 116.86L290.384 116.845L290.38 116.829L290.376 116.814L290.372 116.799L290.368 116.785L290.365 116.771L290.361 116.758L290.357 116.745L290.354 116.732L290.351 116.72L290.347 116.708L290.344 116.696L290.341 116.685L290.338 116.675L290.336 116.664L290.333 116.655L290.331 116.645L290.328 116.636L290.326 116.627L290.324 116.619L290.321 116.612L290.32 116.604L290.318 116.597L290.316 116.591L290.314 116.585L290.313 116.579L290.311 116.574L290.31 116.569L290.309 116.564L290.308 116.56L290.307 116.557L290.306 116.553L290.305 116.551L290.304 116.548L290.304 116.546L290.304 116.545L290.303 116.544L290.303 116.543C290.303 116.543 290.303 116.543 288.661 116.985ZM282.75 118.578L279.692 146.454L282.75 118.578Z" fill="#FF85A2" stroke="#252F3C" stroke-width="3.40121" stroke-miterlimit="10" stroke-linejoin="round"/>
<path opacity="0.1" d="M252.035 136.363L256.281 152.127L244.458 155.312L240.212 139.548L252.035 136.363Z" fill="black" stroke="#252F3C" stroke-width="1.7006" stroke-linecap="round" stroke-linejoin="round"/>
<path opacity="0.2" d="M218.882 178.053C222.704 192.24 236.67 194.396 243.175 193.7L233.355 157.246L217.852 135.004L208 137.658L218.882 178.053Z" fill="black" stroke="#252F3C" stroke-width="1.7006" stroke-linecap="round" stroke-linejoin="round"/>
<path d="M278.74 146.711L278.519 145.889L277.698 146.111L234.15 157.842L233.953 157.895L233.132 158.116L233.354 158.938L250.075 221.007C251.328 225.66 253.542 229.849 256.667 233.363L280.317 259.962L280.325 259.97L280.333 259.978C283.135 262.968 288.159 261.719 288.882 257.644L295.969 222.775C296.905 218.165 296.661 213.233 295.462 208.78L278.74 146.711Z" fill="white" stroke="#252F3C" stroke-width="1.7006" stroke-miterlimit="10"/>
<path opacity="0.1" d="M265.197 220.526C267.321 228.408 283.961 258.797 286.008 262.473L280.551 261.83L251.48 228.448L232.636 158.496L247.414 154.515L265.197 220.526Z" fill="black" stroke="#252F3C" stroke-width="1.7006" stroke-linecap="round" stroke-linejoin="round"/>
<path opacity="0.1" d="M267.891 194.439C262.885 195.787 259.921 200.939 261.269 205.945C262.618 210.951 267.769 213.916 272.775 212.567C277.781 211.219 280.746 206.067 279.397 201.061C278.049 196.055 272.897 193.09 267.891 194.439Z" fill="black" stroke="#252F3C" stroke-width="1.7006" stroke-miterlimit="10"/>
<path d="M263.152 209.664C261.926 205.112 264.622 200.427 269.175 199.2C273.727 197.974 278.412 200.67 279.638 205.223C280.865 209.775 278.169 214.46 273.616 215.687C269.063 216.913 264.379 214.217 263.152 209.664Z" fill="#E4E4E4" stroke="#252F3C" stroke-width="1.7006" stroke-miterlimit="10"/>
<path opacity="0.1" d="M260.247 166.064C255.241 167.413 252.276 172.564 253.625 177.57C254.974 182.576 260.125 185.541 265.131 184.192C270.137 182.844 273.102 177.692 271.753 172.686C270.405 167.68 265.253 164.715 260.247 166.064Z" fill="black" stroke="#252F3C" stroke-width="1.7006" stroke-miterlimit="10"/>
<path d="M255.508 181.29C254.282 176.737 256.978 172.052 261.531 170.826C266.083 169.599 270.768 172.296 271.994 176.848C273.221 181.401 270.525 186.086 265.972 187.312C261.419 188.539 256.735 185.842 255.508 181.29Z" fill="#E4E4E4" stroke="#252F3C" stroke-width="1.7006" stroke-miterlimit="10"/>
<path d="M295.779 228.138L260.311 237.694" stroke="#252F3C" stroke-width="1.7006" stroke-miterlimit="10"/>
<path d="M63 334C63 112 136.299 -156.225 245 120.162" stroke="white" stroke-width="3.4" stroke-dasharray="16 16"/>
</svg>
