<svg width="485" height="447" viewBox="0 0 485 447" fill="none" xmlns="http://www.w3.org/2000/svg">
<path d="M0 434.013H465.964" stroke="white" stroke-width="2" stroke-miterlimit="10"/>
<g opacity="0.4">
<path d="M8.25684 446L19.816 434.041" stroke="white" stroke-miterlimit="10"/>
<path d="M21.1006 446L32.4029 434.041" stroke="white" stroke-miterlimit="10"/>
<path d="M33.9443 446L45.2467 434.041" stroke="white" stroke-miterlimit="10"/>
<path d="M46.5308 446L58.09 434.041" stroke="white" stroke-miterlimit="10"/>
<path d="M59.374 446L70.9332 434.041" stroke="white" stroke-miterlimit="10"/>
<path d="M72.2178 446L83.5201 434.041" stroke="white" stroke-miterlimit="10"/>
<path d="M85.0615 446L96.3639 434.041" stroke="white" stroke-miterlimit="10"/>
<path d="M97.6479 446L109.207 434.041" stroke="white" stroke-miterlimit="10"/>
<path d="M110.491 446L121.794 434.041" stroke="white" stroke-miterlimit="10"/>
<path d="M123.335 446L134.637 434.041" stroke="white" stroke-miterlimit="10"/>
<path d="M135.921 446L147.481 434.041" stroke="white" stroke-miterlimit="10"/>
<path d="M148.765 446L160.324 434.041" stroke="white" stroke-miterlimit="10"/>
<path d="M160.324 446L171.627 434.041" stroke="white" stroke-miterlimit="10"/>
<path d="M172.912 446L184.471 434.041" stroke="white" stroke-miterlimit="10"/>
<path d="M185.755 446L197.314 434.041" stroke="white" stroke-miterlimit="10"/>
<path d="M198.599 446L209.901 434.041" stroke="white" stroke-miterlimit="10"/>
<path d="M211.442 446L222.745 434.041" stroke="white" stroke-miterlimit="10"/>
<path d="M224.029 446L235.588 434.041" stroke="white" stroke-miterlimit="10"/>
<path d="M236.872 446L248.431 434.041" stroke="white" stroke-miterlimit="10"/>
<path d="M249.716 446L261.018 434.041" stroke="white" stroke-miterlimit="10"/>
<path d="M262.56 446L273.862 434.041" stroke="white" stroke-miterlimit="10"/>
<path d="M275.146 446L286.705 434.041" stroke="white" stroke-miterlimit="10"/>
<path d="M287.989 446L299.548 434.041" stroke="white" stroke-miterlimit="10"/>
<path d="M300.833 446L312.135 434.041" stroke="white" stroke-miterlimit="10"/>
<path d="M312.135 446L323.694 434.041" stroke="white" stroke-miterlimit="10"/>
<path d="M324.979 446L336.538 434.041" stroke="white" stroke-miterlimit="10"/>
<path d="M337.822 446L349.125 434.041" stroke="white" stroke-miterlimit="10"/>
<path d="M350.666 446L361.968 434.041" stroke="white" stroke-miterlimit="10"/>
<path d="M363.252 446L374.812 434.041" stroke="white" stroke-miterlimit="10"/>
<path d="M376.096 446L387.655 434.041" stroke="white" stroke-miterlimit="10"/>
<path d="M388.939 446L400.242 434.041" stroke="white" stroke-miterlimit="10"/>
<path d="M401.527 446L413.086 434.041" stroke="white" stroke-miterlimit="10"/>
<path d="M414.37 446L425.929 434.041" stroke="white" stroke-miterlimit="10"/>
<path d="M427.214 446L438.516 434.041" stroke="white" stroke-miterlimit="10"/>
<path d="M440.058 446L451.36 434.041" stroke="white" stroke-miterlimit="10"/>
<path d="M452.644 446L464.203 434.041" stroke="white" stroke-miterlimit="10"/>
</g>
<path d="M357.166 211.478L362.07 226.844C362.845 229.27 364.486 231.187 366.261 233.136L380.164 247.306C381.489 248.665 383.709 247.904 384.001 246.028L386.87 226.449C387.328 223.944 387.504 220.886 386.729 218.46L381.825 203.094C381.825 203.094 390.239 198.586 386.91 188.483C383.567 178.175 380.225 167.867 380.225 167.867L376.991 168.9L375.13 184.906L368.265 187.203L366.876 178.421L354.749 182.293L359.311 190.085L351.842 192.572L340.431 180.942L337.197 181.975C337.197 181.975 340.54 192.283 343.882 202.591C347.199 212.488 357.166 211.478 357.166 211.478Z" fill="white" fill-opacity="0.1" stroke="white" stroke-width="1.60261" stroke-miterlimit="10"/>
<path d="M351.71 193.096L375.553 185.376L386.601 219.33C387.375 221.756 387.546 224.427 387.294 226.919L384.425 246.498C384.132 248.374 381.912 249.135 380.588 247.776L366.685 233.606C364.923 231.862 363.532 229.475 362.758 227.049L351.71 193.096Z" stroke="white" stroke-width="0.801306" stroke-miterlimit="10"/>
<path d="M228.413 39.6289L244.542 39.7567C247.089 39.7769 249.421 38.8142 251.827 37.735L269.623 28.9395C271.328 28.1043 271.296 25.7576 269.605 24.8955L251.895 16.0684C249.657 14.8525 246.806 13.7329 244.26 13.7127L228.131 13.5849C228.131 13.5849 226.469 4.18466 215.831 4.20023C204.995 4.16429 194.159 4.12836 194.159 4.12836L194.132 7.52298L208.762 14.2788L208.805 21.5182L200.027 20.1007L199.928 32.8306L208.754 30.9245L208.789 38.796L194.183 46.015L194.156 49.4096C194.156 49.4096 204.993 49.4455 215.829 49.4815C226.267 49.4144 228.413 39.6289 228.413 39.6289Z" fill="white" fill-opacity="0.1"/>
<path d="M62.9363 399.579L62.9458 383.449C62.9473 380.902 61.9675 378.577 60.8706 376.18L51.9449 358.448C51.0972 356.75 48.7508 356.799 47.9011 358.496L39.2041 376.27C38.0046 378.517 36.906 381.376 36.9045 383.922L36.8951 400.052C36.8951 400.052 27.5072 401.783 27.6008 412.42C27.6444 423.256 27.688 434.093 27.688 434.093L31.0827 434.094L37.731 419.415L44.9699 419.319L43.6168 428.107L56.3471 428.112L54.3763 419.301L62.2474 419.208L69.5733 433.761L72.968 433.763C72.968 433.763 72.9244 422.926 72.8809 412.09C72.7372 401.653 62.9363 399.579 62.9363 399.579Z" fill="white" fill-opacity="0.1"/>
<path d="M102.646 199.905L107.903 184.656C108.734 182.248 108.564 179.731 108.307 177.107L105.637 157.436C105.388 155.554 103.153 154.837 101.798 156.166L87.7901 170.142C85.9248 171.876 83.9557 174.222 83.1255 176.63L77.8677 191.878C77.8677 191.878 68.4276 190.46 65.0548 200.548C61.5697 210.809 58.0846 221.07 58.0846 221.07L61.2941 222.176L72.3572 210.46L79.2336 212.724L75.0943 220.594L87.1299 224.741L88.1337 215.768L95.6067 218.242L97.7981 234.387L101.008 235.493C101.008 235.493 104.493 225.232 107.978 214.971C111.238 205.055 102.646 199.905 102.646 199.905Z" fill="white" fill-opacity="0.1"/>
<path opacity="0.5" d="M50.2295 432C53.0698 205.683 149.123 24 227.875 24C275.127 24 333.109 103.419 369 204.5" stroke="white" stroke-miterlimit="10" stroke-dasharray="2 3"/>
<path d="M50.0898 23.9102V433.499" stroke="white" stroke-miterlimit="10"/>
<path d="M55 37H45L50.0909 18L55 37Z" fill="white"/>
<path d="M466 439V429L485 434L466 439Z" fill="white"/>
<path d="M228 25L228 432" stroke="white" stroke-miterlimit="10"/>
<path d="M205.83 240H207.59V245.3C207.723 245.02 207.896 244.753 208.11 244.5C208.323 244.247 208.576 244.027 208.87 243.84C209.163 243.64 209.496 243.487 209.87 243.38C210.243 243.26 210.65 243.2 211.09 243.2C212.423 243.2 213.41 243.56 214.05 244.28C214.703 244.987 215.03 246.027 215.03 247.4V254H213.27V247.8C213.27 246.813 213.063 246.067 212.65 245.56C212.236 245.053 211.543 244.8 210.57 244.8C210.05 244.8 209.596 244.887 209.21 245.06C208.836 245.233 208.53 245.46 208.29 245.74C208.05 246.02 207.87 246.34 207.75 246.7C207.643 247.06 207.59 247.427 207.59 247.8V254H205.83V240Z" fill="white"/>
<path d="M470.709 411.62L466.929 406.4H468.969L471.769 410.26L474.569 406.4H476.529L472.749 411.52L476.729 417H474.649L471.689 412.86L468.729 417H466.729L470.709 411.62Z" fill="white"/>
<path d="M27.2294 44.2001C27.0294 44.2001 26.8294 44.1801 26.6294 44.1401V42.5401C26.8294 42.5801 27.0294 42.6001 27.2294 42.6001C27.4294 42.6001 27.6027 42.5668 27.7494 42.5001C27.8961 42.4335 28.0361 42.3068 28.1694 42.1201C28.3027 41.9335 28.4427 41.6668 28.5894 41.3201C28.7494 40.9868 28.9294 40.5468 29.1294 40.0001L24.6294 29.4001H26.5894L30.0294 38.0001L33.1494 29.4001H35.0294L31.0294 40.0001C30.7494 40.7468 30.4827 41.3868 30.2294 41.9201C29.9761 42.4535 29.7027 42.8868 29.4094 43.2201C29.1294 43.5668 28.8161 43.8135 28.4694 43.9601C28.1227 44.1201 27.7094 44.2001 27.2294 44.2001Z" fill="white"/>
<path d="M343.229 309H345.541L348.881 318.25L351.963 309H354.275L350.165 320.563H347.596L343.229 309Z" fill="white"/>
<path d="M357.871 323.647L354.789 316.195H356.587L358.642 321.591L360.697 316.195H362.495L358.385 326.473H356.587L357.871 323.647Z" fill="white"/>
<path d="M410.229 193H412.541L415.881 202.25L418.963 193H421.275L417.165 204.563H414.596L410.229 193Z" fill="white"/>
<path d="M424.615 203.792L422.303 200.195H424.358L425.642 202.25L427.183 199.938H429.238L426.926 203.535L429.495 207.389H427.44L425.899 205.077L424.358 207.389H422.303L424.615 203.792Z" fill="white"/>
<path d="M397.229 214V206L412.229 210L397.229 214Z" fill="white"/>
<path d="M366.229 313H374.229L370.229 328L366.229 313Z" fill="white"/>
<path d="M400.027 313.529L407.441 311.647L408.234 327.127L400.027 313.529Z" fill="white"/>
<path d="M402.229 210H370.229V321" stroke="white" stroke-miterlimit="10"/>
<path d="M371.137 210.683L406.038 319.53" stroke="white" stroke-miterlimit="10"/>
<path d="M413.47 309.508H415.782L419.121 318.759L422.204 309.508H424.516L420.406 321.071H417.837L413.47 309.508Z" fill="white"/>
<circle cx="370.229" cy="210" r="2" fill="white"/>
</svg>
