<svg width="28" height="28" viewBox="0 0 28 28" fill="none" xmlns="http://www.w3.org/2000/svg">
<path d="M19.0327 16.8076V27.2857H25.8755C26.7309 27.2857 27.3724 26.6442 27.3724 25.7888V1.83891C27.3724 0.983557 26.7309 0.342041 25.8755 0.342041H1.92558C1.07023 0.342041 0.428711 0.983557 0.428711 1.83891V25.7888C0.428711 26.6442 1.07023 27.2857 1.92558 27.2857H14.7559V16.8076H11.3345V12.7447H14.7559V9.75094C14.7559 6.32952 16.8943 4.40498 20.1019 4.40498C21.1711 4.40498 22.2403 4.40498 23.3094 4.61881V8.25407H21.1711C19.4604 8.25407 19.2465 9.10943 19.2465 10.1786V12.7447H23.3094L22.6679 16.8076H19.0327Z" fill="#252F3C"/>
</svg>
