<svg width="30" height="30" viewBox="0 0 30 30" fill="none" xmlns="http://www.w3.org/2000/svg">
<path fill-rule="evenodd" clip-rule="evenodd" d="M0.171143 14.3696C0.171143 6.11284 6.63997 0 14.9851 0C23.3303 0 29.7991 6.11284 29.7991 14.3696C29.7991 22.6263 23.3303 28.7391 14.9851 28.7391C13.4862 28.7391 12.0481 28.5412 10.6969 28.1697C10.4343 28.0974 10.155 28.1178 9.90571 28.2278L6.96534 29.5258C6.1962 29.8653 5.32798 29.3184 5.3022 28.4778L5.22153 25.8427C5.2116 25.518 5.06554 25.2146 4.82356 24.998C1.94112 22.4203 0.171143 18.6884 0.171143 14.3696ZM10.4415 11.6661L6.08986 18.57C5.67226 19.2326 6.48667 19.9792 7.11054 19.5058L11.7849 15.9583C12.1011 15.7183 12.538 15.717 12.8556 15.9552L16.3167 18.551C17.3552 19.33 18.8375 19.0565 19.5298 17.9582L23.8814 11.0542C24.2989 10.3917 23.4845 9.64505 22.8606 10.1185L18.1863 13.666C17.8701 13.906 17.4332 13.9073 17.1156 13.6691L13.6546 11.0733C12.616 10.2943 11.1337 10.5678 10.4415 11.6661Z" fill="#252F3C"/>
</svg>
