<svg width="16" height="17" viewBox="0 0 16 17" fill="none" xmlns="http://www.w3.org/2000/svg">
<path d="M10.7633 10.157V16.2191H14.7222C15.2171 16.2191 15.5883 15.848 15.5883 15.3531V1.49687C15.5883 1.00201 15.2171 0.630859 14.7222 0.630859H0.866014C0.371149 0.630859 0 1.00201 0 1.49687V15.3531C0 15.848 0.371149 16.2191 0.866014 16.2191H8.289V10.157H6.30953V7.80641H8.289V6.07438C8.289 4.09492 9.52616 2.98147 11.3819 2.98147C12.0005 2.98147 12.6191 2.98147 13.2376 3.10519V5.20836H12.0005C11.0108 5.20836 10.887 5.70323 10.887 6.32181V7.80641H13.2376L12.8665 10.157H10.7633Z" fill="white"/>
</svg>
