<svg width="81" height="80" viewBox="0 0 81 80" fill="none" xmlns="http://www.w3.org/2000/svg">
<path d="M12.1509 72.5001H11.0291C9.44315 72.5001 8.16666 71.2236 8.16666 69.6376V62.6749H16.7153L14.936 70.2952C14.6265 71.5717 13.4661 72.5001 12.1509 72.5001Z" fill="#FF945E" stroke="black" stroke-width="1.85937" stroke-miterlimit="10"/>
<path d="M67.7311 72.5001H68.8529C70.4388 72.5001 71.7153 71.2236 71.7153 69.6376V62.6749H63.1667L64.946 70.2952C65.2555 71.5717 66.4159 72.5001 67.7311 72.5001Z" fill="#FF945E" stroke="black" stroke-width="1.85937" stroke-miterlimit="10"/>
<path d="M75.0477 55.5961H5.18853C4.8404 55.5961 4.53094 55.8668 4.53094 56.2537V62.0559C4.53094 62.4041 4.80172 62.7135 5.18853 62.7135H75.0091C75.3572 62.7135 75.6667 62.4427 75.6667 62.0559V56.2537C75.6667 55.8668 75.3959 55.5961 75.0477 55.5961Z" fill="#FF945E" stroke="black" stroke-width="1.85937" stroke-miterlimit="10"/>
<path d="M71.8758 55.596H8.36044V7.97875C8.36044 7.39852 8.82462 6.97302 9.36617 6.97302H70.8701C71.4504 6.97302 71.8758 7.4372 71.8758 7.97875V55.596Z" fill="white" stroke="black" stroke-width="1.75821" stroke-miterlimit="10"/>
<path d="M19.2686 33.8183C18.6884 33.8183 18.2242 33.6635 17.9147 33.3541C17.6053 33.0446 17.4505 32.5804 17.4505 32.0002V24.7667H18.495V31.8842C18.495 32.2323 18.5723 32.4644 18.727 32.6191C18.8818 32.7738 19.1139 32.8512 19.4233 32.8512H19.8488V33.7796H19.2686V33.8183Z" fill="black"/>
<path d="M21.7831 26.3137C21.5897 26.3137 21.435 26.2363 21.2802 26.1203C21.1255 25.9655 21.0868 25.8108 21.0868 25.6174C21.0868 25.424 21.1642 25.2693 21.2802 25.1146C21.435 24.9985 21.5897 24.9211 21.7831 24.9211C21.9765 24.9211 22.1312 24.9985 22.286 25.1146C22.4407 25.2306 22.4794 25.424 22.4794 25.6174C22.4794 25.8108 22.402 25.9655 22.286 26.1203C22.1312 26.2363 21.9765 26.3137 21.7831 26.3137ZM21.2415 27.3581H22.286V33.8179H21.2415V27.3581Z" fill="black"/>
<path d="M24.4522 27.3585H25.2645L25.3806 28.2868C25.6126 27.9387 25.8834 27.7066 26.2316 27.5132C26.5797 27.3198 26.9665 27.2424 27.392 27.2424C27.8562 27.2424 28.243 27.3585 28.5911 27.5519C28.9393 27.7453 29.21 28.0547 29.4035 28.4802C29.6355 28.0934 29.9063 27.784 30.2931 27.5906C30.68 27.3585 31.1055 27.2811 31.5696 27.2811C31.9178 27.2811 32.2272 27.3585 32.498 27.4745C32.7688 27.5906 33.0395 27.784 33.233 28.0161C33.4264 28.2482 33.5811 28.5189 33.6971 28.8671C33.8132 29.2152 33.8519 29.602 33.8519 30.0275V33.857H32.8074V30.0275C32.8074 29.4473 32.6914 29.0218 32.4206 28.7123C32.1499 28.4416 31.8017 28.2868 31.3375 28.2868C31.1055 28.2868 30.912 28.3255 30.7186 28.4029C30.5252 28.4802 30.3705 28.5963 30.2158 28.751C30.061 28.9057 29.945 29.0992 29.8676 29.2926C29.7903 29.486 29.7516 29.7567 29.7516 29.9888V33.8183H28.7072V29.9888C28.7072 29.4086 28.5911 28.9831 28.3204 28.6737C28.0496 28.4029 27.7015 28.2482 27.2373 28.2482C27.0052 28.2482 26.7731 28.2868 26.5797 28.3642C26.3863 28.4416 26.2316 28.5576 26.0768 28.7123C25.9221 28.8671 25.8061 29.0605 25.7287 29.2539C25.6513 29.486 25.6126 29.7181 25.6126 29.9502V33.7796H24.5682V27.3585H24.4522Z" fill="black"/>
<path d="M39.3057 30.5302L37.1009 27.3583H38.3L39.9633 29.7565L41.6653 27.3583H42.8258L40.6209 30.4915L42.9805 33.8181H41.7814L40.002 31.2264L38.1453 33.8181H36.9462L39.3057 30.5302Z" fill="black"/>
<path d="M46.0752 28.9829H51.8388V29.9886H46.0752V28.9829ZM46.0752 31.5746H51.8388V32.5803H46.0752V31.5746Z" fill="black"/>
<path d="M59.2657 33.9341C58.7242 33.9341 58.2213 33.8567 57.7571 33.6247C57.293 33.3926 56.9062 33.1605 56.558 32.7737C56.2099 32.4255 55.9778 31.9613 55.7844 31.4585C55.591 30.9169 55.5136 30.3367 55.5136 29.6791V28.9055C55.5136 28.2479 55.591 27.629 55.7844 27.1261C55.9778 26.5846 56.2486 26.1591 56.558 25.7723C56.9062 25.4241 57.293 25.1147 57.7571 24.9213C58.2213 24.7279 58.7242 24.6118 59.2657 24.6118C59.7686 24.6118 60.1941 24.6892 60.6196 24.8439C61.0064 24.9986 61.3932 25.192 61.664 25.4628C61.9735 25.6949 62.2055 26.0044 62.399 26.3138C62.5924 26.6233 62.7084 26.9714 62.7858 27.3195H61.5866C61.5093 27.0874 61.4319 26.894 61.3159 26.7006C61.1998 26.5072 61.0064 26.3138 60.813 26.1591C60.6196 26.0044 60.3875 25.8883 60.1167 25.7723C59.846 25.6949 59.5752 25.6175 59.2657 25.6175C58.8789 25.6175 58.5308 25.6949 58.2213 25.811C57.9119 25.9657 57.6024 26.1591 57.3703 26.4299C57.1382 26.7006 56.9448 27.0488 56.8288 27.4356C56.7127 27.8224 56.6354 28.2866 56.6354 28.7894V29.5631C56.6354 30.0659 56.7127 30.5301 56.8288 30.9169C56.9448 31.3038 57.1382 31.6519 57.3703 31.9227C57.6024 32.1934 57.8732 32.3868 58.2213 32.5416C58.5308 32.6963 58.8789 32.735 59.2657 32.735C59.5752 32.735 59.846 32.6963 60.1167 32.5803C60.3875 32.4642 60.6196 32.3482 60.813 32.1934C61.0064 32.0387 61.1611 31.8066 61.3159 31.5745C61.4319 31.3424 61.548 31.0717 61.6253 30.8009H62.8245C62.7471 31.1877 62.631 31.5745 62.4376 31.9613C62.2442 32.3095 62.0121 32.6576 61.7027 32.8897C61.3932 33.1605 61.0451 33.3539 60.6583 33.5086C60.1554 33.8567 59.7299 33.9341 59.2657 33.9341Z" fill="black"/>
<path d="M17.9214 42.3669C17.4793 42.3669 17.1256 42.2343 16.9046 42.0132C16.6835 41.7922 16.5509 41.4385 16.5509 40.9964V38.2553H15.6667V37.5479H16.5509V36.1774H17.3025V37.5479H18.5846V38.2553H17.3025V40.908C17.3025 41.1732 17.3467 41.3501 17.4793 41.4827C17.612 41.6153 17.7888 41.6596 18.0099 41.6596H18.673V42.3669H17.9214Z" fill="black"/>
<path d="M19.6456 39.8471H24.9951L23.8014 38.6534L24.1551 38.2997L26.012 40.1565L24.1551 42.0134L23.8014 41.6597L24.9951 40.466H19.6456V39.8471Z" fill="black"/>
<path d="M35.5172 39.3162C35.4288 39.0951 35.2961 38.8741 35.1193 38.6972C34.9424 38.5204 34.7214 38.3878 34.5003 38.2993C34.2793 38.2109 34.014 38.1667 33.7487 38.1667C33.3508 38.1667 32.9529 38.2551 32.6435 38.432C32.334 38.6088 32.0245 38.9183 31.6708 39.3604L31.5824 39.493L31.494 39.3604C31.3171 39.1393 31.1403 38.9625 31.0076 38.7857C30.8308 38.653 30.6982 38.5204 30.5213 38.432C30.3445 38.3435 30.1676 38.2551 29.9908 38.2109C29.5929 38.1225 29.0624 38.1225 28.6645 38.2993C28.4434 38.3878 28.2223 38.5646 28.0455 38.6972C27.8687 38.8741 27.736 39.0951 27.6476 39.3162C27.5592 39.5372 27.515 39.8025 27.515 40.112C27.515 40.3773 27.5592 40.6425 27.6476 40.9078C27.736 41.1288 27.8687 41.3499 28.0455 41.5267C28.2223 41.7036 28.4434 41.8362 28.6645 41.9689C28.8855 42.0573 29.1508 42.1015 29.416 42.1015C29.8139 42.1015 30.2118 42.0131 30.5213 41.8362C30.8308 41.6594 31.1403 41.3499 31.494 40.9078L31.5824 40.7752L31.6708 40.9078C31.8477 41.1288 32.0245 41.3499 32.1571 41.4825C32.334 41.6152 32.4666 41.7478 32.6435 41.8362C32.8203 41.9247 32.9971 42.0131 33.174 42.0573C33.5719 42.1457 34.1024 42.1457 34.5003 41.9689C34.7214 41.8804 34.9424 41.7036 35.1193 41.5267C35.2961 41.3499 35.4288 41.1288 35.5172 40.9078C35.6056 40.6867 35.6498 40.4215 35.6498 40.112C35.694 39.8025 35.6498 39.5372 35.5172 39.3162ZM31.1403 40.2004C30.9634 40.4215 30.7866 40.6425 30.654 40.8194C30.5213 40.9962 30.3887 41.0846 30.2561 41.1731C30.1234 41.2615 29.9908 41.3499 29.8582 41.3499C29.7255 41.3941 29.5929 41.3941 29.4603 41.3941C29.2834 41.3941 29.1508 41.3499 29.0181 41.3057C28.8855 41.2173 28.7529 41.1288 28.6645 41.0404C28.576 40.9078 28.4876 40.7752 28.3992 40.6425C28.355 40.4657 28.3108 40.2888 28.3108 40.112C28.3108 39.9351 28.355 39.7583 28.3992 39.5815C28.4434 39.4046 28.5318 39.272 28.6645 39.1836C28.7529 39.0509 28.8855 38.9625 29.0624 38.9183C29.3276 38.7857 29.6813 38.7857 29.9024 38.8741C30.035 38.9183 30.1676 38.9625 30.3003 39.0509C30.4329 39.1393 30.5655 39.272 30.6982 39.4488C30.8308 39.6257 31.0076 39.8025 31.1845 40.0678L31.2287 40.1562L31.1403 40.2004ZM34.854 40.6425C34.8098 40.8194 34.7214 40.952 34.5888 41.0404C34.5003 41.1731 34.3677 41.2615 34.1909 41.3057C34.0582 41.3499 33.8814 41.3941 33.7045 41.3941C33.5719 41.3941 33.4393 41.3941 33.3066 41.3499C33.174 41.3057 33.0414 41.2615 32.9087 41.1731C32.7761 41.0846 32.6435 40.952 32.5108 40.7752C32.3782 40.5983 32.2014 40.4215 32.0245 40.1562L31.9803 40.112L32.0245 40.0678C32.2014 39.8025 32.3782 39.6257 32.5108 39.4488C32.6435 39.272 32.7761 39.1836 32.9087 39.0951C33.0414 39.0067 33.174 38.9625 33.3066 38.9183C33.5719 38.8741 33.8814 38.8741 34.1466 38.9625C34.2793 39.0067 34.4119 39.1393 34.5445 39.2278C34.633 39.3604 34.7214 39.493 34.8098 39.6257C34.854 39.8025 34.8982 39.9351 34.8982 40.1562C34.9424 40.2888 34.8982 40.4657 34.854 40.6425Z" fill="black"/>
</svg>
