<svg width="81" height="80" viewBox="0 0 81 80" fill="none" xmlns="http://www.w3.org/2000/svg">
<path d="M1.58331 70L79.0833 70" stroke="black" stroke-width="2" stroke-miterlimit="10"/>
<path d="M2.83331 77.5L9.08331 70" stroke="black" stroke-miterlimit="10"/>
<path d="M9.08331 77.5L15.3333 70" stroke="black" stroke-miterlimit="10"/>
<path d="M15.3333 77.5L21.5833 70" stroke="black" stroke-miterlimit="10"/>
<path d="M21.5833 77.5L27.8333 70" stroke="black" stroke-miterlimit="10"/>
<path d="M27.8333 77.5L34.0833 70" stroke="black" stroke-miterlimit="10"/>
<path d="M34.0833 77.5L40.3333 70" stroke="black" stroke-miterlimit="10"/>
<path d="M40.3333 77.5L46.5833 70" stroke="black" stroke-miterlimit="10"/>
<path d="M46.5833 77.5L52.8333 70" stroke="black" stroke-miterlimit="10"/>
<path d="M52.8333 77.5L59.0833 70" stroke="black" stroke-miterlimit="10"/>
<path d="M59.0833 77.5L65.3333 70" stroke="black" stroke-miterlimit="10"/>
<path d="M65.3333 77.5L71.5833 70" stroke="black" stroke-miterlimit="10"/>
<path d="M71.5833 77.5L77.8333 70" stroke="black" stroke-miterlimit="10"/>
<path d="M26.2083 9.25C15.2083 9.25 10.3333 19.25 10.3333 32.75C10.3333 46.875 18.8333 68.5 31.0833 68.5C34.9583 68.5 36.3333 66.625 39.7083 66.625C43.5833 66.625 44.4583 68.5 50.9583 68.5C57.3333 68.5 70.9583 52.5 70.9583 33.625C70.9583 16.375 63.4583 9.25 56.5833 9.25C47.7083 9.25 46.0833 12.125 40.5833 12.125C35.0833 12.125 32.4583 9.25 26.2083 9.25Z" fill="#B4F48D" stroke="black" stroke-width="2" stroke-miterlimit="10"/>
<g clip-path="url(#clip0987098709)">
<path d="M45.3333 44.03H46.0817L46.1886 44.91C46.4024 44.58 46.6162 44.36 46.9369 44.14C47.2577 43.92 47.5784 43.92 48.006 43.92C48.4336 43.92 48.7544 44.03 49.0751 44.25C49.3958 44.47 49.6096 44.69 49.7165 45.13C49.9304 44.69 50.2511 44.47 50.5718 44.25C50.8925 44.03 51.3202 43.92 51.7478 43.92C52.0685 43.92 52.2823 44.03 52.603 44.14C52.8169 44.25 53.0307 44.36 53.1376 44.58C53.3514 44.8 53.4583 45.02 53.5652 45.35C53.6721 45.68 53.6721 46.01 53.6721 46.45V49.97H52.8169V46.45C52.8169 45.9 52.71 45.46 52.4961 45.24C52.1754 45.02 51.8547 44.91 51.4271 44.91C51.2132 44.91 50.9994 44.91 50.8925 45.02C50.6787 45.02 50.5718 45.13 50.4649 45.35C50.2511 45.46 50.2511 45.57 50.1442 45.79C50.0373 46.01 50.0373 46.23 50.0373 46.45V49.97H49.0751V46.45C49.0751 45.9 48.9682 45.46 48.7544 45.24C48.4336 45.02 48.1129 44.91 47.6853 44.91C47.4715 44.91 47.2577 44.91 47.1507 45.02C46.9369 45.02 46.83 45.13 46.7231 45.35C46.6162 45.46 46.5093 45.57 46.4024 45.79C46.2955 46.01 46.2955 46.23 46.2955 46.45V49.97H45.3333V44.03Z" fill="black"/>
<path d="M57.5208 49.8599C57.2001 49.8599 56.8793 49.7499 56.5586 49.6399C56.2379 49.6399 56.0241 49.4199 55.8103 49.1999C55.5965 48.9799 55.4895 48.6499 55.3826 48.3199C55.2757 47.9899 55.1688 47.5499 55.1688 47.1099V46.6699C55.1688 46.2299 55.2757 45.8999 55.3826 45.4599C55.4895 45.1299 55.7034 44.7999 55.8103 44.5799C55.9172 44.3599 56.2379 44.1399 56.5586 44.0299C56.8793 43.9199 57.0932 43.8099 57.5208 43.8099C57.9484 43.8099 58.3761 43.9199 58.6968 44.0299C59.0175 44.2499 59.2313 44.4699 59.4451 44.7999L59.552 43.9199H60.3004V49.9699C60.3004 50.7399 60.0866 51.3999 59.659 51.8399C59.2313 52.2799 58.6968 52.4999 57.8415 52.4999C57.0932 52.4999 56.5586 52.2799 56.131 51.9499C55.8103 51.6199 55.5965 51.1799 55.4895 50.6299H56.4517C56.5586 50.9599 56.6655 51.1799 56.8793 51.3999C57.0932 51.6199 57.4139 51.6199 57.8415 51.6199C58.3761 51.6199 58.6968 51.5099 59.0175 51.2899C59.2313 51.0699 59.3382 50.6299 59.3382 50.0799V49.0899C59.1244 49.4199 58.9106 49.5299 58.5899 49.7499C58.2692 49.8599 57.8415 49.8599 57.5208 49.8599ZM57.7346 48.9799C57.9484 48.9799 58.1622 48.9799 58.3761 48.8699C58.5899 48.7599 58.6968 48.6499 58.9106 48.5399C59.0175 48.4299 59.1244 48.2099 59.2313 47.9899C59.3382 47.7699 59.3382 47.5499 59.3382 47.2199V46.6699C59.3382 46.3399 59.3382 46.1199 59.2313 45.8999C59.1244 45.6799 59.0175 45.4599 58.9106 45.3499C58.8037 45.2399 58.5899 45.0199 58.3761 45.0199C58.1622 44.9099 57.9484 44.9099 57.7346 44.9099C57.2001 44.9099 56.8793 45.0199 56.5586 45.3499C56.2379 45.6799 56.131 46.1199 56.131 46.6699V47.1099C56.131 47.6599 56.2379 48.0999 56.5586 48.4299C56.8793 48.8699 57.307 48.9799 57.7346 48.9799Z" fill="black"/>
<path d="M55.0619 40.51H60.4073L59.1244 39.19L59.552 38.75L61.5832 40.84L59.552 42.93L59.1244 42.49L60.4073 41.17H55.0619V40.51Z" fill="black"/>
</g>
<path d="M40.5834 12.25C40.5834 12.25 41.3334 7.375 39.2084 1.25L40.5834 12.25Z" fill="#F05E5E"/>
<path d="M40.5834 12.25C40.5834 12.25 41.3334 7.375 39.2084 1.25" stroke="black" stroke-width="2" stroke-miterlimit="10"/>
<path d="M36.8334 53.125H42.9584L39.8334 61.625L36.8334 53.125Z" fill="black"/>
<path d="M39.8333 40.6249C41.2831 40.6249 42.4583 39.4496 42.4583 37.9999C42.4583 36.5501 41.2831 35.3749 39.8333 35.3749C38.3836 35.3749 37.2083 36.5501 37.2083 37.9999C37.2083 39.4496 38.3836 40.6249 39.8333 40.6249Z" fill="black"/>
<path d="M39.8334 38V56.375" stroke="black" stroke-miterlimit="10"/>
<ellipse cx="22.2083" cy="31.875" rx="8.125" ry="5.625" transform="rotate(-90 22.2083 31.875)" fill="white"/>
<defs>
<clipPath id="clip0987098709">
<rect width="16.25" height="13.75" fill="white" transform="translate(45.3333 38.75)"/>
</clipPath>
</defs>
</svg>
