<svg width="80" height="80" viewBox="0 0 80 80" fill="none" xmlns="http://www.w3.org/2000/svg">
<path d="M39.7501 74.75C59.08 74.75 74.7501 59.08 74.7501 39.75C74.7501 20.42 59.08 4.75 39.7501 4.75C20.4201 4.75 4.75006 20.42 4.75006 39.75C4.75006 59.08 20.4201 74.75 39.7501 74.75Z" fill="white" stroke="black" stroke-width="2" stroke-miterlimit="10"/>
<path d="M39.7501 46.625C35.7501 50.625 31.6251 55 25.2501 55C18.6251 55 14.0001 50.125 14.0001 43.375C14.0001 37.25 19.0001 31.75 25.8751 31.75C31.6251 31.75 36.0001 36.375 39.7501 40.125C43.7501 36.125 47.8751 31.75 54.2501 31.75C60.8751 31.75 65.5001 36.625 65.5001 43.375C65.5001 49.5 60.5001 55 53.6251 55C47.7501 55 43.5001 50.375 39.7501 46.625ZM36.5001 43.5C33.5001 40.625 30.2501 36.625 25.7501 36.625C21.8751 36.625 18.8751 39.875 18.8751 43.5C18.8751 47.5 21.7501 50.375 25.5001 50.375C30.0001 50.375 33.6251 46.5 36.5001 43.5ZM60.5001 43.5C60.5001 39.5 57.6251 36.625 53.8751 36.625C49.3751 36.625 45.8751 40.5 42.8751 43.5C45.8751 46.375 49.1251 50.375 53.6251 50.375C57.5001 50.375 60.5001 47.125 60.5001 43.5Z" fill="black" fill-opacity="0.2"/>
<path d="M39.7501 42.875C35.7501 46.875 31.6251 51.25 25.2501 51.25C18.6251 51.25 14.0001 46.375 14.0001 39.625C14.0001 33.5 19.0001 28 25.8751 28C31.6251 28 36.0001 32.625 39.7501 36.375C43.7501 32.375 47.8751 28 54.2501 28C60.8751 28 65.5001 32.875 65.5001 39.625C65.5001 45.75 60.5001 51.25 53.6251 51.25C47.7501 51.25 43.5001 46.625 39.7501 42.875ZM36.5001 39.75C33.5001 36.875 30.2501 32.875 25.7501 32.875C21.8751 32.875 18.8751 36.125 18.8751 39.75C18.8751 43.75 21.7501 46.625 25.5001 46.625C30.0001 46.625 33.6251 42.75 36.5001 39.75ZM60.5001 39.75C60.5001 35.75 57.6251 32.875 53.8751 32.875C49.3751 32.875 45.8751 36.75 42.8751 39.75C45.8751 42.625 49.1251 46.625 53.6251 46.625C57.5001 46.625 60.5001 43.375 60.5001 39.75Z" fill="#4CBEFF" stroke="black" stroke-miterlimit="10"/>
</svg>
