<svg width="80" height="80" viewBox="0 0 80 80" fill="none" xmlns="http://www.w3.org/2000/svg">
<path d="M4.01228 38.6737C3.60305 38.6737 3.23475 38.6124 2.90737 38.4691C2.57999 38.3259 2.27307 38.1213 2.02753 37.8348C1.78199 37.5484 1.59784 37.221 1.45461 36.7913C1.31138 36.3821 1.25 35.891 1.25 35.359V34.7656C1.25 34.2336 1.31138 33.763 1.45461 33.3333C1.59784 32.9241 1.78199 32.5763 2.02753 32.2898C2.27307 32.0238 2.55952 31.8192 2.90737 31.676C3.23475 31.5327 3.62351 31.4714 4.01228 31.4714C4.48289 31.4714 4.89211 31.5532 5.26042 31.7169C5.62872 31.8806 5.93564 32.1466 6.18118 32.4944V28.75H7.28609V38.5714H6.44717L6.3244 37.4665C6.07887 37.8757 5.77195 38.1622 5.38318 38.3668C4.97396 38.5714 4.52381 38.6737 4.01228 38.6737ZM4.27827 37.6507C4.56473 37.6507 4.81027 37.5893 5.0558 37.487C5.28088 37.3847 5.48549 37.2414 5.66964 37.0368C5.83333 36.8527 5.97656 36.6071 6.05841 36.3207C6.16071 36.0342 6.20164 35.7068 6.20164 35.3385V34.7656C6.20164 34.3973 6.16071 34.0699 6.05841 33.7835C5.9561 33.497 5.83333 33.272 5.66964 33.0673C5.50595 32.8832 5.30134 32.7195 5.0558 32.6172C4.83073 32.5149 4.56473 32.4535 4.27827 32.4535C3.70536 32.4535 3.23475 32.6376 2.8869 33.006C2.53906 33.3743 2.37537 33.9472 2.37537 34.7247V35.3181C2.37537 36.0751 2.53906 36.6481 2.8869 37.0368C3.25521 37.4665 3.70536 37.6507 4.27827 37.6507Z" fill="black"/>
<path d="M11.0919 34.9703L8.69792 31.5532H9.96652L11.7876 34.1723L13.6086 31.5532H14.8363L12.4628 34.9703L15 38.5715H13.7109L11.7671 35.7478L9.82329 38.5715H8.55469L11.0919 34.9703Z" fill="black"/>
<path d="M2.37488 73.6933H56.6249L78.7499 45.7316L36.9999 2.22119L2.37488 73.6933Z" fill="white"/>
<path d="M23.6248 30.9668H44.8748L53.7498 21.4285L61.9998 29.9215L48.8748 44.425H17.1248L23.6248 30.9668Z" fill="#FF85A2"/>
<path d="M2.37482 73.6933H56.6248L78.7498 45.7316L36.9998 2.22119L2.37482 73.6933Z" stroke="black" stroke-width="2" stroke-miterlimit="10" stroke-linejoin="round"/>
<path d="M9.87488 58.406H52.3749L70.8749 37.7614" stroke="black" stroke-miterlimit="10"/>
<path d="M16.7499 44.425H48.8749L62.7499 29.1376" stroke="black" stroke-miterlimit="10"/>
<path d="M23.1248 30.9669H44.8748L54.6248 20.5139" stroke="black" stroke-miterlimit="10"/>
<path d="M29.4999 17.5087H41.1249L46.4999 12.0209" stroke="black" stroke-miterlimit="10"/>
<path opacity="0.2" d="M56.6249 73.6934L36.9999 3.39722L78.7499 45.7317L56.6249 73.6934Z" fill="black"/>
<path d="M36.9999 3.39722L56.6249 73.6934" stroke="black" stroke-miterlimit="10"/>
</svg>
