<svg width="61" height="17" viewBox="0 0 61 17" fill="none" xmlns="http://www.w3.org/2000/svg">
<path d="M37.1578 5.06694C36.2819 5.07686 35.4214 5.30612 34.65 5.73539C34.65 3.40419 34.6846 1.38006 34.737 0.603516L30.1217 1.52524V1.95868L30.5749 2.01299C31.219 2.10334 31.4629 2.50075 31.55 3.38643C31.6895 5.10298 31.6722 14.2643 31.55 15.7281C32.8403 16.0451 34.1601 16.2148 35.4861 16.2341C39.1431 16.2341 41.3551 13.8852 41.3551 10.1623C41.3377 7.19917 39.5438 5.06694 37.1578 5.06694ZM35.5558 15.4931C35.293 15.49 35.0308 15.4659 34.7717 15.421C34.7024 14.3907 34.65 10.1445 34.6673 6.43986C35.0132 6.31187 35.3792 6.25061 35.7468 6.25917C37.2626 6.25917 38.1156 8.08434 38.1156 10.3612C38.0982 13.2888 37.0534 15.4931 35.5558 15.4931ZM12.7754 5.17504L12.0615 5.37349C11.4169 3.20574 10.4244 1.97696 8.56077 1.97696H6.15736C6.05298 3.36816 6.00053 5.68107 6.01835 8.08434L7.6376 8.03003C8.7176 7.99399 9.15297 7.16314 9.41469 5.95211H10.0237V11.0479H9.41418C9.15297 9.81916 8.70029 8.98778 7.62029 8.95175L6.01835 8.89744C6.03567 10.7226 6.0876 12.2762 6.15736 13.1985C6.26175 14.5536 6.62786 15.15 7.55052 15.2941L8.36931 15.3845V15.9991H0.566895V15.3845L1.21154 15.2941C2.1342 15.15 2.4998 14.5536 2.6047 13.1985C2.77884 10.9576 2.81347 6.31349 2.6047 3.71178C2.50031 2.37437 2.1342 1.77799 1.21154 1.63334L0.566895 1.54351V0.946615H12.7061L12.7754 5.17504ZM16.659 4.94004C20.1078 4.94004 21.8146 7.36158 21.8146 10.5779C21.8146 13.7948 19.8812 16.2519 16.4324 16.2519C12.9847 16.2519 11.2605 13.8309 11.2605 10.6328C11.2605 7.43417 13.1934 4.94057 16.659 4.94057V4.94004ZM16.4849 5.62676C14.9522 5.62676 14.5347 7.75899 14.5347 10.5962C14.5347 13.4329 15.2139 15.5657 16.6244 15.5657C18.0349 15.5657 18.5746 13.4329 18.5746 10.5962C18.5746 7.75899 17.8786 5.64504 16.4676 5.64504L16.4849 5.62676ZM42.1912 10.7048C42.1912 7.74124 43.9851 4.95832 47.555 4.95832C50.4463 4.95832 51.8221 7.18089 51.8394 10.0902H45.3782C45.3085 12.7285 46.5972 14.68 49.0704 14.68C50.1499 14.68 50.7426 14.409 51.4041 13.8852L51.7004 14.2643C50.986 15.2941 49.4885 16.2702 47.5031 16.2702C44.3853 16.2519 42.1912 13.9755 42.1912 10.7048ZM45.4128 9.34916L48.6524 9.27709C48.6697 7.79555 48.4436 5.66332 47.2765 5.66332C46.1099 5.66332 45.4307 7.66865 45.3955 9.3314L45.4128 9.34916ZM60.1296 8.2833L59.6072 8.42796C59.0496 6.53021 58.1967 5.73539 56.9426 5.73539C56.1065 5.73539 55.5143 6.38607 55.5143 7.32555C55.5143 8.26555 56.1936 8.7533 58.1443 9.52985C60.0945 10.3069 60.6521 11.084 60.6521 12.6021C60.6521 14.8607 58.9804 16.2524 56.2282 16.2524C54.9864 16.2471 53.7549 16.0209 52.5884 15.584L52.5014 12.4574L53.0238 12.3128C53.7723 14.4993 54.7653 15.2946 56.0719 15.2946C57.3779 15.2946 57.796 14.481 57.796 13.6136C57.796 12.7467 57.3255 12.2585 55.5667 11.6083C53.8075 10.9576 52.7453 10.2531 52.7453 8.35537C52.7453 6.45814 54.3126 4.94004 56.9075 4.94004C58.1092 4.94004 59.2589 5.15729 60.0253 5.51866L60.1296 8.2833ZM29.6863 8.19296C28.2932 7.21693 26.7778 7.65089 26.4819 8.17468C26.381 10.1012 26.3925 12.0322 26.5166 13.9572C26.5863 14.8424 26.8475 15.2403 27.4922 15.3307L28.3278 15.3845V15.9991H21.9022V15.3845L22.3549 15.3307C22.999 15.2403 23.2429 14.8424 23.33 13.9572C23.465 11.8815 23.465 9.79875 23.33 7.72296C23.2603 6.8378 22.999 6.43986 22.3549 6.34952L21.9017 6.29573V5.86229L26.5171 4.94004L26.4651 7.43417C27.5446 4.86798 29.6695 4.52488 30.8188 5.24763L29.6868 8.19296H29.6863Z" fill="black"/>
</svg>
