<svg width="91" height="24" viewBox="0 0 91 24" fill="none" xmlns="http://www.w3.org/2000/svg">
<path d="M55.3464 6.75127C54.0217 6.76627 52.72 7.11304 51.5532 7.76234C51.5532 4.23623 51.6056 1.17458 51.6849 0L44.7038 1.39417V2.04979L45.3893 2.13194C46.3636 2.26859 46.7325 2.8697 46.8642 4.20937C47.0753 6.80577 47.0491 20.663 46.8642 22.8771C48.8159 23.3565 50.8123 23.6132 52.8179 23.6425C58.3494 23.6425 61.6952 20.0895 61.6952 14.4583C61.669 9.97643 58.9556 6.75127 55.3464 6.75127ZM52.9234 22.5216C52.5258 22.5169 52.1293 22.4804 51.7373 22.4126C51.6325 20.8541 51.5532 14.4315 51.5794 8.82791C52.1026 8.63432 52.6561 8.54166 53.2122 8.55461C55.5051 8.55461 56.7952 11.3153 56.7952 14.7593C56.769 19.1874 55.1885 22.5216 52.9234 22.5216ZM18.4663 6.91478L17.3864 7.21494C16.4114 3.93607 14.9103 2.07743 12.0913 2.07743H8.456C8.29811 4.18173 8.21878 7.68019 8.24574 11.3153L10.695 11.2332C12.3286 11.1786 12.9871 9.92192 13.383 8.09015H14.3041V15.798H13.3822C12.9871 13.9393 12.3024 12.6818 10.6688 12.6273L8.24574 12.5452C8.27192 15.3059 8.35048 17.6558 8.456 19.0508C8.61389 21.1006 9.16766 22.0026 10.5633 22.2206L11.8017 22.3573V23.287H0V22.3573L0.97507 22.2206C2.37067 22.0026 2.92367 21.1006 3.08233 19.0508C3.34574 15.6613 3.39811 8.63676 3.08233 4.70148C2.92444 2.67855 2.37067 1.77648 0.97507 1.55768L0 1.42182V0.518964H18.3615L18.4663 6.91478ZM24.3406 6.55932C29.5571 6.55932 32.1388 10.2221 32.1388 15.0871C32.1388 19.9528 29.2144 23.6693 23.9978 23.6693C18.7828 23.6693 16.1749 20.0074 16.1749 15.17C16.1749 10.3319 19.0986 6.56011 24.3406 6.56011V6.55932ZM24.0772 7.59804C21.7589 7.59804 21.1273 10.8232 21.1273 15.1147C21.1273 19.4054 22.1547 22.6314 24.2882 22.6314C26.4216 22.6314 27.238 19.4054 27.238 15.1147C27.238 10.8232 26.1852 7.62569 24.051 7.62569L24.0772 7.59804ZM62.9598 15.279C62.9598 10.7963 65.6732 6.58697 71.0731 6.58697C75.4463 6.58697 77.5273 9.94878 77.5535 14.3493H67.7805C67.675 18.3399 69.6243 21.2917 73.3652 21.2917C74.998 21.2917 75.8945 20.8818 76.895 20.0895L77.3433 20.663C76.2627 22.2206 73.9975 23.697 70.9945 23.697C66.2786 23.6693 62.9598 20.2262 62.9598 15.279ZM67.8329 13.2284L72.7329 13.1194C72.759 10.8785 72.4171 7.65333 70.6518 7.65333C68.8873 7.65333 67.8598 10.6865 67.8067 13.2016L67.8329 13.2284ZM90.0931 11.6163L89.3029 11.8351C88.4595 8.96456 87.1694 7.76234 85.2724 7.76234C84.0078 7.76234 83.112 8.74655 83.112 10.1676C83.112 11.5894 84.1395 12.3272 87.0901 13.5017C90.04 14.6771 90.8833 15.8525 90.8833 18.1487C90.8833 21.565 88.3548 23.6701 84.1919 23.6701C82.3135 23.6621 80.4508 23.32 78.6865 22.659L78.5548 17.9299L79.345 17.7111C80.4772 21.0184 81.9791 22.2214 83.9554 22.2214C85.931 22.2214 86.5633 20.9908 86.5633 19.6788C86.5633 18.3675 85.8516 17.629 83.1914 16.6455C80.5303 15.6613 78.9237 14.5958 78.9237 11.7253C78.9237 8.85556 81.2944 6.55932 85.2193 6.55932C87.037 6.55932 88.7761 6.88792 89.9352 7.43453L90.0931 11.6163ZM44.0453 11.4796C41.938 10.0033 39.6459 10.6597 39.1984 11.452C39.0457 14.3659 39.0632 17.2867 39.2508 20.1985C39.3563 21.5374 39.7514 22.1393 40.7265 22.2759L41.9904 22.3573V23.287H32.2713V22.3573L32.956 22.2759C33.9303 22.1393 34.2992 21.5374 34.4309 20.1985C34.6351 17.0587 34.6351 13.9085 34.4309 10.7687C34.3254 9.42981 33.9303 8.82791 32.956 8.69126L32.2705 8.6099V7.95428L39.2516 6.55932L39.173 10.3319C40.8059 6.45031 44.0199 5.93135 45.7582 7.02457L44.0461 11.4796H44.0453Z" fill="black"/>
</svg>
