<svg width="30" height="30" viewBox="0 0 30 30" fill="none" xmlns="http://www.w3.org/2000/svg">
<path fill-rule="evenodd" clip-rule="evenodd" d="M15.2416 0.449219C7.10443 0.449219 0.513672 7.03998 0.513672 15.1772C0.513672 21.6943 4.72955 27.1989 10.5839 29.1503C11.3203 29.2792 11.5965 28.8374 11.5965 28.4508C11.5965 28.101 11.5781 26.9411 11.5781 25.7077C7.87765 26.3888 6.92033 24.8056 6.62577 23.9771C6.46009 23.5537 5.7421 22.2466 5.11616 21.8968C4.60068 21.6207 3.86428 20.9395 5.09775 20.9211C6.25758 20.9027 7.08602 21.9889 7.36217 22.4307C8.68769 24.6583 10.8048 24.0324 11.6517 23.6458C11.7806 22.6884 12.1672 22.0441 12.5906 21.6759C9.31363 21.3077 5.88938 20.0374 5.88938 14.404C5.88938 12.8023 6.46009 11.4768 7.39899 10.4458C7.25171 10.0776 6.73623 8.56801 7.54627 6.54291C7.54627 6.54291 8.77974 6.1563 11.5965 8.05253C12.7747 7.72115 14.0266 7.55546 15.2785 7.55546C16.5303 7.55546 17.7822 7.72115 18.9604 8.05253C21.7772 6.13789 23.0106 6.54291 23.0106 6.54291C23.8207 8.56801 23.3052 10.0776 23.1579 10.4458C24.0968 11.4768 24.6675 12.7839 24.6675 14.404C24.6675 20.0558 21.2249 21.3077 17.9479 21.6759C18.4818 22.1361 18.942 23.0198 18.942 24.4006C18.942 26.3704 18.9236 27.9537 18.9236 28.4508C18.9236 28.8374 19.1998 29.2976 19.9362 29.1503C22.8599 28.1633 25.4006 26.2842 27.2004 23.7776C29.0003 21.271 29.9688 18.2631 29.9696 15.1772C29.9696 7.03998 23.3788 0.449219 15.2416 0.449219Z" fill="#252F3C"/>
</svg>
