<svg width="18" height="17" viewBox="0 0 18 17" fill="none" xmlns="http://www.w3.org/2000/svg">
<path fill-rule="evenodd" clip-rule="evenodd" d="M9.40408 0.0410156C4.65484 0.0410156 0.808167 3.88769 0.808167 8.63693C0.808167 12.4406 3.26875 15.6533 6.68562 16.7923C7.11542 16.8675 7.27659 16.6096 7.27659 16.384C7.27659 16.1798 7.26585 15.5029 7.26585 14.783C5.10612 15.1806 4.54739 14.2565 4.37547 13.773C4.27877 13.5259 3.85972 12.763 3.49439 12.5588C3.19353 12.3976 2.76374 12.0001 3.48364 11.9893C4.16057 11.9786 4.64409 12.6125 4.80527 12.8704C5.5789 14.1705 6.81456 13.8052 7.30883 13.5796C7.38404 13.0208 7.60968 12.6448 7.85681 12.4299C5.94422 12.215 3.94567 11.4736 3.94567 8.18564C3.94567 7.25084 4.27877 6.47721 4.82676 5.87549C4.7408 5.66059 4.43994 4.77951 4.91271 3.59757C4.91271 3.59757 5.63262 3.37193 7.27659 4.47866C7.96426 4.28525 8.69492 4.18854 9.42557 4.18854C10.1562 4.18854 10.8869 4.28525 11.5745 4.47866C13.2185 3.36119 13.9384 3.59757 13.9384 3.59757C14.4112 4.77951 14.1103 5.66059 14.0244 5.87549C14.5724 6.47721 14.9055 7.24009 14.9055 8.18564C14.9055 11.4843 12.8962 12.215 10.9836 12.4299C11.2952 12.6985 11.5638 13.2143 11.5638 14.0201C11.5638 15.1698 11.5531 16.0939 11.5531 16.384C11.5531 16.6096 11.7142 16.8783 12.144 16.7923C13.8505 16.2162 15.3333 15.1195 16.3838 13.6565C17.4343 12.1936 17.9995 10.438 18 8.63693C18 3.88769 14.1533 0.0410156 9.40408 0.0410156Z" fill="white"/>
</svg>
