<svg width="82" height="82" viewBox="0 0 82 82" fill="none" xmlns="http://www.w3.org/2000/svg">
<path d="M69.0594 52.6594H62.6531L70.2125 25.625C70.5969 24.4719 69.8281 23.1907 68.675 22.8063C67.5219 22.4219 66.2406 23.1907 65.8563 24.3438L57.9125 52.5313H24.7281L16.7844 24.3438C16.5281 23.1907 15.2469 22.55 14.0938 22.8063C12.8125 23.1907 12.1719 24.4719 12.5562 25.625L20.1156 52.6594H12.9406C10.7625 52.6594 8.96875 54.4532 8.96875 56.6313V66.2407C8.96875 68.4188 10.7625 70.2125 12.9406 70.2125H68.9312C71.1094 70.2125 72.9031 68.4188 72.9031 66.2407V56.6313C73.0312 54.4532 71.2375 52.6594 69.0594 52.6594Z" fill="#9AACBF"/>
<path d="M24.728 52.6594L16.7842 24.4719C16.528 23.1907 15.2467 22.55 14.0936 22.8063C12.8123 23.1907 12.1717 24.4719 12.5561 25.625L20.1155 52.6594" fill="#3E5063"/>
<path d="M24.728 52.6594L16.7842 24.4719C16.528 23.1907 15.2467 22.55 14.0936 22.8063C12.8123 23.1907 12.1717 24.4719 12.5561 25.625L20.1155 52.6594" stroke="black" stroke-miterlimit="10"/>
<path d="M62.6532 52.6594L70.2126 25.625C70.597 24.4719 69.8282 23.1907 68.6751 22.8063C67.522 22.4219 66.2407 23.1907 65.8563 24.3438L57.9126 52.5313" fill="#3E5063"/>
<path d="M62.6532 52.6594L70.2126 25.625C70.597 24.4719 69.8282 23.1907 68.6751 22.8063C67.522 22.4219 66.2407 23.1907 65.8563 24.3438L57.9126 52.5313" stroke="black" stroke-miterlimit="10"/>
<path d="M24.9842 53.3L16.9123 24.4719C16.528 23.1907 15.2467 22.55 14.0936 22.8063C12.8123 23.1907 12.1717 24.4719 12.5561 25.625L20.2436 53.3H24.9842Z" fill="#3E5063"/>
<path d="M62.7814 52.5313L70.2126 25.625C70.597 24.4719 69.8282 23.1907 68.6751 22.8063C67.522 22.4219 66.2407 23.1907 65.8563 24.3438L57.9126 52.5313H62.6532L62.7814 52.5313Z" fill="#3E5063"/>
<path d="M69.0594 52.5313H62.6532L70.2126 25.625C70.5969 24.4719 69.8282 23.1907 68.6751 22.8063C67.5219 22.4219 66.2407 23.1907 65.8563 24.3438L57.9126 52.5313H24.7282L16.7844 24.3438C16.5282 23.1907 15.2469 22.55 14.0938 22.8063C12.8126 23.1907 12.1719 24.4719 12.5563 25.625L20.1156 52.5313H12.9406C10.7625 52.5313 8.96875 54.325 8.96875 56.5031L8.96881 66.2407C8.96881 68.4188 10.7626 70.2125 12.9407 70.2125H68.9313C71.1094 70.2125 72.9032 68.4188 72.9032 66.2407V56.5031C73.0313 54.325 71.2376 52.5313 69.0594 52.5313Z" stroke="black" stroke-width="2" stroke-miterlimit="10"/>
<path d="M64.9594 53.1719H15.375" stroke="black" stroke-miterlimit="10"/>
<path d="M32.0312 62.9094H16.0155C15.503 62.9094 15.1187 62.525 15.1187 62.0125V60.8594C15.1187 60.3469 15.503 59.9625 16.0155 59.9625H32.0312C32.5437 59.9625 32.928 60.3469 32.928 60.8594V62.0125C32.928 62.525 32.5437 62.9094 32.0312 62.9094Z" fill="#3E5063" stroke="black" stroke-miterlimit="10"/>
<path d="M63.8063 62.9094C64.5847 62.9094 65.2157 62.2784 65.2157 61.5001C65.2157 60.7217 64.5847 60.0907 63.8063 60.0907C63.028 60.0907 62.397 60.7217 62.397 61.5001C62.397 62.2784 63.028 62.9094 63.8063 62.9094Z" fill="#FFBA42" stroke="black" stroke-miterlimit="10"/>
<path d="M57.6564 62.9094C58.4348 62.9094 59.0658 62.2784 59.0658 61.5001C59.0658 60.7217 58.4348 60.0907 57.6564 60.0907C56.8781 60.0907 56.2471 60.7217 56.2471 61.5001C56.2471 62.2784 56.8781 62.9094 57.6564 62.9094Z" fill="#58FF42" stroke="black" stroke-miterlimit="10"/>
<path d="M51.3781 62.9094C52.1565 62.9094 52.7875 62.2784 52.7875 61.5001C52.7875 60.7217 52.1565 60.0907 51.3781 60.0907C50.5997 60.0907 49.9688 60.7217 49.9688 61.5001C49.9688 62.2784 50.5997 62.9094 51.3781 62.9094Z" fill="#58FF42" stroke="black" stroke-miterlimit="10"/>
<path d="M22.9438 17.7398C32.9303 7.75339 49.1985 7.75339 59.1849 17.7398" stroke="black" stroke-width="2" stroke-miterlimit="10"/>
<path d="M28.5815 23.2163C35.5076 16.2902 46.7826 16.2902 53.7087 23.2163" stroke="black" stroke-width="2" stroke-miterlimit="10"/>
<path d="M34.3799 29.0148C38.0845 25.3102 44.0442 25.3102 47.9099 29.0148" stroke="black" stroke-width="2" stroke-miterlimit="10"/>
<path d="M41.1447 35.6186C41.6784 35.6186 42.1111 35.186 42.1111 34.6522C42.1111 34.1185 41.6784 33.6858 41.1447 33.6858C40.6109 33.6858 40.1782 34.1185 40.1782 34.6522C40.1782 35.186 40.6109 35.6186 41.1447 35.6186Z" fill="black" stroke="black" stroke-width="2" stroke-miterlimit="10"/>
</svg>
