<svg width="96" height="96" viewBox="0 0 96 96" fill="none" xmlns="http://www.w3.org/2000/svg">
<rect width="96" height="96" rx="48" fill="#B4F48C"/>
<path opacity="0.2" d="M61.9 52.1C61.4 51.4 60.7 50.8 60 50.3C60.5 49.9 61 49.4 61.4 48.8C62.8 47.1 63.4 45.1 63.4 42.7C63.4 41 63 39.3 62.3 37.9C61.6 36.4 60.5 35.2 59.2 34.2C57.9 33.2 56.3 32.4 54.5 31.9C52.8 31.3 50.7 31 48.5 31C46.2 31 44.1 31.3 42.3 31.9C40.4 32.5 38.8 33.5 37.5 34.7C36.2 35.9 35.2 37.4 34.5 39.2C33.8 40.9 33.5 42.8 33.5 44.9C33.5 45.4 33.7 45.9 34.1 46.3C34.5 46.7 35 46.9 35.5 46.9H43.6C43.6 47 43.5 47.2 43.5 47.4V54C43.5 54.3 43.6 54.7 43.7 55H35C33.9 55 33 55.9 33 57C33 59 33.3 60.9 34 62.7C34.7 64.5 35.7 66.1 37 67.4C38.3 68.7 40 69.7 41.9 70.4C43.8 71.1 46 71.4 48.5 71.4C50.8 71.4 52.8 71.1 54.7 70.5C56.6 69.9 58.2 69.1 59.6 68C61 66.9 62.1 65.5 62.8 64C63.6 62.4 64 60.7 64 58.8C64 56 63.3 53.8 61.9 52.1ZM46.5 44.9C46.5 44 46.7 43.3 47 43C47.4 42.6 48.2 42.5 48.8 42.5C49.3 42.5 49.9 42.6 50.2 42.9C50.3 43 50.5 43.2 50.5 43.8C50.5 44.4 50.4 44.8 50.2 45C49.9 45.2 49.3 45.4 48.5 45.4H46.4C46.5 45.2 46.5 45.1 46.5 44.9ZM50.5 59.3C50.2 59.6 49.6 59.8 48.7 59.8C47.6 59.8 46.9 59.6 46.5 59.2C46.2 58.8 46 58 46 56.9C46 56.6 45.9 56.2 45.8 55.9H48.5C50 55.9 50.5 56.2 50.6 56.3C50.9 56.6 51 57.1 51 57.8C51 58.9 50.7 59.2 50.5 59.3Z" fill="black"/>
<path d="M61.9 48.1C61.4 47.4 60.7 46.8 60 46.3C60.5 45.9 61 45.4 61.4 44.8C62.8 43.1 63.4 41.1 63.4 38.7C63.4 37 63 35.3 62.3 33.9C61.6 32.4 60.5 31.2 59.2 30.2C57.9 29.2 56.3 28.4 54.5 27.9C52.8 27.3 50.7 27 48.5 27C46.2 27 44.1 27.3 42.3 27.9C40.4 28.5 38.8 29.5 37.5 30.7C36.2 31.9 35.2 33.4 34.5 35.2C33.8 36.9 33.5 38.8 33.5 40.9C33.5 41.4 33.7 41.9 34.1 42.3C34.5 42.7 35 42.9 35.5 42.9H43.6C43.6 43 43.5 43.2 43.5 43.4V50C43.5 50.3 43.6 50.7 43.7 51H35C33.9 51 33 51.9 33 53C33 55 33.3 56.9 34 58.7C34.7 60.5 35.7 62.1 37 63.4C38.3 64.7 40 65.7 41.9 66.4C43.8 67.1 46 67.4 48.5 67.4C50.8 67.4 52.8 67.1 54.7 66.5C56.6 65.9 58.2 65.1 59.6 64C61 62.9 62.1 61.5 62.8 60C63.6 58.4 64 56.7 64 54.8C64 52 63.3 49.8 61.9 48.1ZM46.5 40.9C46.5 40 46.7 39.3 47 39C47.4 38.6 48.2 38.5 48.8 38.5C49.3 38.5 49.9 38.6 50.2 38.9C50.3 39 50.5 39.2 50.5 39.8C50.5 40.4 50.4 40.8 50.2 41C49.9 41.2 49.3 41.4 48.5 41.4H46.4C46.5 41.2 46.5 41.1 46.5 40.9ZM50.5 55.3C50.2 55.6 49.6 55.8 48.7 55.8C47.6 55.8 46.9 55.6 46.5 55.2C46.2 54.8 46 54 46 52.9C46 52.6 45.9 52.2 45.8 51.9H48.5C50 51.9 50.5 52.2 50.6 52.3C50.9 52.6 51 53.1 51 53.8C51 54.9 50.7 55.2 50.5 55.3Z" fill="black"/>
<path d="M48.5 29C50.6 29 52.4 29.2 54 29.7C55.6 30.2 57 30.8 58.1 31.7C59.2 32.5 60 33.6 60.6 34.7C61.2 35.9 61.5 37.2 61.5 38.6C61.5 40.5 61 42.1 59.9 43.5C58.8 44.8 57.4 45.8 55.6 46.3C57.7 46.9 59.3 47.8 60.4 49.2C61.5 50.6 62 52.3 62 54.5C62 56.1 61.7 57.5 61 58.8C60.4 60.1 59.5 61.2 58.3 62.2C57.1 63.1 55.7 63.9 54.1 64.4C52.4 64.9 50.6 65.2 48.5 65.2C46.3 65.2 44.3 64.9 42.6 64.3C40.9 63.7 39.5 62.8 38.4 61.7C37.3 60.6 36.4 59.3 35.9 57.8C35.3 56.3 35 54.6 35 52.8H44C44 54.4 44.4 55.7 45.1 56.5C45.8 57.3 47 57.7 48.7 57.7C50.1 57.7 51.2 57.3 51.9 56.6C52.6 55.9 52.9 54.9 52.9 53.7C52.9 52.4 52.5 51.5 51.9 50.8C51.2 50.1 50 49.8 48.4 49.8H45.4V43.2H48.4C49.7 43.2 50.7 42.9 51.4 42.3C52.1 41.7 52.4 40.8 52.4 39.7C52.4 38.7 52.1 37.9 51.4 37.3C50.8 36.7 49.8 36.4 48.6 36.4C47.2 36.4 46.1 36.8 45.4 37.5C44.7 38.2 44.4 39.3 44.4 40.8H35.4C35.4 38.9 35.7 37.3 36.3 35.8C36.9 34.3 37.7 33.1 38.8 32C39.9 30.9 41.3 30.2 42.9 29.7C44.5 29.3 46.4 29 48.5 29Z" fill="white"/>
</svg>
