<svg width="82" height="82" viewBox="0 0 82 82" fill="none" xmlns="http://www.w3.org/2000/svg">
<g clip-path="url(#clip676876)">
<path d="M14.8226 45.8996C23.1648 38.476 36.6295 24.0743 46.5816 12.6421C59.3146 -2.05658 84.3413 20.9564 69.9985 33.7249C60.339 42.3363 43.0691 61.0436 35.3123 70.3973C24.7747 83.4627 0.479756 58.6681 14.8226 45.8996Z" fill="#FFD591" stroke="black" stroke-width="2" stroke-miterlimit="10"/>
<path d="M50.6797 13.6813C51.5578 12.3451 55.2167 12.1966 55.5094 14.7206C57.8511 13.8298 60.1928 12.7905 60.6318 16.6508C63.2662 17.3931 65.6079 18.5809 64.7298 22.1442C67.9496 21.6988 69.8522 27.1922 66.7788 32.0917C66.7788 32.0917 58.7292 32.5372 53.6068 32.5372C53.3141 26.8953 51.5578 19.1748 50.6797 13.6813Z" fill="#7BB856"/>
<path d="M50.6797 13.6813C51.5578 12.3451 55.2167 12.1966 55.5094 14.7206C57.8511 13.8298 60.1928 12.7905 60.6318 16.6508C63.2662 17.3931 65.6079 18.5809 64.7298 22.1442C67.9496 21.6988 69.8522 27.1922 66.7788 32.0917" stroke="black" stroke-miterlimit="10"/>
<path d="M52.875 9.07874C45.4108 15.0176 61.8026 31.7948 47.7525 48.2751C33.7024 64.7554 18.4815 43.2271 11.8955 51.5414" stroke="black" stroke-miterlimit="10"/>
<path d="M29.458 53.7685C29.6044 61.0436 35.8976 68.6156 30.6288 72.9213" stroke="black" stroke-miterlimit="10"/>
<path d="M73.219 27.9346C69.4138 34.1703 61.657 31.9433 53.6074 32.5372" stroke="black" stroke-miterlimit="10"/>
<path d="M60.2132 16.1225C60.2403 14.3188 58.9518 12.8363 57.3354 12.8113C55.719 12.7863 54.3866 14.2283 54.3596 16.0321C54.3325 17.8359 55.6209 19.3184 57.2374 19.3434C58.8538 19.3683 60.1861 17.9263 60.2132 16.1225Z" fill="#F05E5E" stroke="black" stroke-miterlimit="10"/>
<path d="M63.4132 31.9433C63.4132 30.3101 62.2424 28.8254 60.7788 28.8254C59.3152 28.8254 57.998 30.1616 57.998 31.7948" fill="#F05E5E"/>
<path d="M63.4132 31.9433C63.4132 30.3101 62.2424 28.8254 60.7788 28.8254C59.3152 28.8254 57.998 30.1616 57.998 31.7948" stroke="black" stroke-miterlimit="10"/>
<path opacity="0.2" d="M10.4326 54.8078C14.8233 61.489 20.9702 67.4279 27.9952 66.0916C35.0203 64.7554 51.5584 45.3057 55.6564 41.5939C59.7543 37.8821 63.4132 32.5372 63.4132 32.5372C63.4132 32.5372 70.1455 33.131 73.5117 28.5284C64.7304 38.476 56.8272 46.345 52.5829 50.9476C48.3386 55.5502 35.4594 71.1396 32.3859 73.0698C29.3124 74.9999 21.4093 74.8514 16.4332 68.6156C11.4571 62.3798 10.4326 54.8078 10.4326 54.8078Z" fill="black"/>
<path d="M55.0715 64.7554L52.2907 70.2488L46.4365 63.7161L55.0715 64.7554Z" fill="black"/>
<path d="M18.775 36.1005C13.6526 28.38 11.75 21.8473 14.238 19.1748C18.4823 14.5722 33.4106 21.8473 47.607 35.5066C61.8035 49.1659 69.853 63.7161 65.6087 68.3187C63.4134 70.6942 58.4373 69.8034 51.9977 66.6855" stroke="black" stroke-miterlimit="10"/>
<path d="M74.2247 55.9906C74.2247 56.8875 74.7162 57.6563 75.4533 57.6563C76.1905 57.6563 76.9277 56.7594 76.9277 54.7094C76.9277 53.3 76.4362 51.8906 75.6991 51.25H76.9277C77.542 51.7625 78.1563 53.1719 78.1563 54.8375C78.1563 57.6563 76.8048 58.9375 75.4533 58.9375C74.5933 58.9375 73.8562 58.425 73.6104 57.6563C73.2419 58.425 72.6276 58.9375 71.7676 58.9375C70.539 58.9375 69.1875 57.7844 69.1875 54.9656C69.1875 53.3 69.8018 51.8906 70.4161 51.25H71.6447C71.0304 52.0188 70.4161 53.3 70.4161 54.8375C70.4161 56.8875 71.2761 57.6563 71.8904 57.6563C72.5047 57.6563 73.119 56.8875 73.119 55.9906V53.1719H74.3476L74.2247 55.9906Z" fill="black"/>
</g>
<defs>
<clipPath id="clip676876">
<rect width="73.0312" height="69.1875" fill="white" transform="translate(8.96875 6.40625)"/>
</clipPath>
</defs>
</svg>
