<svg width="96" height="96" viewBox="0 0 96 96" fill="none" xmlns="http://www.w3.org/2000/svg">
<rect width="96" height="96" rx="48" fill="#82D1FF"/>
<path opacity="0.2" d="M54.8 32H45.8C45.4 32 45 32.1 44.6 32.4L36.8 37.9C36.3 38.3 36 38.9 36 39.5V48.5C36 49.2 36.4 49.9 37.1 50.3C37.4 50.4 37.7 50.5 38 50.5C38.4 50.5 38.8 50.4 39.2 50.1L43.8 46.8V59.5H38C36.9 59.5 36 60.4 36 61.5V69C36 70.1 36.9 71 38 71H61C62.1 71 63 70.1 63 69V61.6C63 60.5 62.1 59.6 61 59.6H56.8V34C56.8 32.9 55.9 32 54.8 32Z" fill="black"/>
<path d="M54.8 28H45.8C45.4 28 45 28.1 44.6 28.4L36.8 33.9C36.3 34.3 36 34.9 36 35.5V44.5C36 45.2 36.4 45.9 37.1 46.3C37.4 46.4 37.7 46.5 38 46.5C38.4 46.5 38.8 46.4 39.2 46.1L43.8 42.8V55.5H38C36.9 55.5 36 56.4 36 57.5V65C36 66.1 36.9 67 38 67H61C62.1 67 63 66.1 63 65V57.6C63 56.5 62.1 55.6 61 55.6H56.8V30C56.8 28.9 55.9 28 54.8 28Z" fill="black"/>
<path d="M54.8 30V57.6H61V65H38V57.6H45.8V39L38 44.5V35.5L45.8 30H54.8Z" fill="white"/>
</svg>
