<svg width="96" height="96" viewBox="0 0 96 96" fill="none" xmlns="http://www.w3.org/2000/svg">
<rect width="96" height="96" rx="48" fill="#FF945E"/>
<path opacity="0.2" d="M48.2 31C45.7 31 43.4 31.3 41.5 32C39.5 32.7 37.8 33.7 36.5 35.1C35.1 36.4 34.1 38.1 33.4 40.1C32.8 42 32.4 44.1 32.4 46.4C32.4 47.5 33.3 48.4 34.4 48.4H43.4C44.5 48.4 45.4 47.5 45.4 46.4C45.4 44.5 45.8 43.6 46.1 43.2C46.2 43 46.7 42.5 48.1 42.5C48.8 42.5 49.2 42.6 49.5 42.9C49.6 43 49.9 43.3 49.9 44.2C49.9 44.6 49.8 45 49.7 45.4C49.5 45.8 49.2 46.3 48.8 46.9C48.4 47.5 47.8 48.1 47 48.8C46.2 49.5 45.3 50.3 44.2 51.2L32.7 60.7C32.3 61.1 32 61.7 32 62.3V68.7C32 69.8 32.9 70.7 34 70.7H61.5C62.6 70.7 63.5 69.8 63.5 68.7V61.3C63.5 60.2 62.6 59.3 61.5 59.3H52.5L53.8 58.3C55.1 57.3 56.2 56.3 57.3 55.3C58.4 54.2 59.4 53.1 60.2 52C61 50.8 61.7 49.6 62.2 48.3C62.7 47 63 45.6 63 44.1C63 42.2 62.7 40.5 62.1 38.9C61.5 37.2 60.5 35.8 59.2 34.6C57.9 33.4 56.4 32.5 54.5 31.9C52.7 31.3 50.6 31 48.2 31Z" fill="black"/>
<path d="M48.2 27C45.7 27 43.4 27.3 41.5 28C39.5 28.7 37.8 29.7 36.5 31.1C35.1 32.4 34.1 34.1 33.4 36.1C32.8 38 32.4 40.1 32.4 42.4C32.4 43.5 33.3 44.4 34.4 44.4H43.4C44.5 44.4 45.4 43.5 45.4 42.4C45.4 40.5 45.8 39.6 46.1 39.2C46.2 39 46.7 38.5 48.1 38.5C48.8 38.5 49.2 38.6 49.5 38.9C49.6 39 49.9 39.3 49.9 40.2C49.9 40.6 49.8 41 49.7 41.4C49.5 41.8 49.2 42.3 48.8 42.9C48.4 43.5 47.8 44.1 47 44.8C46.2 45.5 45.3 46.3 44.2 47.2L32.7 56.7C32.3 57.1 32 57.7 32 58.2V64.6C32 65.7 32.9 66.6 34 66.6H61.5C62.6 66.6 63.5 65.7 63.5 64.6V57.2C63.5 56.1 62.6 55.2 61.5 55.2H52.5L53.8 54.2C55.1 53.2 56.2 52.2 57.3 51.2C58.4 50.1 59.4 49 60.2 47.9C61 46.7 61.7 45.5 62.2 44.2C62.7 42.9 63 41.5 63 40C63 38.1 62.7 36.4 62.1 34.8C61.5 33.1 60.5 31.7 59.2 30.5C57.9 29.3 56.4 28.4 54.5 27.8C52.7 27.3 50.6 27 48.2 27Z" fill="black"/>
<path d="M48.2 29C50.4 29 52.2 29.3 53.8 29.8C55.4 30.3 56.7 31.1 57.8 32.1C58.9 33.1 59.7 34.3 60.2 35.6C60.7 37 61 38.5 61 40.1C61 41.3 60.8 42.4 60.4 43.6C60 44.7 59.4 45.8 58.6 46.8C57.8 47.8 57 48.8 55.9 49.8C54.9 50.8 53.7 51.7 52.5 52.6L46.4 57.2H61.4V64.6H34V58.2L45.6 48.6C46.7 47.7 47.7 46.8 48.5 46.1C49.3 45.4 50 44.6 50.5 44C51 43.3 51.4 42.7 51.6 42.1C51.8 41.5 52 40.8 52 40.2C52 39 51.7 38.1 51 37.5C50.4 36.9 49.4 36.5 48.2 36.5C46.6 36.5 45.4 37 44.6 38C43.8 39 43.4 40.5 43.4 42.5H34.4C34.4 40.4 34.7 38.5 35.3 36.8C35.9 35 36.8 33.6 37.9 32.5C39.1 31.4 40.5 30.5 42.2 29.9C43.9 29.3 46 29 48.2 29Z" fill="white"/>
</svg>
