<svg width="82" height="82" viewBox="0 0 82 82" fill="none" xmlns="http://www.w3.org/2000/svg">
<g clip-path="url(#clip090909)">
<path d="M71.4211 14.4502C71.269 11.2497 69.1386 8.35394 66.0953 7.4395C61.2259 5.91543 53.161 4.08655 42.3571 4.08655C28.9664 4.08655 19.9885 6.82987 16.0322 8.35394C14.5105 8.96356 13.4453 10.4876 13.2932 12.0117L11.7715 38.5305V56.3621C11.7715 58.8006 13.7497 60.9343 16.3365 60.9343V65.8113H16.6408C18.3147 65.8113 19.6842 66.8781 20.1407 68.5546L20.9015 71.7551C21.6624 74.6509 24.2492 76.6322 27.1404 76.6322H56.5087C59.3999 76.6322 61.9867 74.6509 62.7476 71.9076L63.8128 68.4022C64.2693 66.8781 65.6388 65.8113 67.3126 65.8113V60.9343H69.2908C71.4211 60.9343 73.095 59.2578 73.095 57.1241V38.5305L71.4211 14.4502Z" fill="#DCDCDC"/>
<path d="M13.4453 59.8674C14.2061 60.4771 15.1192 60.9343 16.3365 60.9343V65.8113H16.6408C18.3147 65.8113 19.6842 66.8781 20.1407 68.5546L20.9015 71.7552C21.6624 74.6509 24.2492 76.6322 27.1404 76.6322H56.5087C59.3999 76.6322 61.9867 74.6509 62.7476 71.9076L63.8127 68.4022C64.2692 66.8781 65.6388 65.8113 67.3126 65.8113V60.9343H69.2908C70.3559 60.9343 71.269 60.4771 71.8776 59.8674H13.4453Z" fill="#FF8D24"/>
<path d="M65.9434 45.4844L71.5736 18.7176L71.2692 14.6026C71.1171 11.4021 68.9867 8.50634 65.9434 7.5919C61.2262 5.91543 53.1613 4.08655 42.3574 4.08655C28.9667 4.08655 19.9888 6.82987 16.0324 8.35394C14.5108 8.96356 13.4456 10.4876 13.2934 12.0117L12.8369 18.7176L17.9375 45.4844H65.9434Z" fill="#A8B1BA"/>
<path d="M71.4211 14.4502C71.269 11.2497 69.1386 8.35394 66.0953 7.4395C61.2259 5.91543 53.161 4.08655 42.3571 4.08655C28.9664 4.08655 19.9885 6.82987 16.0322 8.35394C14.5105 8.96356 13.4453 10.4876 13.2932 12.0117L11.7715 38.5305V56.3621C11.7715 58.8006 13.7497 60.9343 16.3365 60.9343V65.8113H16.6408C18.3147 65.8113 19.6842 66.8781 20.1407 68.5546L20.9015 71.7552C21.6624 74.6509 24.2492 76.6322 27.1404 76.6322H56.5087C59.3999 76.6322 61.9867 74.6509 62.7476 71.9076L63.8128 68.4022C64.2693 66.8781 65.6388 65.8113 67.3126 65.8113V60.9343H69.2908C71.4211 60.9343 73.095 59.2578 73.095 57.1241V38.5305L71.4211 14.4502Z" stroke="black" stroke-width="2" stroke-miterlimit="10"/>
<path d="M65.1822 35.7871H19.3798C18.3146 35.7871 17.4016 34.8727 17.5538 33.8058L18.4668 16.2791C18.4668 15.3646 19.3798 14.4502 20.2928 14.4502H64.117C65.03 14.4502 65.943 15.2122 65.943 16.2791L66.856 33.8058C67.0082 34.8727 66.2473 35.7871 65.1822 35.7871Z" fill="#478FD9"/>
<path d="M66.2474 20.0892H18.4668L18.9233 14.4502H65.9431L66.2474 20.0892Z" fill="#1B2C3D"/>
<path d="M18.3145 20.0892H66.2472" stroke="black" stroke-miterlimit="10"/>
<path d="M42.2051 20.0892V35.7871" stroke="black" stroke-miterlimit="10"/>
<path d="M18.3144 42.0359H25.7706C26.2271 42.0359 26.6836 42.4931 26.6836 42.9503V44.9316C26.6836 45.3888 26.2271 45.8461 25.7706 45.8461H18.3144C17.8579 45.8461 17.4014 45.3888 17.4014 44.9316V42.9503C17.4014 42.4931 17.8579 42.0359 18.3144 42.0359Z" fill="white" stroke="black" stroke-miterlimit="10"/>
<path d="M58.6396 42.0359H66.0958C66.5523 42.0359 67.0088 42.4931 67.0088 42.9503V44.9316C67.0088 45.3888 66.5523 45.8461 66.0958 45.8461H58.6396C58.1831 45.8461 57.7266 45.3888 57.7266 44.9316V42.9503C57.7266 42.4931 58.0309 42.0359 58.6396 42.0359Z" fill="white" stroke="black" stroke-miterlimit="10"/>
<path d="M14.5107 60.1722H34.5969" stroke="black" stroke-miterlimit="10"/>
<path d="M49.2051 60.1722H70.8129" stroke="black" stroke-miterlimit="10"/>
<path d="M42.2055 11.402C43.3821 11.402 44.3359 10.4467 44.3359 9.26834C44.3359 8.08993 43.3821 7.13464 42.2055 7.13464C41.029 7.13464 40.0752 8.08993 40.0752 9.26834C40.0752 10.4467 41.029 11.402 42.2055 11.402Z" fill="white" stroke="black" stroke-miterlimit="10"/>
<path d="M65.1822 35.7871H19.3798C18.3146 35.7871 17.4016 34.8727 17.5538 33.8058L18.4668 16.2791C18.4668 15.3646 19.3798 14.4502 20.2928 14.4502H64.117C65.03 14.4502 65.943 15.2122 65.943 16.2791L66.856 33.8058C67.0082 34.8727 66.2473 35.7871 65.1822 35.7871Z" stroke="black" stroke-miterlimit="10"/>
<rect opacity="0.2" x="16.4102" y="59.5676" width="50.5108" height="3.71773" fill="black"/>
<rect opacity="0.2" x="34.8896" y="58.3284" width="13.5517" height="11.1532" rx="2" fill="black"/>
<path d="M47.2266 66.1162H36.2705C35.3575 66.1162 34.5967 65.3541 34.5967 64.4397V56.667C34.5967 55.7525 35.3575 54.9905 36.2705 54.9905H47.2266C48.1396 54.9905 48.9004 55.7525 48.9004 56.667V64.4397C48.7483 65.3541 47.9874 66.1162 47.2266 66.1162Z" fill="#465462" stroke="black" stroke-miterlimit="10"/>
</g>
<defs>
<clipPath id="clip090909">
<rect width="64.0625" height="75.5938" fill="white" transform="translate(10.25 2.5625)"/>
</clipPath>
</defs>
</svg>
