<svg width="27" height="28" viewBox="0 0 27 28" fill="none" xmlns="http://www.w3.org/2000/svg">
<path d="M13.4718 6.87384C9.59358 6.87384 6.5318 9.93562 6.5318 13.8139C6.5318 17.6921 9.59358 20.7539 13.4718 20.7539C17.3501 20.7539 20.4119 17.6921 20.4119 13.8139C20.4119 9.93562 17.146 6.87384 13.4718 6.87384ZM13.4718 18.3045C11.0224 18.3045 8.98122 16.2633 8.98122 13.8139C8.98122 11.3645 11.0224 9.32327 13.4718 9.32327C15.9213 9.32327 17.9625 11.3645 17.9625 13.8139C17.9625 16.2633 15.9213 18.3045 13.4718 18.3045Z" fill="#252F3C"/>
<path d="M20.616 8.30267C21.5178 8.30267 22.2489 7.57158 22.2489 6.66972C22.2489 5.76787 21.5178 5.03677 20.616 5.03677C19.7141 5.03677 18.983 5.76787 18.983 6.66972C18.983 7.57158 19.7141 8.30267 20.616 8.30267Z" fill="#252F3C"/>
<path d="M24.6984 2.58735C23.8819 1.77087 23.2695 1.36263 22.2489 0.954397C21.4325 0.54616 20.4119 0.342041 18.983 0.342041C17.5542 0.342041 17.146 0.342041 13.4718 0.342041C9.7977 0.342041 9.38946 0.342041 7.96063 0.342041C6.5318 0.342041 5.5112 0.54616 4.69473 0.954397C3.87825 1.36263 3.06178 1.77087 2.24531 2.58735C1.42883 3.40382 1.02059 4.01618 0.612355 5.03677C0.204117 5.85325 0 6.87384 0 8.30267C0 9.7315 0 10.1397 0 13.8139C0 17.488 0 17.8963 0 19.3251C0 20.7539 0.204117 21.7745 0.612355 22.591C1.02059 23.4075 1.42883 24.2239 2.24531 25.0404C3.06178 25.8569 3.67414 26.2651 4.69473 26.6734C5.5112 27.0816 6.5318 27.2857 7.96063 27.2857C9.38946 27.2857 9.7977 27.2857 13.4718 27.2857C17.146 27.2857 17.5542 27.2857 18.983 27.2857C20.4119 27.2857 21.4325 27.0816 22.2489 26.6734C23.0654 26.2651 23.8819 25.8569 24.6984 25.0404C25.5148 24.2239 25.9231 23.6116 26.3313 22.591C26.7396 21.7745 26.9437 20.7539 26.9437 19.3251C26.9437 17.8963 26.9437 17.488 26.9437 13.8139C26.9437 10.1397 26.9437 9.7315 26.9437 8.30267C26.9437 6.87384 26.7396 5.85325 26.3313 5.03677C25.719 4.01618 25.3107 3.40382 24.6984 2.58735ZM24.2901 19.121C24.2901 20.3457 24.086 21.1622 23.8819 21.5704C23.6778 22.1827 23.2695 22.591 22.8613 23.2033C22.4531 23.6116 22.0448 24.0198 21.2283 24.2239C20.8201 24.4281 20.0036 24.6322 18.7789 24.6322C17.3501 24.6322 16.9419 24.6322 13.2677 24.6322C9.59358 24.6322 9.18534 24.6322 7.75651 24.6322C6.5318 24.6322 5.71533 24.4281 5.30709 24.2239C4.69473 24.0198 4.28649 23.6116 3.67414 23.2033C3.2659 22.7951 2.85766 22.3869 2.65354 21.5704C2.44942 21.1622 2.24531 20.3457 2.24531 19.121C2.24531 17.6921 2.24531 17.2839 2.24531 13.6098C2.24531 9.93562 2.24531 9.52738 2.24531 8.09855C2.24531 6.87384 2.44942 6.05737 2.65354 5.64913C2.85766 5.03677 3.2659 4.62853 3.67414 4.01618C4.08237 3.60794 4.49061 3.1997 5.30709 2.99558C5.71533 2.79147 6.5318 2.58735 7.75651 2.58735C9.18534 2.58735 9.59358 2.58735 13.2677 2.58735C16.9419 2.58735 17.3501 2.58735 18.7789 2.58735C20.0036 2.58735 20.8201 2.79147 21.2283 2.99558C21.8407 3.1997 22.2489 3.60794 22.8613 4.01618C23.2695 4.42442 23.6778 4.83265 23.8819 5.64913C24.086 6.05737 24.2901 6.87384 24.2901 8.09855C24.2901 9.52738 24.2901 9.93562 24.2901 13.6098C24.4942 17.2839 24.4942 17.6921 24.2901 19.121Z" fill="#252F3C"/>
</svg>
