<svg width="18" height="17" viewBox="0 0 18 17" fill="none" xmlns="http://www.w3.org/2000/svg">
<path d="M9.01318 4.17743C6.66257 4.17743 4.80682 6.03317 4.80682 8.38379C4.80682 10.7344 6.66257 12.5901 9.01318 12.5901C11.3638 12.5901 13.2195 10.7344 13.2195 8.38379C13.2195 6.03317 11.2401 4.17743 9.01318 4.17743ZM9.01318 11.1055C7.52858 11.1055 6.29142 9.86838 6.29142 8.38379C6.29142 6.89919 7.52858 5.66203 9.01318 5.66203C10.4978 5.66203 11.7349 6.89919 11.7349 8.38379C11.7349 9.86838 10.4978 11.1055 9.01318 11.1055Z" fill="white"/>
<path d="M13.3433 5.04344C13.8899 5.04344 14.333 4.60033 14.333 4.05371C14.333 3.5071 13.8899 3.06398 13.3433 3.06398C12.7966 3.06398 12.3535 3.5071 12.3535 4.05371C12.3535 4.60033 12.7966 5.04344 13.3433 5.04344Z" fill="white"/>
<path d="M15.8176 1.57939C15.3227 1.08452 14.9516 0.837088 14.333 0.589655C13.8381 0.342222 13.2195 0.218506 12.3535 0.218506C11.4875 0.218506 11.2401 0.218506 9.01318 0.218506C6.78629 0.218506 6.53885 0.218506 5.67284 0.218506C4.80682 0.218506 4.18824 0.342222 3.69338 0.589655C3.19851 0.837088 2.70365 1.08452 2.20878 1.57939C1.71392 2.07425 1.46648 2.4454 1.21905 3.06398C0.971616 3.55885 0.8479 4.17743 0.8479 5.04344C0.8479 5.90946 0.8479 6.15689 0.8479 8.38379C0.8479 10.6107 0.8479 10.8581 0.8479 11.7241C0.8479 12.5901 0.971616 13.2087 1.21905 13.7036C1.46648 14.1985 1.71392 14.6933 2.20878 15.1882C2.70365 15.6831 3.07479 15.9305 3.69338 16.1779C4.18824 16.4253 4.80682 16.5491 5.67284 16.5491C6.53885 16.5491 6.78629 16.5491 9.01318 16.5491C11.2401 16.5491 11.4875 16.5491 12.3535 16.5491C13.2195 16.5491 13.8381 16.4253 14.333 16.1779C14.8278 15.9305 15.3227 15.6831 15.8176 15.1882C16.3124 14.6933 16.5599 14.3222 16.8073 13.7036C17.0547 13.2087 17.1785 12.5901 17.1785 11.7241C17.1785 10.8581 17.1785 10.6107 17.1785 8.38379C17.1785 6.15689 17.1785 5.90946 17.1785 5.04344C17.1785 4.17743 17.0547 3.55885 16.8073 3.06398C16.4362 2.4454 16.1887 2.07425 15.8176 1.57939ZM15.5701 11.6004C15.5701 12.3427 15.4464 12.8376 15.3227 13.085C15.199 13.4562 14.9516 13.7036 14.7041 14.0747C14.4567 14.3222 14.2093 14.5696 13.7144 14.6933C13.467 14.817 12.9721 14.9408 12.2298 14.9408C11.3638 14.9408 11.1164 14.9408 8.88946 14.9408C6.66257 14.9408 6.41514 14.9408 5.54912 14.9408C4.80682 14.9408 4.31196 14.817 4.06453 14.6933C3.69338 14.5696 3.44594 14.3222 3.07479 14.0747C2.82736 13.8273 2.57993 13.5799 2.45621 13.085C2.3325 12.8376 2.20878 12.3427 2.20878 11.6004C2.20878 10.7344 2.20878 10.487 2.20878 8.26007C2.20878 6.03317 2.20878 5.78574 2.20878 4.91973C2.20878 4.17743 2.3325 3.68256 2.45621 3.43513C2.57993 3.06398 2.82736 2.81655 3.07479 2.4454C3.32223 2.19797 3.56966 1.95053 4.06453 1.82682C4.31196 1.7031 4.80682 1.57939 5.54912 1.57939C6.41514 1.57939 6.66257 1.57939 8.88946 1.57939C11.1164 1.57939 11.3638 1.57939 12.2298 1.57939C12.9721 1.57939 13.467 1.7031 13.7144 1.82682C14.0856 1.95053 14.333 2.19797 14.7041 2.4454C14.9516 2.69283 15.199 2.94027 15.3227 3.43513C15.4464 3.68256 15.5701 4.17743 15.5701 4.91973C15.5701 5.78574 15.5701 6.03317 15.5701 8.26007C15.6939 10.487 15.6939 10.7344 15.5701 11.6004Z" fill="white"/>
</svg>
