<svg width="27" height="28" viewBox="0 0 27 28" fill="none" xmlns="http://www.w3.org/2000/svg">
<path d="M23.0135 23.2999H19.0211V17.0477C19.0211 15.5568 18.9945 13.6376 16.9447 13.6376C14.8654 13.6376 14.5472 15.2619 14.5472 16.9391V23.2994H10.5549V10.4424H14.3875V12.1995H14.4412C14.8247 11.5437 15.379 11.0042 16.0449 10.6384C16.7108 10.2727 17.4635 10.0944 18.2227 10.1226C22.2691 10.1226 23.0152 12.7842 23.0152 16.2467L23.0135 23.2999ZM6.05017 8.68497C5.59195 8.68505 5.14398 8.54925 4.76294 8.29475C4.3819 8.04024 4.0849 7.67846 3.90947 7.25515C3.73404 6.83184 3.68807 6.36601 3.77738 5.91658C3.86669 5.46715 4.08728 5.05429 4.41124 4.73023C4.73519 4.40616 5.14797 4.18543 5.59737 4.09595C6.04677 4.00648 6.5126 4.05227 6.93597 4.22755C7.35935 4.40283 7.72123 4.69971 7.97587 5.08066C8.23052 5.46162 8.36648 5.90952 8.36656 6.36775C8.36662 6.67199 8.30674 6.97327 8.19036 7.25438C8.07398 7.53549 7.90339 7.79092 7.68829 8.0061C7.47319 8.22127 7.2178 8.39197 6.93673 8.50845C6.65567 8.62493 6.35442 8.68491 6.05017 8.68497ZM8.04634 23.2999H4.04984V10.4424H8.04634V23.2999ZM25.0038 0.343877H2.04369C1.52256 0.337996 1.02039 0.53925 0.647572 0.903415C0.274751 1.26758 0.06178 1.76486 0.0554199 2.28599V25.3414C0.0615624 25.8628 0.274409 26.3604 0.647217 26.7249C1.02002 27.0895 1.52231 27.2911 2.04369 27.2856H25.0038C25.5263 27.2921 26.0299 27.091 26.4042 26.7265C26.7785 26.362 26.9928 25.8638 27 25.3414V2.28432C26.9925 1.76216 26.7781 1.26432 26.4038 0.900161C26.0295 0.536005 25.526 0.335326 25.0038 0.342213" fill="#252F3C"/>
</svg>
