<svg width="150" height="33" viewBox="0 0 150 33" fill="none" xmlns="http://www.w3.org/2000/svg">
<g clip-path="url(#clip0)">
<path fill-rule="evenodd" clip-rule="evenodd" d="M32 25.4338H27.2V4.88379H4.8V25.4338H0V27.3338H3.6L1.35 30.4338L2.2 31.0338L4.85 27.3338H7.15L4.9 30.4338L5.75 31.0338L8.45 27.3338H10.7L8.45 30.4338L9.3 31.0338L12 27.3338H14.25L12 30.4338L12.85 31.0338L15.55 27.3338H17.8L15.6 30.4338L16.4 31.0338L19.1 27.3338H21.4L19.15 30.4338L20 31.0338L22.65 27.3338H24.95L22.7 30.4338L23.55 31.0338L26.2 27.3338H28.5L26.25 30.4338L27.1 31.0338L29.8 27.3338H32V25.4338ZM25.35 6.78381H6.69995V25.4338H25.35V6.78381ZM21.2 10.5837L21.25 21.4837H19.25V21.4337L19.2 13.0837L18.75 14.3837L17 18.6337H15.05L13.25 14.3837L12.75 13.1337L12.8 21.4837L10.8 21.5337L10.75 10.5837H13.65L16.05 16.2837L18.35 10.5837H21.2Z" fill="white"/>
</g>
<g clip-path="url(#clip1)">
<path fill-rule="evenodd" clip-rule="evenodd" d="M130.6 23.5839C128.8 23.5839 127.5 23.1839 126.65 22.3839C125.8 21.5839 125.3 20.3339 125.2 18.6339H127.8C127.85 19.6339 128.1 20.2839 128.55 20.6839C129 21.0839 129.65 21.2839 130.6 21.2839C131.6 21.2839 132.3 21.0839 132.75 20.7339C133.2 20.3839 133.45 19.9339 133.45 19.3839C133.45 18.8339 133.25 18.4339 132.85 18.1839C132.45 17.8839 131.95 17.6839 131.35 17.4839C130.75 17.2839 130.1 17.1339 129.4 16.9839C128.7 16.8339 128.05 16.5839 127.45 16.2839C126.85 15.9839 126.35 15.5839 125.95 15.0839C125.55 14.5839 125.35 13.8839 125.35 13.0339C125.35 12.4839 125.45 11.9339 125.65 11.4339C125.85 10.9339 126.2 10.5339 126.6 10.1839C127.05 9.83394 127.55 9.53394 128.2 9.33394C128.85 9.13394 129.6 9.03394 130.5 9.03394C132.25 9.03394 133.5 9.38394 134.35 10.1339C135.15 10.8839 135.6 12.0339 135.7 13.5839H133.1C133.05 12.7839 132.8 12.1839 132.4 11.8339C132 11.4839 131.35 11.2839 130.5 11.3339C129.6 11.3339 128.95 11.4839 128.5 11.8339C128.1 12.1839 127.9 12.5839 127.9 13.0339C127.9 13.5339 128.1 13.9339 128.5 14.1839C128.9 14.4339 129.4 14.6839 130 14.8339C130.6 15.0339 131.25 15.1839 131.95 15.3339C132.65 15.4839 133.3 15.7339 133.9 16.0339C134.5 16.3339 135 16.7339 135.4 17.2839C135.8 17.8339 136 18.5339 136 19.4339C136 20.0339 135.9 20.5839 135.7 21.1339C135.5 21.6839 135.15 22.0839 134.7 22.4339C134.25 22.7839 133.7 23.0839 133 23.2839C132.3 23.4839 131.5 23.5839 130.6 23.5839ZM116.9 9.18396H114.05L109 23.434H111.55L112.7 19.834H118.1L119.3 23.434H122L116.9 9.18396ZM116.4 14.584L117.45 17.684H113.45L114.5 14.584L115.45 11.634L116.4 14.584ZM80.7496 11.434H85.1496V23.484H87.5996L87.5496 11.384H91.9496V9.23401L80.7496 9.28401V11.434ZM63.0995 9.33398H60.6495L60.6995 23.584H63.1495L63.0995 9.33398ZM45.2496 9.38391H41.5996L41.6496 23.5839H44.0996L44.0496 12.0839L44.8996 14.2339L47.1996 19.8839H49.6496L51.9496 14.2839L52.7996 12.0839L52.8496 23.6339H55.2996L55.2496 9.38391H51.6496L48.4996 17.0839L45.2496 9.38391ZM68.4496 9.33398H73.3496C75.2496 9.33398 76.6496 9.73398 77.5496 10.534C78.4496 11.334 78.8496 12.484 78.8496 14.034C78.8496 15.434 78.3996 16.584 77.4496 17.434C76.5496 18.284 75.1496 18.734 73.3496 18.734H70.8996V23.584H68.4496V9.33398ZM70.8996 11.484V16.584H73.3496C74.3496 16.584 75.0496 16.334 75.5496 15.884C76.0496 15.434 76.2996 14.784 76.2996 14.034C76.2996 13.234 76.0496 12.584 75.5996 12.134C75.1496 11.684 74.3996 11.484 73.3496 11.484H70.8996ZM95.4496 9.23401H100.25C101.2 9.23401 102 9.33401 102.65 9.48401C103.3 9.68401 103.85 9.88401 104.25 10.234C104.65 10.534 104.95 10.984 105.15 11.434C105.35 11.934 105.45 12.484 105.45 13.084C105.45 13.684 105.3 14.284 105 14.784C104.7 15.284 104.25 15.734 103.6 16.084C104.35 16.384 104.95 16.834 105.3 17.434C105.65 18.034 105.85 18.684 105.85 19.384C105.85 20.034 105.75 20.634 105.55 21.134C105.35 21.634 105.05 22.084 104.65 22.434C104.25 22.784 103.7 23.034 103.05 23.234C102.4 23.434 101.6 23.484 100.65 23.484H95.4496V9.23401ZM97.8996 11.334V15.184H100.25C101.25 15.184 101.9 15.034 102.3 14.684C102.7 14.334 102.9 13.884 102.9 13.234C102.9 12.634 102.7 12.134 102.3 11.834C101.9 11.484 101.25 11.334 100.25 11.334H97.8996ZM97.8996 17.184V21.434H100.65C101.65 21.434 102.3 21.234 102.7 20.934C103.1 20.584 103.3 20.034 103.3 19.334C103.3 18.634 103.1 18.084 102.7 17.734C102.3 17.384 101.65 17.234 100.65 17.234L97.8996 17.184ZM149.8 9.13391H140.65V23.3839H149.8V21.2339H143.1V17.1339H148.6V14.9839H143.1V11.2839H149.8V9.13391Z" fill="white"/>
<path d="M125.2 18.6339V18.535H125.095L125.101 18.6397L125.2 18.6339ZM127.8 18.6339L127.898 18.629L127.894 18.535H127.8V18.6339ZM132.85 18.1839L132.79 18.2634L132.797 18.2679L132.85 18.1839ZM126.6 10.1839L126.539 10.1057L126.534 10.1094L126.6 10.1839ZM128.2 9.33394L128.17 9.23934L128.2 9.33394ZM134.35 10.1339L134.417 10.0617L134.415 10.0597L134.35 10.1339ZM135.7 13.5839V13.6829H135.805L135.798 13.5776L135.7 13.5839ZM133.1 13.5839L133.001 13.5901L133.007 13.6829H133.1V13.5839ZM130.5 11.3339V11.4331L130.505 11.4327L130.5 11.3339ZM128.5 11.8339L128.439 11.7557L128.434 11.7594L128.5 11.8339ZM130 14.8339L130.031 14.7398L130.024 14.7379L130 14.8339ZM114.05 9.18396V9.08498H113.98L113.956 9.1509L114.05 9.18396ZM116.9 9.18396L116.993 9.15061L116.969 9.08498H116.9V9.18396ZM109 23.434L108.906 23.4009L108.86 23.5329H109V23.434ZM111.55 23.434V23.5329H111.622L111.644 23.4641L111.55 23.434ZM112.7 19.834V19.735H112.627L112.605 19.8038L112.7 19.834ZM118.1 19.834L118.194 19.8027L118.171 19.735H118.1V19.834ZM119.3 23.434L119.206 23.4653L119.228 23.5329H119.3V23.434ZM122 23.434V23.5329H122.14L122.093 23.4006L122 23.434ZM117.45 17.684V17.7829H117.588L117.543 17.6522L117.45 17.684ZM116.4 14.584L116.305 14.6143L116.306 14.6157L116.4 14.584ZM113.45 17.684L113.356 17.6522L113.312 17.7829H113.45V17.684ZM114.5 14.584L114.593 14.6157L114.594 14.6143L114.5 14.584ZM115.45 11.634L115.544 11.6036L115.45 11.3111L115.355 11.6036L115.45 11.634ZM85.1496 11.434H85.2486V11.335H85.1496V11.434ZM80.7496 11.434H80.6507V11.533H80.7496V11.434ZM85.1496 23.484H85.0507V23.583H85.1496V23.484ZM87.5996 23.484V23.583H87.699L87.6986 23.4836L87.5996 23.484ZM87.5496 11.384V11.285H87.4502L87.4507 11.3844L87.5496 11.384ZM91.9496 11.384V11.483H92.0486V11.384H91.9496ZM91.9496 9.23401H92.0486V9.13459L91.9492 9.13503L91.9496 9.23401ZM80.7496 9.28401L80.7492 9.18503L80.6507 9.18547V9.28401H80.7496ZM60.6495 9.33398V9.23501H60.5502L60.5506 9.33433L60.6495 9.33398ZM63.0995 9.33398L63.1985 9.33364L63.1982 9.23501H63.0995V9.33398ZM60.6995 23.584L60.6006 23.5843L60.6009 23.683H60.6995V23.584ZM63.1495 23.584V23.683H63.2489L63.2485 23.5836L63.1495 23.584ZM41.5996 9.38391V9.28494H41.5003L41.5006 9.38426L41.5996 9.38391ZM45.2496 9.38391L45.3408 9.34542L45.3153 9.28494H45.2496V9.38391ZM41.6496 23.5839L41.5506 23.5843L41.551 23.6829H41.6496V23.5839ZM44.0996 23.5839V23.6829H44.199L44.1986 23.5835L44.0996 23.5839ZM44.0496 12.0839L44.1417 12.0475L43.9483 11.5586L43.9506 12.0843L44.0496 12.0839ZM44.8996 14.2339L44.8076 14.2703L44.8079 14.2712L44.8996 14.2339ZM47.1996 19.8839L47.1079 19.9212L47.133 19.9829H47.1996V19.8839ZM49.6496 19.8839V19.9829H49.716L49.7412 19.9215L49.6496 19.8839ZM51.9496 14.2839L52.0412 14.3215L52.0419 14.3196L51.9496 14.2839ZM52.7996 12.0839L52.8986 12.0835L52.8963 11.559L52.7073 12.0482L52.7996 12.0839ZM52.8496 23.6339L52.7506 23.6343L52.7511 23.7329H52.8496V23.6339ZM55.2996 23.6339V23.7329H55.3989L55.3986 23.6336L55.2996 23.6339ZM55.2496 9.38391L55.3486 9.38356L55.3482 9.28494H55.2496V9.38391ZM51.6496 9.38391V9.28494H51.5832L51.558 9.34644L51.6496 9.38391ZM48.4996 17.0839L48.4084 17.1224L48.501 17.3418L48.5912 17.1214L48.4996 17.0839ZM68.4496 9.33398V9.23501H68.3506V9.33398H68.4496ZM77.5496 10.534L77.4838 10.608L77.5496 10.534ZM77.4496 17.434L77.3836 17.3602L77.3816 17.362L77.4496 17.434ZM70.8996 18.734V18.635H70.8006V18.734H70.8996ZM70.8996 23.584V23.683H70.9986V23.584H70.8996ZM68.4496 23.584H68.3506V23.683H68.4496V23.584ZM70.8996 16.584H70.8006V16.683H70.8996V16.584ZM70.8996 11.484V11.385H70.8006V11.484H70.8996ZM95.4496 9.23401V9.13503H95.3506V9.23401H95.4496ZM102.65 9.48401L102.679 9.38917L102.672 9.38757L102.65 9.48401ZM104.25 10.234L104.184 10.3087L104.19 10.3132L104.25 10.234ZM105.15 11.434L105.242 11.3972L105.24 11.3938L105.15 11.434ZM103.6 16.084L103.553 15.9969L103.366 16.0973L103.563 16.1759L103.6 16.084ZM105.3 17.434L105.385 17.3841L105.3 17.434ZM95.4496 23.484H95.3506V23.583H95.4496V23.484ZM97.8996 15.184H97.8006V15.283H97.8996V15.184ZM97.8996 11.334V11.235H97.8006V11.334H97.8996ZM102.3 11.834L102.234 11.9087L102.24 11.9132L102.3 11.834ZM97.8996 21.434H97.8006V21.533H97.8996V21.434ZM97.8996 17.184L97.9014 17.0851L97.8006 17.0832V17.184H97.8996ZM102.7 20.934L102.759 21.0134L102.765 21.0085L102.7 20.934ZM100.65 17.234L100.648 17.333H100.65V17.234ZM140.65 9.13391V9.03494H140.551V9.13391H140.65ZM149.8 9.13391H149.899V9.03494H149.8V9.13391ZM140.65 23.3839H140.551V23.4829H140.65V23.3839ZM149.8 23.3839V23.4829H149.899V23.3839H149.8ZM149.8 21.2339H149.899V21.1349H149.8V21.2339ZM143.1 21.2339H143.001V21.3329H143.1V21.2339ZM143.1 17.1339V17.0349H143.001V17.1339H143.1ZM148.6 17.1339V17.2329H148.699V17.1339H148.6ZM148.6 14.9839H148.699V14.8849H148.6V14.9839ZM143.1 14.9839H143.001V15.0829H143.1V14.9839ZM143.1 11.2839V11.1849H143.001V11.2839H143.1ZM149.8 11.2839V11.3829H149.899V11.2839H149.8ZM126.582 22.456C127.458 23.2804 128.787 23.6829 130.6 23.6829V23.485C128.812 23.485 127.541 23.0875 126.717 22.3119L126.582 22.456ZM125.101 18.6397C125.202 20.355 125.707 21.6329 126.582 22.456L126.717 22.3119C125.892 21.535 125.397 20.3129 125.298 18.6281L125.101 18.6397ZM127.8 18.535H125.2V18.7329H127.8V18.535ZM128.615 20.61C128.194 20.2354 127.948 19.6171 127.898 18.629L127.701 18.6389C127.751 19.6508 128.005 20.3325 128.484 20.7579L128.615 20.61ZM130.6 21.185C129.662 21.185 129.04 20.9875 128.615 20.61L128.484 20.7579C128.959 21.1804 129.637 21.3829 130.6 21.3829V21.185ZM132.689 20.6558C132.263 20.9867 131.589 21.185 130.6 21.185V21.3829C131.61 21.3829 132.336 21.1812 132.81 20.8121L132.689 20.6558ZM133.351 19.3839C133.351 19.899 133.118 20.3217 132.689 20.6558L132.81 20.8121C133.281 20.4462 133.549 19.9689 133.549 19.3839H133.351ZM132.797 18.2679C133.163 18.4965 133.351 18.8614 133.351 19.3839H133.549C133.549 18.8065 133.336 18.3714 132.902 18.1L132.797 18.2679ZM131.318 17.5778C131.917 17.7775 132.404 17.9734 132.79 18.2631L132.909 18.1048C132.495 17.7945 131.982 17.5904 131.381 17.39L131.318 17.5778ZM129.379 17.0807C130.079 17.2307 130.724 17.3797 131.318 17.5778L131.381 17.39C130.775 17.1882 130.121 17.0372 129.42 16.8872L129.379 17.0807ZM127.405 16.3725C128.011 16.6754 128.669 16.9286 129.379 17.0807L129.42 16.8872C128.73 16.7392 128.088 16.4925 127.494 16.1954L127.405 16.3725ZM125.872 15.1458C126.282 15.6575 126.793 16.0664 127.405 16.3725L127.494 16.1954C126.906 15.9015 126.418 15.5104 126.027 15.0221L125.872 15.1458ZM125.251 13.0339C125.251 13.8982 125.454 14.6227 125.872 15.1458L126.027 15.0221C125.645 14.5451 125.449 13.8696 125.449 13.0339H125.251ZM125.558 11.3972C125.353 11.9096 125.251 12.4722 125.251 13.0339H125.449C125.449 12.4957 125.546 11.9582 125.741 11.4707L125.558 11.3972ZM126.534 10.1094C126.128 10.4647 125.766 10.8769 125.558 11.3972L125.741 11.4707C125.933 10.991 126.271 10.6032 126.665 10.2584L126.534 10.1094ZM128.17 9.23934C127.506 9.44365 126.996 9.7503 126.539 10.1058L126.66 10.2621C127.103 9.91757 127.593 9.62422 128.229 9.42853L128.17 9.23934ZM130.5 8.93496C129.592 8.93496 128.832 9.03574 128.17 9.23934L128.229 9.42853C128.867 9.23213 129.607 9.13291 130.5 9.13291V8.93496ZM134.415 10.0597C133.539 9.28677 132.26 8.93496 130.5 8.93496V9.13291C132.239 9.13291 133.46 9.4811 134.284 10.2082L134.415 10.0597ZM135.798 13.5776C135.697 12.0129 135.242 10.835 134.417 10.0617L134.282 10.2061C135.057 10.9329 135.502 12.0549 135.601 13.5903L135.798 13.5776ZM133.1 13.6829H135.7V13.485H133.1V13.6829ZM132.334 11.9084C132.707 12.2348 132.952 12.8051 133.001 13.5901L133.198 13.5778C133.147 12.7627 132.892 12.1331 132.465 11.7594L132.334 11.9084ZM130.505 11.4327C131.339 11.3837 131.96 11.5809 132.334 11.9084L132.465 11.7594C132.039 11.387 131.36 11.1842 130.494 11.2351L130.505 11.4327ZM128.56 11.9121C128.984 11.5823 129.607 11.4329 130.5 11.4329V11.235C129.592 11.235 128.915 11.3856 128.439 11.7558L128.56 11.9121ZM127.999 13.0339C127.999 12.6177 128.182 12.2434 128.565 11.9084L128.434 11.7594C128.017 12.1245 127.801 12.5502 127.801 13.0339H127.999ZM128.552 14.1C128.185 13.8704 127.999 13.5044 127.999 13.0339H127.801C127.801 13.5635 128.015 13.9975 128.447 14.2679L128.552 14.1ZM130.024 14.7379C129.436 14.5911 128.946 14.3461 128.552 14.1L128.447 14.2679C128.853 14.5218 129.363 14.7768 129.976 14.93L130.024 14.7379ZM131.97 15.2372C131.271 15.0872 130.625 14.9382 130.031 14.74L129.968 14.9278C130.574 15.1297 131.229 15.2807 131.929 15.4307L131.97 15.2372ZM133.944 15.9454C133.338 15.6425 132.68 15.3892 131.97 15.2372L131.929 15.4307C132.619 15.5786 133.261 15.8254 133.855 16.1225L133.944 15.9454ZM135.48 17.2257C135.069 16.6615 134.556 16.2517 133.944 15.9454L133.855 16.1225C134.443 16.4162 134.93 16.8064 135.32 17.3421L135.48 17.2257ZM136.099 19.4339C136.099 18.519 135.895 17.7969 135.48 17.2257L135.32 17.3421C135.704 17.8709 135.901 18.5488 135.901 19.4339H136.099ZM135.793 21.1678C135.996 20.6071 136.099 20.0457 136.099 19.4339H135.901C135.901 20.0222 135.803 20.5608 135.607 21.1001L135.793 21.1678ZM134.76 22.5121C135.22 22.1544 135.584 21.7403 135.793 21.1678L135.607 21.1001C135.415 21.6276 135.079 22.0135 134.639 22.3558L134.76 22.5121ZM133.027 23.3791C133.739 23.1755 134.301 22.8696 134.76 22.5121L134.639 22.3558C134.199 22.6983 133.66 22.9924 132.972 23.1888L133.027 23.3791ZM130.6 23.6829C131.507 23.6829 132.316 23.5821 133.027 23.3791L132.972 23.1888C132.283 23.3857 131.492 23.485 130.6 23.485V23.6829ZM114.05 9.28293H116.9V9.08498H114.05V9.28293ZM109.093 23.467L114.143 9.21702L113.956 9.1509L108.906 23.4009L109.093 23.467ZM111.55 23.335H109V23.5329H111.55V23.335ZM112.605 19.8038L111.455 23.4038L111.644 23.4641L112.794 19.8641L112.605 19.8038ZM118.1 19.735H112.7V19.9329H118.1V19.735ZM119.394 23.4027L118.194 19.8027L118.006 19.8653L119.206 23.4653L119.394 23.4027ZM122 23.335H119.3V23.5329H122V23.335ZM116.806 9.21731L121.906 23.4673L122.093 23.4006L116.993 9.15061L116.806 9.21731ZM117.543 17.6522L116.493 14.5522L116.306 14.6157L117.356 17.7157L117.543 17.6522ZM113.45 17.7829H117.45V17.585H113.45V17.7829ZM114.406 14.5522L113.356 17.6522L113.543 17.7157L114.593 14.6157L114.406 14.5522ZM115.355 11.6036L114.405 14.5536L114.594 14.6143L115.544 11.6643L115.355 11.6036ZM116.494 14.5536L115.544 11.6036L115.355 11.6643L116.305 14.6143L116.494 14.5536ZM85.1496 11.335H80.7496V11.533H85.1496V11.335ZM85.2486 23.484V11.434H85.0507V23.484H85.2486ZM87.5996 23.385H85.1496V23.583H87.5996V23.385ZM87.4507 11.3844L87.5007 23.4844L87.6986 23.4836L87.6486 11.3836L87.4507 11.3844ZM91.9496 11.285H87.5496V11.483H91.9496V11.285ZM91.8507 9.23401V11.384H92.0486V9.23401H91.8507ZM80.7501 9.38298L91.9501 9.33298L91.9492 9.13503L80.7492 9.18503L80.7501 9.38298ZM80.8486 11.434V9.28401H80.6507V11.434H80.8486ZM60.6495 9.43296H63.0995V9.23501H60.6495V9.43296ZM60.7985 23.5836L60.7485 9.33364L60.5506 9.33433L60.6006 23.5843L60.7985 23.5836ZM63.1495 23.485H60.6995V23.683H63.1495V23.485ZM63.0006 9.33433L63.0506 23.5843L63.2485 23.5836L63.1985 9.33364L63.0006 9.33433ZM41.5996 9.48289H45.2496V9.28494H41.5996V9.48289ZM41.7486 23.5836L41.6986 9.38356L41.5006 9.38426L41.5506 23.5843L41.7486 23.5836ZM44.0996 23.4849H41.6496V23.6829H44.0996V23.4849ZM43.9506 12.0843L44.0006 23.5843L44.1986 23.5835L44.1486 12.0835L43.9506 12.0843ZM44.9917 14.1975L44.1417 12.0475L43.9576 12.1203L44.8076 14.2703L44.9917 14.1975ZM47.2913 19.8466L44.9913 14.1966L44.8079 14.2712L47.1079 19.9212L47.2913 19.8466ZM49.6496 19.7849H47.1996V19.9829H49.6496V19.7849ZM51.8581 14.2463L49.5581 19.8463L49.7412 19.9215L52.0412 14.3215L51.8581 14.2463ZM52.7073 12.0482L51.8573 14.2482L52.0419 14.3196L52.8919 12.1196L52.7073 12.0482ZM52.9486 23.6335L52.8986 12.0835L52.7006 12.0843L52.7506 23.6343L52.9486 23.6335ZM55.2996 23.5349H52.8496V23.7329H55.2996V23.5349ZM55.1506 9.38426L55.2006 23.6343L55.3986 23.6336L55.3486 9.38356L55.1506 9.38426ZM51.6496 9.48289H55.2496V9.28494H51.6496V9.48289ZM48.5912 17.1214L51.7412 9.42139L51.558 9.34644L48.408 17.0464L48.5912 17.1214ZM45.1584 9.4224L48.4084 17.1224L48.5908 17.0454L45.3408 9.34542L45.1584 9.4224ZM73.3496 9.23501H68.4496V9.43296H73.3496V9.23501ZM77.6153 10.46C76.6893 9.63683 75.2605 9.23501 73.3496 9.23501V9.43296C75.2387 9.43296 76.6099 9.83114 77.4838 10.608L77.6153 10.46ZM78.9486 14.034C78.9486 12.4669 78.5436 11.2851 77.6153 10.46L77.4838 10.608C78.3556 11.3829 78.7506 12.5011 78.7506 14.034H78.9486ZM77.5156 17.5077C78.4901 16.6358 78.9486 15.457 78.9486 14.034H78.7506C78.7506 15.411 78.3091 16.5322 77.3836 17.3602L77.5156 17.5077ZM73.3496 18.833C75.164 18.833 76.5926 18.3795 77.5175 17.5059L77.3816 17.362C76.5066 18.1884 75.1352 18.635 73.3496 18.635V18.833ZM70.8996 18.833H73.3496V18.635H70.8996V18.833ZM70.9986 23.584V18.734H70.8006V23.584H70.9986ZM68.4496 23.683H70.8996V23.485H68.4496V23.683ZM68.3506 9.33398V23.584H68.5486V9.33398H68.3506ZM70.9986 16.584V11.484H70.8006V16.584H70.9986ZM73.3496 16.485H70.8996V16.683H73.3496V16.485ZM75.4834 15.8104C75.0064 16.2397 74.3326 16.485 73.3496 16.485V16.683C74.3665 16.683 75.0927 16.4283 75.6158 15.9576L75.4834 15.8104ZM76.2006 14.034C76.2006 14.7617 75.9586 15.3827 75.4834 15.8104L75.6158 15.9576C76.1406 15.4852 76.3986 14.8062 76.3986 14.034H76.2006ZM75.5296 12.204C75.9576 12.6319 76.2006 13.2549 76.2006 14.034H76.3986C76.3986 13.2131 76.1416 12.536 75.6696 12.064L75.5296 12.204ZM73.3496 11.583C74.3923 11.583 75.1083 11.7826 75.5296 12.204L75.6696 12.064C75.1909 11.5853 74.4069 11.385 73.3496 11.385V11.583ZM70.8996 11.583H73.3496V11.385H70.8996V11.583ZM100.25 9.13503H95.4496V9.33298H100.25V9.13503ZM102.672 9.38757C102.014 9.23575 101.206 9.13503 100.25 9.13503V9.33298C101.193 9.33298 101.985 9.43226 102.627 9.58045L102.672 9.38757ZM104.315 10.1595C103.897 9.79393 103.327 9.58904 102.679 9.38941L102.62 9.57861C103.272 9.77898 103.802 9.97409 104.184 10.3085L104.315 10.1595ZM105.24 11.3938C105.036 10.9343 104.727 10.4683 104.309 10.1548L104.19 10.3132C104.572 10.5998 104.863 11.0337 105.059 11.4742L105.24 11.3938ZM105.549 13.084C105.549 12.4729 105.447 11.9102 105.241 11.3973L105.058 11.4708C105.253 11.9578 105.351 12.4952 105.351 13.084H105.549ZM105.084 14.8349C105.395 14.3178 105.549 13.6998 105.549 13.084H105.351C105.351 13.6682 105.204 14.2502 104.915 14.7331L105.084 14.8349ZM103.647 16.1712C104.312 15.813 104.775 15.3507 105.084 14.8349L104.915 14.7331C104.624 15.2173 104.188 15.655 103.553 15.9969L103.647 16.1712ZM105.385 17.3841C105.021 16.7598 104.4 16.2977 103.636 15.9921L103.563 16.1759C104.299 16.4704 104.878 16.9083 105.214 17.4839L105.385 17.3841ZM105.949 19.384C105.949 18.6643 105.743 17.9972 105.385 17.3841L105.214 17.4839C105.556 18.0708 105.751 18.7038 105.751 19.384H105.949ZM105.641 21.1708C105.847 20.6565 105.949 20.0435 105.949 19.384H105.751C105.751 20.0245 105.652 20.6115 105.458 21.0972L105.641 21.1708ZM104.715 22.5085C105.128 22.1469 105.436 21.6833 105.641 21.1708L105.458 21.0972C105.263 21.5847 104.971 22.0211 104.584 22.3595L104.715 22.5085ZM103.079 23.3286C103.734 23.1269 104.299 22.8719 104.715 22.5085L104.584 22.3595C104.2 22.6961 103.665 22.9411 103.02 23.1394L103.079 23.3286ZM100.65 23.583C101.601 23.583 102.413 23.5333 103.079 23.3286L103.02 23.1394C102.386 23.3347 101.599 23.385 100.65 23.385V23.583ZM95.4496 23.583H100.65V23.385H95.4496V23.583ZM95.3506 9.23401V23.484H95.5486V9.23401H95.3506ZM97.9986 15.184V11.334H97.8006V15.184H97.9986ZM100.25 15.085H97.8996V15.283H100.25V15.085ZM102.234 14.6095C101.863 14.9342 101.246 15.085 100.25 15.085V15.283C101.253 15.283 101.936 15.1338 102.365 14.7585L102.234 14.6095ZM102.801 13.234C102.801 13.8596 102.61 14.2809 102.234 14.6095L102.365 14.7585C102.789 14.3872 102.999 13.9085 102.999 13.234H102.801ZM102.24 11.9132C102.608 12.1891 102.801 12.6549 102.801 13.234H102.999C102.999 12.6131 102.791 12.0789 102.359 11.7548L102.24 11.9132ZM100.25 11.433C101.246 11.433 101.863 11.5838 102.234 11.9085L102.365 11.7595C101.936 11.3842 101.253 11.235 100.25 11.235V11.433ZM97.8996 11.433H100.25V11.235H97.8996V11.433ZM97.9986 21.434V17.184H97.8006V21.434H97.9986ZM100.65 21.335H97.8996V21.533H100.65V21.335ZM102.64 20.8548C102.264 21.1369 101.639 21.335 100.65 21.335V21.533C101.661 21.533 102.335 21.3311 102.759 21.0132L102.64 20.8548ZM103.201 19.334C103.201 20.0163 103.006 20.5345 102.634 20.8595L102.765 21.0085C103.193 20.6336 103.399 20.0517 103.399 19.334H103.201ZM102.634 17.8085C103.006 18.1336 103.201 18.6517 103.201 19.334H103.399C103.399 18.6163 103.193 18.0345 102.765 17.6595L102.634 17.8085ZM100.65 17.333C101.646 17.333 102.263 17.4838 102.634 17.8085L102.765 17.6595C102.336 17.2842 101.653 17.135 100.65 17.135V17.333ZM97.8978 17.283L100.648 17.333L100.651 17.135L97.9014 17.0851L97.8978 17.283ZM140.65 9.23289H149.8V9.03494H140.65V9.23289ZM140.749 23.3839V9.13391H140.551V23.3839H140.749ZM149.8 23.2849H140.65V23.4829H149.8V23.2849ZM149.701 21.2339V23.3839H149.899V21.2339H149.701ZM143.1 21.3329H149.8V21.1349H143.1V21.3329ZM143.001 17.1339V21.2339H143.199V17.1339H143.001ZM148.6 17.0349H143.1V17.2329H148.6V17.0349ZM148.501 14.9839V17.1339H148.699V14.9839H148.501ZM143.1 15.0829H148.6V14.8849H143.1V15.0829ZM143.001 11.2839V14.9839H143.199V11.2839H143.001ZM149.8 11.1849H143.1V11.3829H149.8V11.1849ZM149.701 9.13391V11.2839H149.899V9.13391H149.701Z" fill="black"/>
</g>
<defs>
<clipPath id="clip0">
<rect width="32" height="26.15" fill="white" transform="translate(0 4.88379)"/>
</clipPath>
<clipPath id="clip1">
<rect width="108.4" height="14.85" fill="white" transform="translate(41.5 8.88379)"/>
</clipPath>
</defs>
</svg>
