<svg width="150" height="32" viewBox="0 0 150 32" fill="none" xmlns="http://www.w3.org/2000/svg">
<g clip-path="url(#clip0)">
<path fill-rule="evenodd" clip-rule="evenodd" d="M32 25.0498H27.2V4.49976H4.8V25.0498H0V26.9498H3.6L1.35 30.0498L2.2 30.6498L4.85 26.9498H7.15L4.9 30.0498L5.75 30.6498L8.45 26.9498H10.7L8.45 30.0498L9.3 30.6498L12 26.9498H14.25L12 30.0498L12.85 30.6498L15.55 26.9498H17.8L15.6 30.0498L16.4 30.6498L19.1 26.9498H21.4L19.15 30.0498L20 30.6498L22.65 26.9498H24.95L22.7 30.0498L23.55 30.6498L26.2 26.9498H28.5L26.25 30.0498L27.1 30.6498L29.8 26.9498H32V25.0498ZM25.35 6.39978H6.69995V25.0498H25.35V6.39978ZM21.2 10.1997L21.25 21.0997H19.25V21.0497L19.2 12.6997L18.75 13.9997L17 18.2497H15.05L13.25 13.9997L12.75 12.7497L12.8 21.0997L10.8 21.1497L10.75 10.1997H13.65L16.05 15.8997L18.35 10.1997H21.2Z" fill="black"/>
</g>
<g clip-path="url(#clip1)">
<path fill-rule="evenodd" clip-rule="evenodd" d="M130.6 23.1997C128.8 23.1997 127.5 22.7997 126.65 21.9997C125.8 21.1997 125.3 19.9497 125.2 18.2497H127.8C127.85 19.2497 128.1 19.8997 128.55 20.2997C129 20.6997 129.65 20.8997 130.6 20.8997C131.6 20.8997 132.3 20.6997 132.75 20.3497C133.2 19.9997 133.45 19.5497 133.45 18.9997C133.45 18.4497 133.25 18.0497 132.85 17.7997C132.45 17.4997 131.95 17.2997 131.35 17.0997C130.75 16.8997 130.1 16.7497 129.4 16.5997C128.7 16.4497 128.05 16.1997 127.45 15.8997C126.85 15.5997 126.35 15.1997 125.95 14.6997C125.55 14.1997 125.35 13.4997 125.35 12.6497C125.35 12.0997 125.45 11.5497 125.65 11.0497C125.85 10.5497 126.2 10.1497 126.6 9.79966C127.05 9.44966 127.55 9.14966 128.2 8.94966C128.85 8.74966 129.6 8.64966 130.5 8.64966C132.25 8.64966 133.5 8.99966 134.35 9.74966C135.15 10.4997 135.6 11.6497 135.7 13.1997H133.1C133.05 12.3997 132.8 11.7997 132.4 11.4497C132 11.0997 131.35 10.8997 130.5 10.9497C129.6 10.9497 128.95 11.0997 128.5 11.4497C128.1 11.7997 127.9 12.1997 127.9 12.6497C127.9 13.1497 128.1 13.5497 128.5 13.7997C128.9 14.0497 129.4 14.2997 130 14.4497C130.6 14.6497 131.25 14.7997 131.95 14.9497C132.65 15.0997 133.3 15.3497 133.9 15.6497C134.5 15.9497 135 16.3497 135.4 16.8997C135.8 17.4497 136 18.1497 136 19.0497C136 19.6497 135.9 20.1997 135.7 20.7497C135.5 21.2997 135.15 21.6997 134.7 22.0497C134.25 22.3997 133.7 22.6997 133 22.8997C132.3 23.0997 131.5 23.1997 130.6 23.1997ZM116.9 8.79968H114.05L109 23.0497H111.55L112.7 19.4497H118.1L119.3 23.0497H122L116.9 8.79968ZM116.4 14.1997L117.45 17.2997H113.45L114.5 14.1997L115.45 11.2497L116.4 14.1997ZM80.7496 11.0496H85.1496V23.0996H87.5996L87.5496 10.9996H91.9496V8.84961L80.7496 8.89961V11.0496ZM63.0995 8.94971H60.6495L60.6995 23.1997H63.1495L63.0995 8.94971ZM45.2496 8.99963H41.5996L41.6496 23.1996H44.0996L44.0496 11.6996L44.8996 13.8496L47.1996 19.4996H49.6496L51.9496 13.8996L52.7996 11.6996L52.8496 23.2496H55.2996L55.2496 8.99963H51.6496L48.4996 16.6996L45.2496 8.99963ZM68.4496 8.94971H73.3496C75.2496 8.94971 76.6496 9.34971 77.5496 10.1497C78.4496 10.9497 78.8496 12.0997 78.8496 13.6497C78.8496 15.0497 78.3996 16.1997 77.4496 17.0497C76.5496 17.8997 75.1496 18.3497 73.3496 18.3497H70.8996V23.1997H68.4496V8.94971ZM70.8996 11.0997V16.1997H73.3496C74.3496 16.1997 75.0496 15.9497 75.5496 15.4997C76.0496 15.0497 76.2996 14.3997 76.2996 13.6497C76.2996 12.8497 76.0496 12.1997 75.5996 11.7497C75.1496 11.2997 74.3996 11.0997 73.3496 11.0997H70.8996ZM95.4496 8.84961H100.25C101.2 8.84961 102 8.94961 102.65 9.09961C103.3 9.29961 103.85 9.49961 104.25 9.84961C104.65 10.1496 104.95 10.5996 105.15 11.0496C105.35 11.5496 105.45 12.0996 105.45 12.6996C105.45 13.2996 105.3 13.8996 105 14.3996C104.7 14.8996 104.25 15.3496 103.6 15.6996C104.35 15.9996 104.95 16.4496 105.3 17.0496C105.65 17.6496 105.85 18.2996 105.85 18.9996C105.85 19.6496 105.75 20.2496 105.55 20.7496C105.35 21.2496 105.05 21.6996 104.65 22.0496C104.25 22.3996 103.7 22.6496 103.05 22.8496C102.4 23.0496 101.6 23.0996 100.65 23.0996H95.4496V8.84961ZM97.8996 10.9496V14.7996H100.25C101.25 14.7996 101.9 14.6496 102.3 14.2996C102.7 13.9496 102.9 13.4996 102.9 12.8496C102.9 12.2496 102.7 11.7496 102.3 11.4496C101.9 11.0996 101.25 10.9496 100.25 10.9496H97.8996ZM97.8996 16.7996V21.0496H100.65C101.65 21.0496 102.3 20.8496 102.7 20.5496C103.1 20.1996 103.3 19.6496 103.3 18.9496C103.3 18.2496 103.1 17.6996 102.7 17.3496C102.3 16.9996 101.65 16.8496 100.65 16.8496L97.8996 16.7996ZM149.8 8.74963H140.65V22.9996H149.8V20.8496H143.1V16.7496H148.6V14.5996H143.1V10.8996H149.8V8.74963Z" fill="black"/>
<path d="M125.2 18.2497V18.1507H125.095L125.101 18.2555L125.2 18.2497ZM127.8 18.2497L127.898 18.2447L127.894 18.1507H127.8V18.2497ZM132.85 17.7997L132.79 17.8791L132.797 17.8836L132.85 17.7997ZM126.6 9.79966L126.539 9.7214L126.534 9.72517L126.6 9.79966ZM128.2 8.94966L128.17 8.85506L128.2 8.94966ZM134.35 9.74966L134.417 9.67742L134.415 9.67544L134.35 9.74966ZM135.7 13.1997V13.2986H135.805L135.798 13.1933L135.7 13.1997ZM133.1 13.1997L133.001 13.2058L133.007 13.2986H133.1V13.1997ZM130.5 10.9497V11.0488L130.505 11.0485L130.5 10.9497ZM128.5 11.4497L128.439 11.3714L128.434 11.3752L128.5 11.4497ZM130 14.4497L130.031 14.3555L130.024 14.3536L130 14.4497ZM114.05 8.79968V8.70071H113.98L113.956 8.76662L114.05 8.79968ZM116.9 8.79968L116.993 8.76633L116.969 8.70071H116.9V8.79968ZM109 23.0497L108.906 23.0166L108.86 23.1487H109V23.0497ZM111.55 23.0497V23.1487H111.622L111.644 23.0798L111.55 23.0497ZM112.7 19.4497V19.3507H112.627L112.605 19.4196L112.7 19.4497ZM118.1 19.4497L118.194 19.4184L118.171 19.3507H118.1V19.4497ZM119.3 23.0497L119.206 23.081L119.228 23.1487H119.3V23.0497ZM122 23.0497V23.1487H122.14L122.093 23.0163L122 23.0497ZM117.45 17.2997V17.3987H117.588L117.543 17.2679L117.45 17.2997ZM116.4 14.1997L116.305 14.23L116.306 14.2314L116.4 14.1997ZM113.45 17.2997L113.356 17.2679L113.312 17.3987H113.45V17.2997ZM114.5 14.1997L114.593 14.2314L114.594 14.23L114.5 14.1997ZM115.45 11.2497L115.544 11.2193L115.45 10.9268L115.355 11.2193L115.45 11.2497ZM85.1496 11.0496H85.2486V10.9506H85.1496V11.0496ZM80.7496 11.0496H80.6507V11.1486H80.7496V11.0496ZM85.1496 23.0996H85.0507V23.1986H85.1496V23.0996ZM87.5996 23.0996V23.1986H87.699L87.6986 23.0992L87.5996 23.0996ZM87.5496 10.9996V10.9006H87.4502L87.4507 11L87.5496 10.9996ZM91.9496 10.9996V11.0986H92.0486V10.9996H91.9496ZM91.9496 8.84961H92.0486V8.75019L91.9492 8.75064L91.9496 8.84961ZM80.7496 8.89961L80.7492 8.80064L80.6507 8.80108V8.89961H80.7496ZM60.6495 8.94971V8.85073H60.5502L60.5506 8.95005L60.6495 8.94971ZM63.0995 8.94971L63.1985 8.94936L63.1982 8.85073H63.0995V8.94971ZM60.6995 23.1997L60.6006 23.2001L60.6009 23.2987H60.6995V23.1997ZM63.1495 23.1997V23.2987H63.2489L63.2485 23.1994L63.1495 23.1997ZM41.5996 8.99963V8.90066H41.5003L41.5006 8.99998L41.5996 8.99963ZM45.2496 8.99963L45.3408 8.96115L45.3153 8.90066H45.2496V8.99963ZM41.6496 23.1996L41.5506 23.2L41.551 23.2986H41.6496V23.1996ZM44.0996 23.1996V23.2986H44.199L44.1986 23.1992L44.0996 23.1996ZM44.0496 11.6996L44.1417 11.6632L43.9483 11.1743L43.9506 11.7001L44.0496 11.6996ZM44.8996 13.8496L44.8076 13.886L44.8079 13.887L44.8996 13.8496ZM47.1996 19.4996L47.1079 19.537L47.133 19.5986H47.1996V19.4996ZM49.6496 19.4996V19.5986H49.716L49.7412 19.5372L49.6496 19.4996ZM51.9496 13.8996L52.0412 13.9372L52.0419 13.9353L51.9496 13.8996ZM52.7996 11.6996L52.8986 11.6992L52.8963 11.1747L52.7073 11.664L52.7996 11.6996ZM52.8496 23.2496L52.7506 23.2501L52.7511 23.3486H52.8496V23.2496ZM55.2996 23.2496V23.3486H55.3989L55.3986 23.2493L55.2996 23.2496ZM55.2496 8.99963L55.3486 8.99929L55.3482 8.90066H55.2496V8.99963ZM51.6496 8.99963V8.90066H51.5832L51.558 8.96216L51.6496 8.99963ZM48.4996 16.6996L48.4084 16.7381L48.501 16.9575L48.5912 16.7371L48.4996 16.6996ZM68.4496 8.94971V8.85073H68.3506V8.94971H68.4496ZM77.5496 10.1497L77.4838 10.2237L77.5496 10.1497ZM77.4496 17.0497L77.3836 16.9759L77.3816 16.9778L77.4496 17.0497ZM70.8996 18.3497V18.2507H70.8006V18.3497H70.8996ZM70.8996 23.1997V23.2987H70.9986V23.1997H70.8996ZM68.4496 23.1997H68.3506V23.2987H68.4496V23.1997ZM70.8996 16.1997H70.8006V16.2987H70.8996V16.1997ZM70.8996 11.0997V11.0007H70.8006V11.0997H70.8996ZM95.4496 8.84961V8.75063H95.3506V8.84961H95.4496ZM102.65 9.09961L102.679 9.00477L102.672 9.00317L102.65 9.09961ZM104.25 9.84961L104.184 9.92431L104.19 9.92879L104.25 9.84961ZM105.15 11.0496L105.242 11.0128L105.24 11.0094L105.15 11.0496ZM103.6 15.6996L103.553 15.6125L103.366 15.7129L103.563 15.7915L103.6 15.6996ZM105.3 17.0496L105.385 16.9997L105.3 17.0496ZM95.4496 23.0996H95.3506V23.1986H95.4496V23.0996ZM97.8996 14.7996H97.8006V14.8986H97.8996V14.7996ZM97.8996 10.9496V10.8506H97.8006V10.9496H97.8996ZM102.3 11.4496L102.234 11.5243L102.24 11.5288L102.3 11.4496ZM97.8996 21.0496H97.8006V21.1486H97.8996V21.0496ZM97.8996 16.7996L97.9014 16.7007L97.8006 16.6988V16.7996H97.8996ZM102.7 20.5496L102.759 20.629L102.765 20.6241L102.7 20.5496ZM100.65 16.8496L100.648 16.9486H100.65V16.8496ZM140.65 8.74963V8.65066H140.551V8.74963H140.65ZM149.8 8.74963H149.899V8.65066H149.8V8.74963ZM140.65 22.9996H140.551V23.0986H140.65V22.9996ZM149.8 22.9996V23.0986H149.899V22.9996H149.8ZM149.8 20.8496H149.899V20.7507H149.8V20.8496ZM143.1 20.8496H143.001V20.9486H143.1V20.8496ZM143.1 16.7496V16.6507H143.001V16.7496H143.1ZM148.6 16.7496V16.8486H148.699V16.7496H148.6ZM148.6 14.5996H148.699V14.5007H148.6V14.5996ZM143.1 14.5996H143.001V14.6986H143.1V14.5996ZM143.1 10.8996V10.8007H143.001V10.8996H143.1ZM149.8 10.8996V10.9986H149.899V10.8996H149.8ZM126.582 22.0717C127.458 22.8961 128.787 23.2986 130.6 23.2986V23.1007C128.812 23.1007 127.541 22.7032 126.717 21.9276L126.582 22.0717ZM125.101 18.2555C125.202 19.9707 125.707 21.2486 126.582 22.0717L126.717 21.9276C125.892 21.1507 125.397 19.9286 125.298 18.2438L125.101 18.2555ZM127.8 18.1507H125.2V18.3486H127.8V18.1507ZM128.615 20.2257C128.194 19.8511 127.948 19.2328 127.898 18.2447L127.701 18.2546C127.751 19.2665 128.005 19.9482 128.484 20.3736L128.615 20.2257ZM130.6 20.8007C129.662 20.8007 129.04 20.6032 128.615 20.2257L128.484 20.3736C128.959 20.7961 129.637 20.9986 130.6 20.9986V20.8007ZM132.689 20.2715C132.263 20.6024 131.589 20.8007 130.6 20.8007V20.9986C131.61 20.9986 132.336 20.7969 132.81 20.4278L132.689 20.2715ZM133.351 18.9997C133.351 19.5147 133.118 19.9374 132.689 20.2715L132.81 20.4278C133.281 20.0619 133.549 19.5846 133.549 18.9997H133.351ZM132.797 17.8836C133.163 18.1122 133.351 18.4771 133.351 18.9997H133.549C133.549 18.4222 133.336 17.9871 132.902 17.7157L132.797 17.8836ZM131.318 17.1936C131.917 17.3932 132.404 17.5891 132.79 17.8788L132.909 17.7205C132.495 17.4102 131.982 17.2061 131.381 17.0058L131.318 17.1936ZM129.379 16.6964C130.079 16.8464 130.724 16.9954 131.318 17.1936L131.381 17.0058C130.775 16.8039 130.121 16.6529 129.42 16.5029L129.379 16.6964ZM127.405 15.9882C128.011 16.2911 128.669 16.5443 129.379 16.6964L129.42 16.5029C128.73 16.355 128.088 16.1082 127.494 15.8111L127.405 15.9882ZM125.872 14.7615C126.282 15.2732 126.793 15.6821 127.405 15.9882L127.494 15.8111C126.906 15.5172 126.418 15.1261 126.027 14.6378L125.872 14.7615ZM125.251 12.6497C125.251 13.514 125.454 14.2385 125.872 14.7615L126.027 14.6378C125.645 14.1608 125.449 13.4854 125.449 12.6497H125.251ZM125.558 11.0129C125.353 11.5254 125.251 12.0879 125.251 12.6497H125.449C125.449 12.1114 125.546 11.574 125.741 11.0864L125.558 11.0129ZM126.534 9.72517C126.128 10.0804 125.766 10.4926 125.558 11.0129L125.741 11.0864C125.933 10.6067 126.271 10.2189 126.665 9.87414L126.534 9.72517ZM128.17 8.85506C127.506 9.05938 126.996 9.36602 126.539 9.72153L126.66 9.87778C127.103 9.5333 127.593 9.23994 128.229 9.04426L128.17 8.85506ZM130.5 8.55068C129.592 8.55068 128.832 8.65147 128.17 8.85506L128.229 9.04426C128.867 8.84785 129.607 8.74863 130.5 8.74863V8.55068ZM134.415 9.67544C133.539 8.90249 132.26 8.55068 130.5 8.55068V8.74863C132.239 8.74863 133.46 9.09683 134.284 9.82387L134.415 9.67544ZM135.798 13.1933C135.697 11.6286 135.242 10.4507 134.417 9.67745L134.282 9.82186C135.057 10.5486 135.502 11.6707 135.601 13.206L135.798 13.1933ZM133.1 13.2986H135.7V13.1007H133.1V13.2986ZM132.334 11.5241C132.707 11.8505 132.952 12.4208 133.001 13.2058L133.198 13.1935C133.147 12.3785 132.892 11.7488 132.465 11.3752L132.334 11.5241ZM130.505 11.0485C131.339 10.9994 131.96 11.1966 132.334 11.5241L132.465 11.3752C132.039 11.0027 131.36 10.7999 130.494 10.8509L130.505 11.0485ZM128.56 11.5278C128.984 11.198 129.607 11.0486 130.5 11.0486V10.8507C129.592 10.8507 128.915 11.0013 128.439 11.3715L128.56 11.5278ZM127.999 12.6497C127.999 12.2334 128.182 11.8591 128.565 11.5241L128.434 11.3752C128.017 11.7402 127.801 12.1659 127.801 12.6497H127.999ZM128.552 13.7157C128.185 13.4861 127.999 13.1201 127.999 12.6497H127.801C127.801 13.1792 128.015 13.6132 128.447 13.8836L128.552 13.7157ZM130.024 14.3536C129.436 14.2068 128.946 13.9618 128.552 13.7157L128.447 13.8836C128.853 14.1375 129.363 14.3925 129.976 14.5457L130.024 14.3536ZM131.97 14.8529C131.271 14.7029 130.625 14.5539 130.031 14.3558L129.968 14.5436C130.574 14.7454 131.229 14.8964 131.929 15.0464L131.97 14.8529ZM133.944 15.5611C133.338 15.2582 132.68 15.005 131.97 14.8529L131.929 15.0464C132.619 15.1943 133.261 15.4411 133.855 15.7382L133.944 15.5611ZM135.48 16.8414C135.069 16.2772 134.556 15.8674 133.944 15.5611L133.855 15.7382C134.443 16.0319 134.93 16.4221 135.32 16.9579L135.48 16.8414ZM136.099 19.0497C136.099 18.1347 135.895 17.4126 135.48 16.8414L135.32 16.9579C135.704 17.4867 135.901 18.1646 135.901 19.0497H136.099ZM135.793 20.7835C135.996 20.2228 136.099 19.6614 136.099 19.0497H135.901C135.901 19.6379 135.803 20.1765 135.607 20.7158L135.793 20.7835ZM134.76 22.1278C135.22 21.7701 135.584 21.356 135.793 20.7835L135.607 20.7158C135.415 21.2433 135.079 21.6292 134.639 21.9715L134.76 22.1278ZM133.027 22.9948C133.739 22.7912 134.301 22.4853 134.76 22.1278L134.639 21.9715C134.199 22.314 133.66 22.6081 132.972 22.8045L133.027 22.9948ZM130.6 23.2986C131.507 23.2986 132.316 23.1979 133.027 22.9948L132.972 22.8045C132.283 23.0015 131.492 23.1007 130.6 23.1007V23.2986ZM114.05 8.89866H116.9V8.70071H114.05V8.89866ZM109.093 23.0827L114.143 8.83274L113.956 8.76662L108.906 23.0166L109.093 23.0827ZM111.55 22.9507H109V23.1487H111.55V22.9507ZM112.605 19.4196L111.455 23.0196L111.644 23.0798L112.794 19.4798L112.605 19.4196ZM118.1 19.3507H112.7V19.5487H118.1V19.3507ZM119.394 23.0184L118.194 19.4184L118.006 19.481L119.206 23.081L119.394 23.0184ZM122 22.9507H119.3V23.1487H122V22.9507ZM116.806 8.83303L121.906 23.083L122.093 23.0163L116.993 8.76633L116.806 8.83303ZM117.543 17.2679L116.493 14.1679L116.306 14.2314L117.356 17.3314L117.543 17.2679ZM113.45 17.3987H117.45V17.2007H113.45V17.3987ZM114.406 14.1679L113.356 17.2679L113.543 17.3314L114.593 14.2314L114.406 14.1679ZM115.355 11.2193L114.405 14.1693L114.594 14.23L115.544 11.28L115.355 11.2193ZM116.494 14.1693L115.544 11.2193L115.355 11.28L116.305 14.23L116.494 14.1693ZM85.1496 10.9506H80.7496V11.1486H85.1496V10.9506ZM85.2486 23.0996V11.0496H85.0507V23.0996H85.2486ZM87.5996 23.0006H85.1496V23.1986H87.5996V23.0006ZM87.4507 11L87.5007 23.1L87.6986 23.0992L87.6486 10.9992L87.4507 11ZM91.9496 10.9006H87.5496V11.0986H91.9496V10.9006ZM91.8507 8.84961V10.9996H92.0486V8.84961H91.8507ZM80.7501 8.99858L91.9501 8.94858L91.9492 8.75064L80.7492 8.80064L80.7501 8.99858ZM80.8486 11.0496V8.89961H80.6507V11.0496H80.8486ZM60.6495 9.04868H63.0995V8.85073H60.6495V9.04868ZM60.7985 23.1994L60.7485 8.94936L60.5506 8.95005L60.6006 23.2001L60.7985 23.1994ZM63.1495 23.1007H60.6995V23.2987H63.1495V23.1007ZM63.0006 8.95005L63.0506 23.2001L63.2485 23.1994L63.1985 8.94936L63.0006 8.95005ZM41.5996 9.09861H45.2496V8.90066H41.5996V9.09861ZM41.7486 23.1993L41.6986 8.99929L41.5006 8.99998L41.5506 23.2L41.7486 23.1993ZM44.0996 23.1007H41.6496V23.2986H44.0996V23.1007ZM43.9506 11.7001L44.0006 23.2001L44.1986 23.1992L44.1486 11.6992L43.9506 11.7001ZM44.9917 13.8132L44.1417 11.6632L43.9576 11.736L44.8076 13.886L44.9917 13.8132ZM47.2913 19.4623L44.9913 13.8123L44.8079 13.887L47.1079 19.537L47.2913 19.4623ZM49.6496 19.4007H47.1996V19.5986H49.6496V19.4007ZM51.8581 13.862L49.5581 19.462L49.7412 19.5372L52.0412 13.9372L51.8581 13.862ZM52.7073 11.664L51.8573 13.864L52.0419 13.9353L52.8919 11.7353L52.7073 11.664ZM52.9486 23.2492L52.8986 11.6992L52.7006 11.7001L52.7506 23.2501L52.9486 23.2492ZM55.2996 23.1507H52.8496V23.3486H55.2996V23.1507ZM55.1506 8.99998L55.2006 23.25L55.3986 23.2493L55.3486 8.99929L55.1506 8.99998ZM51.6496 9.09861H55.2496V8.90066H51.6496V9.09861ZM48.5912 16.7371L51.7412 9.03711L51.558 8.96216L48.408 16.6622L48.5912 16.7371ZM45.1584 9.03812L48.4084 16.7381L48.5908 16.6611L45.3408 8.96115L45.1584 9.03812ZM73.3496 8.85073H68.4496V9.04868H73.3496V8.85073ZM77.6153 10.0757C76.6893 9.25255 75.2605 8.85073 73.3496 8.85073V9.04868C75.2387 9.04868 76.6099 9.44686 77.4838 10.2237L77.6153 10.0757ZM78.9486 13.6497C78.9486 12.0826 78.5436 10.9008 77.6153 10.0757L77.4838 10.2237C78.3556 10.9986 78.7506 12.1168 78.7506 13.6497H78.9486ZM77.5156 17.1235C78.4901 16.2515 78.9486 15.0727 78.9486 13.6497H78.7506C78.7506 15.0267 78.3091 16.1479 77.3836 16.9759L77.5156 17.1235ZM73.3496 18.4487C75.164 18.4487 76.5926 17.9953 77.5175 17.1217L77.3816 16.9778C76.5066 17.8042 75.1352 18.2507 73.3496 18.2507V18.4487ZM70.8996 18.4487H73.3496V18.2507H70.8996V18.4487ZM70.9986 23.1997V18.3497H70.8006V23.1997H70.9986ZM68.4496 23.2987H70.8996V23.1007H68.4496V23.2987ZM68.3506 8.94971V23.1997H68.5486V8.94971H68.3506ZM70.9986 16.1997V11.0997H70.8006V16.1997H70.9986ZM73.3496 16.1007H70.8996V16.2987H73.3496V16.1007ZM75.4834 15.4261C75.0064 15.8554 74.3326 16.1007 73.3496 16.1007V16.2987C74.3665 16.2987 75.0927 16.044 75.6158 15.5733L75.4834 15.4261ZM76.2006 13.6497C76.2006 14.3774 75.9586 14.9985 75.4834 15.4261L75.6158 15.5733C76.1406 15.1009 76.3986 14.422 76.3986 13.6497H76.2006ZM75.5296 11.8197C75.9576 12.2476 76.2006 12.8706 76.2006 13.6497H76.3986C76.3986 12.8288 76.1416 12.1518 75.6696 11.6797L75.5296 11.8197ZM73.3496 11.1987C74.3923 11.1987 75.1083 11.3983 75.5296 11.8197L75.6696 11.6797C75.1909 11.2011 74.4069 11.0007 73.3496 11.0007V11.1987ZM70.8996 11.1987H73.3496V11.0007H70.8996V11.1987ZM100.25 8.75063H95.4496V8.94858H100.25V8.75063ZM102.672 9.00317C102.014 8.85135 101.206 8.75063 100.25 8.75063V8.94858C101.193 8.94858 101.985 9.04786 102.627 9.19605L102.672 9.00317ZM104.315 9.77512C103.897 9.40953 103.327 9.20464 102.679 9.00501L102.62 9.19421C103.272 9.39458 103.802 9.58969 104.184 9.9241L104.315 9.77512ZM105.24 11.0094C105.036 10.5499 104.727 10.0839 104.309 9.77043L104.19 9.92879C104.572 10.2154 104.863 10.6493 105.059 11.0898L105.24 11.0094ZM105.549 12.6996C105.549 12.0885 105.447 11.5258 105.241 11.0129L105.058 11.0864C105.253 11.5734 105.351 12.1108 105.351 12.6996H105.549ZM105.084 14.4505C105.395 13.9334 105.549 13.3154 105.549 12.6996H105.351C105.351 13.2838 105.204 13.8658 104.915 14.3487L105.084 14.4505ZM103.647 15.7868C104.312 15.4286 104.775 14.9663 105.084 14.4505L104.915 14.3487C104.624 14.8329 104.188 15.2706 103.553 15.6125L103.647 15.7868ZM105.385 16.9997C105.021 16.3754 104.4 15.9133 103.636 15.6077L103.563 15.7915C104.299 16.086 104.878 16.5239 105.214 17.0995L105.385 16.9997ZM105.949 18.9996C105.949 18.2799 105.743 17.6128 105.385 16.9997L105.214 17.0995C105.556 17.6864 105.751 18.3194 105.751 18.9996H105.949ZM105.641 20.7864C105.847 20.2721 105.949 19.6591 105.949 18.9996H105.751C105.751 19.6401 105.652 20.2271 105.458 20.7129L105.641 20.7864ZM104.715 22.1241C105.128 21.7625 105.436 21.2989 105.641 20.7864L105.458 20.7129C105.263 21.2003 104.971 21.6367 104.584 21.9751L104.715 22.1241ZM103.079 22.9442C103.734 22.7425 104.299 22.4875 104.715 22.1241L104.584 21.9751C104.2 22.3117 103.665 22.5567 103.02 22.755L103.079 22.9442ZM100.65 23.1986C101.601 23.1986 102.413 23.1489 103.079 22.9442L103.02 22.755C102.386 22.9503 101.599 23.0006 100.65 23.0006V23.1986ZM95.4496 23.1986H100.65V23.0006H95.4496V23.1986ZM95.3506 8.84961V23.0996H95.5486V8.84961H95.3506ZM97.9986 14.7996V10.9496H97.8006V14.7996H97.9986ZM100.25 14.7006H97.8996V14.8986H100.25V14.7006ZM102.234 14.2251C101.863 14.5498 101.246 14.7006 100.25 14.7006V14.8986C101.253 14.8986 101.936 14.7494 102.365 14.3741L102.234 14.2251ZM102.801 12.8496C102.801 13.4752 102.61 13.8965 102.234 14.2251L102.365 14.3741C102.789 14.0028 102.999 13.5241 102.999 12.8496H102.801ZM102.24 11.5288C102.608 11.8047 102.801 12.2705 102.801 12.8496H102.999C102.999 12.2287 102.791 11.6945 102.359 11.3704L102.24 11.5288ZM100.25 11.0486C101.246 11.0486 101.863 11.1994 102.234 11.5241L102.365 11.3751C101.936 10.9998 101.253 10.8506 100.25 10.8506V11.0486ZM97.8996 11.0486H100.25V10.8506H97.8996V11.0486ZM97.9986 21.0496V16.7996H97.8006V21.0496H97.9986ZM100.65 20.9506H97.8996V21.1486H100.65V20.9506ZM102.64 20.4704C102.264 20.7525 101.639 20.9506 100.65 20.9506V21.1486C101.661 21.1486 102.335 20.9467 102.759 20.6288L102.64 20.4704ZM103.201 18.9496C103.201 19.6319 103.006 20.1501 102.634 20.4751L102.765 20.6241C103.193 20.2492 103.399 19.6673 103.399 18.9496H103.201ZM102.634 17.4241C103.006 17.7492 103.201 18.2673 103.201 18.9496H103.399C103.399 18.2319 103.193 17.6501 102.765 17.2751L102.634 17.4241ZM100.65 16.9486C101.646 16.9486 102.263 17.0994 102.634 17.4241L102.765 17.2751C102.336 16.8998 101.653 16.7506 100.65 16.7506V16.9486ZM97.8978 16.8986L100.648 16.9486L100.651 16.7507L97.9014 16.7007L97.8978 16.8986ZM140.65 8.84861H149.8V8.65066H140.65V8.84861ZM140.749 22.9996V8.74963H140.551V22.9996H140.749ZM149.8 22.9007H140.65V23.0986H149.8V22.9007ZM149.701 20.8496V22.9996H149.899V20.8496H149.701ZM143.1 20.9486H149.8V20.7507H143.1V20.9486ZM143.001 16.7496V20.8496H143.199V16.7496H143.001ZM148.6 16.6507H143.1V16.8486H148.6V16.6507ZM148.501 14.5996V16.7496H148.699V14.5996H148.501ZM143.1 14.6986H148.6V14.5007H143.1V14.6986ZM143.001 10.8996V14.5996H143.199V10.8996H143.001ZM149.8 10.8007H143.1V10.9986H149.8V10.8007ZM149.701 8.74963V10.8996H149.899V8.74963H149.701Z" fill="white"/>
</g>
<defs>
<clipPath id="clip0">
<rect width="32" height="26.15" fill="white" transform="translate(0 4.49976)"/>
</clipPath>
<clipPath id="clip1">
<rect width="108.4" height="14.85" fill="white" transform="translate(41.5 8.49976)"/>
</clipPath>
</defs>
</svg>
