<svg width="300" height="64" viewBox="0 0 300 64" fill="none" xmlns="http://www.w3.org/2000/svg">
<g clip-path="url(#clip0)">
<path d="M52.5 11H11.5V52H52.5V11Z" fill="white"/>
<path fill-rule="evenodd" clip-rule="evenodd" d="M64 50.1H54.4V9H9.6V50.1H0V53.9H7.2L2.7 60.1L4.4 61.3L9.7 53.9H14.3L9.8 60.1L11.5 61.3L16.9 53.9H21.4L16.9 60.1L18.6 61.3L24 53.9H28.5L24 60.1L25.7 61.3L31.1 53.9H35.6L31.2 60.1L32.8 61.3L38.2 53.9H42.8L38.3 60.1L40 61.3L45.3 53.9H49.9L45.4 60.1L47.1 61.3L52.4 53.9H57L52.5 60.1L54.2 61.3L59.6 53.9H64V50.1ZM50.7 12.8H13.4V50.1H50.7V12.8ZM42.4 20.4L42.5 42.2H38.5V42.1L38.4 25.4L37.5 28L34 36.5H30.1L26.5 28L25.5 25.5L25.6 42.2L21.6 42.3L21.5 20.4H27.3L32.1 31.8L36.7 20.4H42.4Z" fill="black"/>
</g>
<g clip-path="url(#clip1)">
<path fill-rule="evenodd" clip-rule="evenodd" d="M261.2 46.3998C257.6 46.3998 255 45.5998 253.3 43.9998C251.6 42.3998 250.6 39.8998 250.4 36.4998H255.6C255.7 38.4998 256.2 39.7998 257.1 40.5998C258 41.3998 259.3 41.7998 261.2 41.7998C263.2 41.7998 264.6 41.3998 265.5 40.6998C266.4 39.9998 266.9 39.0998 266.9 37.9998C266.9 36.8998 266.5 36.0998 265.7 35.5998C264.9 34.9998 263.9 34.5998 262.7 34.1998C261.5 33.7998 260.2 33.4998 258.8 33.1998C257.4 32.8998 256.1 32.3998 254.9 31.7998C253.7 31.1998 252.7 30.3998 251.9 29.3998C251.1 28.3998 250.7 26.9998 250.7 25.2998C250.7 24.1998 250.9 23.0998 251.3 22.0998C251.7 21.0998 252.4 20.2998 253.2 19.5998C254.1 18.8998 255.1 18.2998 256.4 17.8998C257.7 17.4998 259.2 17.2998 261 17.2998C264.5 17.2998 267 17.9998 268.7 19.4998C270.3 20.9998 271.2 23.2998 271.4 26.3998H266.2C266.1 24.7998 265.6 23.5998 264.8 22.8998C264 22.1998 262.7 21.7998 261 21.8998C259.2 21.8998 257.9 22.1998 257 22.8998C256.2 23.5998 255.8 24.3998 255.8 25.2998C255.8 26.2998 256.2 27.0998 257 27.5998C257.8 28.0998 258.8 28.5998 260 28.8998C261.2 29.2998 262.5 29.5998 263.9 29.8998C265.3 30.1998 266.6 30.6998 267.8 31.2998C269 31.8998 270 32.6998 270.8 33.7998C271.6 34.8998 272 36.2998 272 38.0998C272 39.2998 271.8 40.3998 271.4 41.4998C271 42.5998 270.3 43.3998 269.4 44.0998C268.5 44.7998 267.4 45.3998 266 45.7998C264.6 46.1998 263 46.3998 261.2 46.3998ZM233.8 17.5998H228.1L218 46.0998H223.1L225.4 38.8998H236.2L238.6 46.0998H244L233.8 17.5998ZM232.8 28.3998L234.9 34.5998H226.9L229 28.3998L230.9 22.4998L232.8 28.3998ZM161.5 22.0998H170.3V46.1998H175.2L175.1 21.9998H183.9V17.6998L161.5 17.7998V22.0998ZM126.2 17.8998H121.3L121.4 46.3998H126.3L126.2 17.8998ZM90.5 17.9998H83.2L83.3 46.3998H88.2L88.1 23.3998L89.8 27.6998L94.4 38.9998H99.2999L103.9 27.7998L105.6 23.3998L105.7 46.4998H110.6L110.5 17.9998H103.3L97 33.3998L90.5 17.9998ZM136.9 17.8998H146.7C150.5 17.8998 153.3 18.6998 155.1 20.2998C156.9 21.8998 157.7 24.1998 157.7 27.2998C157.7 30.0998 156.8 32.3998 154.9 34.0998C153.1 35.7998 150.3 36.6998 146.7 36.6998H141.8V46.3998H136.9V17.8998ZM141.8 22.1998V32.3998H146.7C148.7 32.3998 150.1 31.8998 151.1 30.9998C152.1 30.0998 152.6 28.7998 152.6 27.2998C152.6 25.6998 152.1 24.3998 151.2 23.4998C150.3 22.5998 148.8 22.1998 146.7 22.1998H141.8ZM190.9 17.6998H200.5C202.4 17.6998 204 17.8998 205.3 18.1998C206.6 18.5998 207.7 18.9998 208.5 19.6998C209.3 20.2998 209.9 21.1998 210.3 22.0998C210.7 23.0998 210.9 24.1998 210.9 25.3998C210.9 26.5998 210.6 27.7998 210 28.7998C209.4 29.7998 208.5 30.6998 207.2 31.3998C208.7 31.9998 209.9 32.8998 210.6 34.0998C211.3 35.2998 211.7 36.5998 211.7 37.9998C211.7 39.2998 211.5 40.4998 211.1 41.4998C210.7 42.4998 210.1 43.3998 209.3 44.0998C208.5 44.7998 207.4 45.2998 206.1 45.6998C204.8 46.0998 203.2 46.1998 201.3 46.1998H190.9V17.6998ZM195.8 21.8998V29.5998H200.5C202.5 29.5998 203.8 29.2998 204.6 28.5998C205.4 27.8998 205.8 26.9998 205.8 25.6998C205.8 24.4998 205.4 23.4998 204.6 22.8998C203.8 22.1998 202.5 21.8998 200.5 21.8998H195.8ZM195.8 33.5998V42.0998H201.3C203.3 42.0998 204.6 41.6998 205.4 41.0998C206.2 40.3998 206.6 39.2998 206.6 37.8998C206.6 36.4998 206.2 35.3998 205.4 34.6998C204.6 33.9998 203.3 33.6998 201.3 33.6998L195.8 33.5998ZM299.6 17.4998H281.3V45.9998H299.6V41.6998H286.2V33.4998H297.2V29.1998H286.2V21.7998H299.6V17.4998Z" fill="black"/>
</g>
<defs>
<clipPath id="clip0">
<rect width="64" height="52.3" fill="white" transform="translate(0 9)"/>
</clipPath>
<clipPath id="clip1">
<rect width="216.8" height="29.7" fill="white" transform="translate(83 17)"/>
</clipPath>
</defs>
</svg>
