<svg width="139" height="30" viewBox="0 0 139 30" fill="none" xmlns="http://www.w3.org/2000/svg">
<g clip-path="url(#clip0)">
<g clip-path="url(#clip1)">
<path fill-rule="evenodd" clip-rule="evenodd" d="M29.626 23.3785H25.1821V4.35303H4.4439V23.3785H0V25.1375H3.33293L1.24985 28.0075L2.03679 28.563L4.49019 25.1375H6.61956L4.53648 28.0075L5.32342 28.563L7.82312 25.1375H9.9062L7.82312 28.0075L8.61006 28.563L11.1098 25.1375H13.1928L11.1098 28.0075L11.8967 28.563L14.3964 25.1375H16.4795L14.4427 28.0075L15.1833 28.563L17.683 25.1375H19.8124L17.7293 28.0075L18.5163 28.563L20.9697 25.1375H23.099L21.016 28.0075L21.8029 28.563L24.2563 25.1375H26.3857L24.3026 28.0075L25.0895 28.563L27.5892 25.1375H29.626V23.3785ZM23.4694 6.11199H6.20296V23.3784H23.4694V6.11199ZM19.6272 9.63002L19.6735 19.7214H17.8219V19.6751L17.7756 11.9445L17.359 13.1481L15.7388 17.0828H13.9335L12.267 13.1481L11.8041 11.9908L11.8504 19.7214L9.99878 19.7677L9.95249 9.63002H12.6373L14.8593 14.9071L16.9887 9.63002H19.6272Z" fill="white"/>
</g>
</g>
<g clip-path="url(#clip2)">
<path fill-rule="evenodd" clip-rule="evenodd" d="M120.911 21.6656C119.245 21.6656 118.041 21.2953 117.254 20.5547C116.467 19.814 116.004 18.6568 115.912 17.0829H118.319C118.365 18.0087 118.597 18.6105 119.013 18.9808C119.43 19.3511 120.032 19.5363 120.911 19.5363C121.837 19.5363 122.485 19.3511 122.902 19.0271C123.318 18.703 123.55 18.2864 123.55 17.7772C123.55 17.268 123.365 16.8977 122.994 16.6663C122.624 16.3885 122.161 16.2034 121.606 16.0182C121.05 15.833 120.448 15.6942 119.8 15.5553C119.152 15.4164 118.55 15.185 117.995 14.9072C117.439 14.6295 116.977 14.2591 116.606 13.7962C116.236 13.3333 116.051 12.6853 116.051 11.8983C116.051 11.3891 116.143 10.8799 116.328 10.417C116.514 9.95411 116.838 9.58379 117.208 9.25975C117.625 8.93572 118.087 8.65797 118.689 8.47281C119.291 8.28765 119.985 8.19507 120.819 8.19507C122.439 8.19507 123.596 8.5191 124.383 9.21346C125.124 9.90782 125.54 10.9725 125.633 12.4075H123.226C123.179 11.6669 122.948 11.1114 122.578 10.7873C122.207 10.4633 121.606 10.2781 120.819 10.3244C119.985 10.3244 119.384 10.4633 118.967 10.7873C118.597 11.1114 118.412 11.4817 118.412 11.8983C118.412 12.3612 118.597 12.7316 118.967 12.963C119.337 13.1945 119.8 13.4259 120.356 13.5648C120.911 13.7499 121.513 13.8888 122.161 14.0277C122.809 14.1666 123.411 14.398 123.966 14.6758C124.522 14.9535 124.985 15.3238 125.355 15.833C125.725 16.3422 125.911 16.9903 125.911 17.8235C125.911 18.379 125.818 18.8882 125.633 19.3974C125.448 19.9066 125.124 20.2769 124.707 20.601C124.29 20.925 123.781 21.2027 123.133 21.3879C122.485 21.5731 121.744 21.6656 120.911 21.6656ZM108.228 8.33396H105.589L100.914 21.5268H103.274L104.339 18.1939H109.339L110.45 21.5268H112.949L108.228 8.33396ZM108.737 16.2034H105.034L106.006 13.3334L106.885 10.6022L107.765 13.3334L108.737 16.2034ZM74.7594 10.417H78.833V21.573H81.1012L81.055 10.3707H85.1285V8.38019L74.7594 8.42648V10.417ZM58.4188 8.47286H56.1506L56.1969 21.6657H58.4651L58.4188 8.47286ZM41.8931 8.51908H38.5139L38.5601 21.6656H40.8284L40.7821 11.0188L41.569 13.0093L43.6984 18.2401H45.9666L48.096 13.0556L48.883 11.0188L48.9293 21.7119H51.1975L51.1512 8.51908H47.8183L44.902 15.6478L41.8931 8.51908ZM63.3719 8.47286H67.9084C69.6675 8.47286 70.9636 8.84318 71.7968 9.58383C72.6301 10.3245 73.0004 11.3892 73.0004 12.8242C73.0004 14.1203 72.5838 15.185 71.7042 15.9719C70.871 16.7589 69.5749 17.1755 67.9084 17.1755H65.6402V21.6657H63.3719V8.47286ZM65.6402 10.4634V15.185H67.9084C68.8342 15.185 69.4823 14.9535 69.9452 14.5369C70.4081 14.1203 70.6396 13.5185 70.6396 12.8242C70.6396 12.0835 70.4081 11.4817 69.9915 11.0651C69.5749 10.6485 68.8805 10.4634 67.9084 10.4634H65.6402ZM88.3689 8.38019H92.8128C93.6923 8.38019 94.433 8.47277 95.0347 8.61164C95.6365 8.7968 96.1457 8.98196 96.516 9.306C96.8864 9.58374 97.1641 10.0004 97.3493 10.417C97.5344 10.8799 97.627 11.3891 97.627 11.9446C97.627 12.5001 97.4881 13.0555 97.2104 13.5184C96.9327 13.9814 96.516 14.398 95.9143 14.722C96.6086 14.9997 97.1641 15.4164 97.4881 15.9719C97.8122 16.5273 97.9973 17.1291 97.9973 17.7772C97.9973 18.379 97.9048 18.9345 97.7196 19.3974C97.5344 19.8603 97.2567 20.2769 96.8864 20.6009C96.516 20.925 96.0068 21.1564 95.4051 21.3416C94.8033 21.5267 94.0626 21.573 93.1831 21.573H88.3689V8.38019ZM90.6371 10.3244V13.8888H92.8128C93.7386 13.8888 94.3404 13.7499 94.7107 13.4259C95.081 13.1018 95.2662 12.6852 95.2662 12.0834C95.2662 11.5279 95.081 11.065 94.7107 10.7873C94.3404 10.4633 93.7386 10.3244 92.8128 10.3244H90.6371ZM90.6371 15.7404V19.6751H93.1831C94.1089 19.6751 94.7107 19.4899 95.081 19.2122C95.4514 18.8882 95.6365 18.379 95.6365 17.7309C95.6365 17.0828 95.4514 16.5736 95.081 16.2496C94.7107 15.9256 94.1089 15.7867 93.1831 15.7867L90.6371 15.7404ZM138.687 8.28763H130.216V21.4805H138.687V19.49H132.484V15.6941H137.576V13.7036H132.484V10.2781H138.687V8.28763Z" fill="white"/>
<path d="M115.912 17.0829V16.9912H115.815L115.82 17.0883L115.912 17.0829ZM118.319 17.0829L118.41 17.0783L118.406 16.9912H118.319V17.0829ZM122.994 16.6663L122.939 16.7398L122.946 16.744L122.994 16.6663ZM121.606 16.0182L121.577 16.1051L121.606 16.0182ZM119.8 15.5553L119.819 15.4657L119.8 15.5553ZM117.995 14.9072L118.036 14.8253L117.995 14.9072ZM116.606 13.7962L116.678 13.739L116.606 13.7962ZM116.328 10.417L116.243 10.383V10.383L116.328 10.417ZM117.208 9.25975L117.152 9.1873L117.148 9.19079L117.208 9.25975ZM118.689 8.47281L118.662 8.38523V8.38523L118.689 8.47281ZM124.383 9.21346L124.446 9.14658L124.444 9.14475L124.383 9.21346ZM125.633 12.4075V12.4991H125.731L125.724 12.4016L125.633 12.4075ZM123.226 12.4075L123.134 12.4132L123.14 12.4991H123.226V12.4075ZM122.578 10.7873L122.517 10.8563V10.8563L122.578 10.7873ZM120.819 10.3244V10.4162L120.824 10.4159L120.819 10.3244ZM118.967 10.7873L118.911 10.7149L118.907 10.7184L118.967 10.7873ZM118.967 12.963L118.918 13.0407V13.0407L118.967 12.963ZM120.356 13.5648L120.385 13.4776L120.378 13.4759L120.356 13.5648ZM122.161 14.0277L122.142 14.1173L122.161 14.0277ZM123.966 14.6758L124.007 14.5938V14.5938L123.966 14.6758ZM125.355 15.833L125.429 15.7791V15.7791L125.355 15.833ZM125.633 19.3974L125.719 19.4287V19.4287L125.633 19.3974ZM124.707 20.601L124.651 20.5286V20.5286L124.707 20.601ZM123.133 21.3879L123.108 21.2998L123.133 21.3879ZM105.589 8.33396V8.24233H105.524L105.503 8.30335L105.589 8.33396ZM108.228 8.33396L108.314 8.30309L108.292 8.24233H108.228V8.33396ZM100.914 21.5268L100.827 21.4962L100.784 21.6184H100.914V21.5268ZM103.274 21.5268V21.6184H103.341L103.362 21.5547L103.274 21.5268ZM104.339 18.1939V18.1022H104.272L104.252 18.166L104.339 18.1939ZM109.339 18.1939L109.425 18.1649L109.405 18.1022H109.339V18.1939ZM110.45 21.5268L110.363 21.5558L110.383 21.6184H110.45V21.5268ZM112.949 21.5268V21.6184H113.079L113.035 21.4959L112.949 21.5268ZM105.034 16.2034L104.947 16.174L104.906 16.295H105.034V16.2034ZM108.737 16.2034V16.295H108.865L108.824 16.174L108.737 16.2034ZM106.006 13.3334L106.092 13.3628L106.093 13.3614L106.006 13.3334ZM106.885 10.6022L106.972 10.5741L106.885 10.3033L106.798 10.5741L106.885 10.6022ZM107.765 13.3334L107.677 13.3614L107.678 13.3627L107.765 13.3334ZM78.833 10.417H78.9246V10.3253H78.833V10.417ZM74.7594 10.417H74.6678V10.5086H74.7594V10.417ZM78.833 21.573H78.7414V21.6647H78.833V21.573ZM81.1012 21.573V21.6647H81.1933L81.1929 21.5726L81.1012 21.573ZM81.055 10.3707V10.2791H80.9629L80.9633 10.3711L81.055 10.3707ZM85.1285 10.3707V10.4623H85.2202V10.3707H85.1285ZM85.1285 8.38019H85.2202V8.28814L85.1281 8.28855L85.1285 8.38019ZM74.7594 8.42648L74.759 8.33484L74.6678 8.33525V8.42648H74.7594ZM56.1506 8.47286V8.38123H56.0586L56.059 8.47318L56.1506 8.47286ZM58.4188 8.47286L58.5105 8.47254L58.5101 8.38123H58.4188V8.47286ZM56.1969 21.6657L56.1052 21.666L56.1056 21.7573H56.1969V21.6657ZM58.4651 21.6657V21.7573H58.5571L58.5567 21.6654L58.4651 21.6657ZM38.5139 8.51908V8.42745H38.4219L38.4222 8.5194L38.5139 8.51908ZM41.8931 8.51908L41.9775 8.48345L41.9539 8.42745H41.8931V8.51908ZM38.5601 21.6656L38.4685 21.6659L38.4688 21.7573H38.5601V21.6656ZM40.8284 21.6656V21.7573H40.9204L40.92 21.6652L40.8284 21.6656ZM40.7821 11.0188L40.8673 10.9851L40.6883 10.5324L40.6905 11.0192L40.7821 11.0188ZM41.569 13.0093L41.4838 13.043L41.4842 13.0438L41.569 13.0093ZM43.6984 18.2401L43.6135 18.2747L43.6368 18.3317H43.6984V18.2401ZM45.9666 18.2401V18.3317H46.0281L46.0514 18.2749L45.9666 18.2401ZM48.096 13.0556L48.1808 13.0904L48.1815 13.0886L48.096 13.0556ZM48.883 11.0188L48.9746 11.0184L48.9725 10.5328L48.7975 10.9858L48.883 11.0188ZM48.9293 21.7119L48.8376 21.7123L48.838 21.8035H48.9293V21.7119ZM51.1975 21.7119V21.8035H51.2894L51.2891 21.7116L51.1975 21.7119ZM51.1512 8.51908L51.2428 8.51876L51.2425 8.42745H51.1512V8.51908ZM47.8183 8.51908V8.42745H47.7568L47.7335 8.48439L47.8183 8.51908ZM44.902 15.6478L44.8175 15.6835L44.9033 15.8866L44.9868 15.6825L44.902 15.6478ZM63.3719 8.47286V8.38123H63.2803V8.47286H63.3719ZM71.7968 9.58383L71.7359 9.65232V9.65232L71.7968 9.58383ZM71.7042 15.9719L71.6431 15.9036L71.6413 15.9053L71.7042 15.9719ZM65.6402 17.1755V17.0839H65.5485V17.1755H65.6402ZM65.6402 21.6657V21.7573H65.7318V21.6657H65.6402ZM63.3719 21.6657H63.2803V21.7573H63.3719V21.6657ZM65.6402 15.185H65.5485V15.2766H65.6402V15.185ZM65.6402 10.4634V10.3717H65.5485V10.4634H65.6402ZM69.9452 14.5369L69.8839 14.4688L69.9452 14.5369ZM69.9915 11.0651L69.9267 11.1299V11.1299L69.9915 11.0651ZM88.3689 8.38019V8.28855H88.2773V8.38019H88.3689ZM95.0347 8.61164L95.0618 8.52383L95.0554 8.52235L95.0347 8.61164ZM96.516 9.306L96.4555 9.37516L96.4611 9.3793L96.516 9.306ZM97.3493 10.417L97.4344 10.3829L97.433 10.3798L97.3493 10.417ZM95.9143 14.722L95.8708 14.6413L95.6982 14.7343L95.8802 14.8071L95.9143 14.722ZM97.4881 15.9719L97.409 16.018V16.018L97.4881 15.9719ZM97.7196 19.3974L97.6345 19.3633L97.6345 19.3633L97.7196 19.3974ZM96.8864 20.6009L96.826 20.532L96.8864 20.6009ZM95.4051 21.3416L95.432 21.4291L95.4051 21.3416ZM88.3689 21.573H88.2773V21.6647H88.3689V21.573ZM90.6371 13.8888H90.5455V13.9804H90.6371V13.8888ZM90.6371 10.3244V10.2328H90.5455V10.3244H90.6371ZM94.7107 13.4259L94.6504 13.3569V13.3569L94.7107 13.4259ZM94.7107 10.7873L94.6502 10.8565L94.6557 10.8606L94.7107 10.7873ZM90.6371 19.6751H90.5455V19.7667H90.6371V19.6751ZM90.6371 15.7404L90.6388 15.6488L90.5455 15.6471V15.7404H90.6371ZM95.081 19.2122L95.1362 19.2857L95.1414 19.2812L95.081 19.2122ZM95.081 16.2496L95.0207 16.3186V16.3186L95.081 16.2496ZM93.1831 15.7867L93.1815 15.8783H93.1831V15.7867ZM130.216 8.28763V8.19599H130.124V8.28763H130.216ZM138.687 8.28763H138.778V8.19599H138.687V8.28763ZM130.216 21.4805H130.124V21.5721H130.216V21.4805ZM138.687 21.4805V21.5721H138.778V21.4805H138.687ZM138.687 19.49H138.778V19.3983H138.687V19.49ZM132.484 19.49H132.392V19.5816H132.484V19.49ZM132.484 15.6941V15.6025H132.392V15.6941H132.484ZM137.576 15.6941V15.7858H137.667V15.6941H137.576ZM137.576 13.7036H137.667V13.612H137.576V13.7036ZM132.484 13.7036H132.392V13.7953H132.484V13.7036ZM132.484 10.2781V10.1865H132.392V10.2781H132.484ZM138.687 10.2781V10.3698H138.778V10.2781H138.687ZM117.191 20.6214C118.002 21.3846 119.233 21.7573 120.911 21.7573V21.574C119.256 21.574 118.08 21.206 117.317 20.4879L117.191 20.6214ZM115.82 17.0883C115.914 18.6762 116.382 19.8593 117.191 20.6214L117.317 20.4879C116.553 19.7687 116.095 18.6373 116.003 17.0775L115.82 17.0883ZM118.319 16.9912H115.912V17.1745H118.319V16.9912ZM119.074 18.9123C118.684 18.5655 118.456 17.9931 118.41 17.0783L118.227 17.0874C118.274 18.0243 118.509 18.6554 118.952 19.0493L119.074 18.9123ZM120.911 19.4446C120.043 19.4446 119.467 19.2618 119.074 18.9123L118.952 19.0493C119.392 19.4404 120.02 19.6279 120.911 19.6279V19.4446ZM122.845 18.9548C122.452 19.2611 121.827 19.4446 120.911 19.4446V19.6279C121.847 19.6279 122.519 19.4411 122.958 19.0994L122.845 18.9548ZM123.458 17.7772C123.458 18.2541 123.243 18.6454 122.845 18.9548L122.958 19.0994C123.394 18.7607 123.641 18.3188 123.641 17.7772H123.458ZM122.946 16.744C123.284 16.9556 123.458 17.2935 123.458 17.7772H123.641C123.641 17.2426 123.445 16.8398 123.043 16.5886L122.946 16.744ZM121.577 16.1051C122.131 16.2899 122.582 16.4713 122.939 16.7396L123.049 16.593C122.666 16.3057 122.191 16.1168 121.635 15.9313L121.577 16.1051ZM119.781 15.6449C120.429 15.7837 121.026 15.9217 121.577 16.1051L121.635 15.9313C121.074 15.7444 120.468 15.6046 119.819 15.4657L119.781 15.6449ZM117.954 14.9892C118.515 15.2696 119.124 15.5041 119.781 15.6449L119.819 15.4657C119.18 15.3287 118.586 15.1003 118.036 14.8253L117.954 14.9892ZM116.535 13.8535C116.914 14.3272 117.387 14.7058 117.954 14.9892L118.036 14.8253C117.492 14.5532 117.039 14.1911 116.678 13.739L116.535 13.8535ZM115.959 11.8983C115.959 12.6985 116.147 13.3693 116.535 13.8535L116.678 13.739C116.324 13.2974 116.142 12.672 116.142 11.8983H115.959ZM116.243 10.383C116.054 10.8574 115.959 11.3783 115.959 11.8983H116.142C116.142 11.4 116.233 10.9024 116.414 10.451L116.243 10.383ZM117.148 9.19079C116.772 9.51968 116.436 9.90133 116.243 10.383L116.414 10.4511C116.591 10.0069 116.904 9.64789 117.268 9.32871L117.148 9.19079ZM118.662 8.38523C118.048 8.57439 117.575 8.85829 117.152 9.18742L117.264 9.33208C117.674 9.01315 118.127 8.74156 118.716 8.56039L118.662 8.38523ZM120.819 8.10344C119.979 8.10344 119.275 8.19674 118.662 8.38523L118.716 8.56039C119.307 8.37856 119.992 8.2867 120.819 8.2867V8.10344ZM124.444 9.14475C123.633 8.42914 122.449 8.10344 120.819 8.10344V8.2867C122.429 8.2867 123.56 8.60906 124.322 9.28217L124.444 9.14475ZM125.724 12.4016C125.631 10.9531 125.209 9.86248 124.446 9.14661L124.32 9.28031C125.038 9.95316 125.45 10.992 125.541 12.4134L125.724 12.4016ZM123.226 12.4991H125.633V12.3159H123.226V12.4991ZM122.517 10.8563C122.863 11.1584 123.089 11.6865 123.134 12.4132L123.317 12.4018C123.27 11.6472 123.033 11.0643 122.638 10.7184L122.517 10.8563ZM120.824 10.4159C121.596 10.3705 122.171 10.5531 122.517 10.8563L122.638 10.7184C122.244 10.3735 121.615 10.1858 120.813 10.233L120.824 10.4159ZM119.023 10.8597C119.416 10.5543 119.993 10.4161 120.819 10.4161V10.2328C119.978 10.2328 119.351 10.3723 118.911 10.715L119.023 10.8597ZM118.503 11.8983C118.503 11.513 118.673 11.1664 119.027 10.8563L118.907 10.7184C118.52 11.0564 118.32 11.4504 118.32 11.8983H118.503ZM119.016 12.8853C118.675 12.6727 118.503 12.3339 118.503 11.8983H118.32C118.32 12.3886 118.518 12.7904 118.918 13.0407L119.016 12.8853ZM120.378 13.4759C119.834 13.3399 119.38 13.1131 119.016 12.8853L118.918 13.0407C119.295 13.2758 119.766 13.5119 120.334 13.6537L120.378 13.4759ZM122.18 13.9381C121.532 13.7993 120.935 13.6613 120.385 13.4779L120.327 13.6517C120.887 13.8386 121.494 13.9784 122.142 14.1173L122.18 13.9381ZM124.007 14.5938C123.446 14.3134 122.837 14.0789 122.18 13.9381L122.142 14.1173C122.781 14.2542 123.375 14.4827 123.925 14.7577L124.007 14.5938ZM125.429 15.7791C125.049 15.2568 124.575 14.8774 124.007 14.5938L123.925 14.7577C124.469 15.0296 124.92 15.3909 125.281 15.8869L125.429 15.7791ZM126.002 17.8235C126.002 16.9765 125.814 16.308 125.429 15.7791L125.281 15.8869C125.637 16.3765 125.819 17.0041 125.819 17.8235H126.002ZM125.719 19.4287C125.908 18.9097 126.002 18.3899 126.002 17.8235H125.819C125.819 18.3681 125.728 18.8667 125.547 19.3661L125.719 19.4287ZM124.763 20.6733C125.189 20.3422 125.526 19.9588 125.719 19.4287L125.547 19.3661C125.369 19.8544 125.058 20.2117 124.651 20.5286L124.763 20.6733ZM123.158 21.476C123.818 21.2875 124.338 21.0043 124.763 20.6733L124.651 20.5286C124.243 20.8457 123.744 21.118 123.108 21.2998L123.158 21.476ZM120.911 21.7573C121.751 21.7573 122.5 21.664 123.158 21.476L123.108 21.2998C122.47 21.4821 121.738 21.574 120.911 21.574V21.7573ZM105.589 8.4256H108.228V8.24233H105.589V8.4256ZM101 21.5574L105.675 8.36457L105.503 8.30335L100.827 21.4962L101 21.5574ZM103.274 21.4352H100.914V21.6184H103.274V21.4352ZM104.252 18.166L103.187 21.4989L103.362 21.5547L104.426 18.2218L104.252 18.166ZM109.339 18.1022H104.339V18.2855H109.339V18.1022ZM110.536 21.4978L109.425 18.1649L109.252 18.2228L110.363 21.5558L110.536 21.4978ZM112.949 21.4352H110.45V21.6184H112.949V21.4352ZM108.141 8.36484L112.863 21.5577L113.035 21.4959L108.314 8.30309L108.141 8.36484ZM105.034 16.295H108.737V16.1117H105.034V16.295ZM105.919 13.304L104.947 16.174L105.12 16.2328L106.092 13.3627L105.919 13.304ZM106.798 10.5741L105.918 13.3053L106.093 13.3614L106.972 10.6303L106.798 10.5741ZM107.852 13.3053L106.972 10.5741L106.798 10.6303L107.677 13.3614L107.852 13.3053ZM108.824 16.174L107.851 13.304L107.678 13.3627L108.65 16.2328L108.824 16.174ZM78.833 10.3253H74.7594V10.5086H78.833V10.3253ZM78.9246 21.573V10.417H78.7414V21.573H78.9246ZM81.1012 21.4814H78.833V21.6647H81.1012V21.4814ZM80.9633 10.3711L81.0096 21.5734L81.1929 21.5726L81.1466 10.3703L80.9633 10.3711ZM85.1285 10.2791H81.055V10.4623H85.1285V10.2791ZM85.0369 8.38019V10.3707H85.2202V8.38019H85.0369ZM74.7598 8.51811L85.1289 8.47182L85.1281 8.28855L74.759 8.33484L74.7598 8.51811ZM74.8511 10.417V8.42648H74.6678V10.417H74.8511ZM56.1506 8.56449H58.4188V8.38123H56.1506V8.56449ZM56.2885 21.6654L56.2422 8.47254L56.059 8.47318L56.1052 21.666L56.2885 21.6654ZM58.4651 21.5741H56.1969V21.7573H58.4651V21.5741ZM58.3272 8.47318L58.3735 21.666L58.5567 21.6654L58.5105 8.47254L58.3272 8.47318ZM38.5139 8.61071H41.8931V8.42745H38.5139V8.61071ZM38.6518 21.6653L38.6055 8.51876L38.4222 8.5194L38.4685 21.6659L38.6518 21.6653ZM40.8284 21.574H38.5601V21.7573H40.8284V21.574ZM40.6905 11.0192L40.7368 21.666L40.92 21.6652L40.8737 11.0184L40.6905 11.0192ZM41.6543 12.9756L40.8673 10.9851L40.6969 11.0525L41.4838 13.043L41.6543 12.9756ZM43.7833 18.2056L41.6539 12.9747L41.4842 13.0438L43.6135 18.2747L43.7833 18.2056ZM45.9666 18.1485H43.6984V18.3317H45.9666V18.1485ZM48.0113 13.0208L45.8819 18.2053L46.0514 18.2749L48.1808 13.0904L48.0113 13.0208ZM48.7975 10.9858L48.0105 13.0225L48.1815 13.0886L48.9684 11.0518L48.7975 10.9858ZM49.0209 21.7115L48.9746 11.0184L48.7913 11.0192L48.8376 21.7123L49.0209 21.7115ZM51.1975 21.6203H48.9293V21.8035H51.1975V21.6203ZM51.0596 8.5194L51.1059 21.7122L51.2891 21.7116L51.2428 8.51876L51.0596 8.5194ZM47.8183 8.61071H51.1512V8.42745H47.8183V8.61071ZM44.9868 15.6825L47.9031 8.55378L47.7335 8.48439L44.8172 15.6131L44.9868 15.6825ZM41.8087 8.55471L44.8175 15.6835L44.9864 15.6122L41.9775 8.48345L41.8087 8.55471ZM67.9084 8.38123H63.3719V8.56449H67.9084V8.38123ZM71.8577 9.51535C71.0003 8.75324 69.6776 8.38123 67.9084 8.38123V8.56449C69.6574 8.56449 70.9269 8.93313 71.7359 9.65232L71.8577 9.51535ZM73.092 12.8242C73.092 11.3733 72.7171 10.2792 71.8577 9.51535L71.7359 9.65232C72.543 10.3697 72.9087 11.405 72.9087 12.8242H73.092ZM71.7653 16.0402C72.6676 15.233 73.092 14.1416 73.092 12.8242H72.9087C72.9087 14.099 72.5 15.137 71.6431 15.9037L71.7653 16.0402ZM67.9084 17.2671C69.5882 17.2671 70.9108 16.8474 71.7672 16.0386L71.6413 15.9053C70.8312 16.6704 69.5615 17.0839 67.9084 17.0839V17.2671ZM65.6402 17.2671H67.9084V17.0839H65.6402V17.2671ZM65.7318 21.6657V17.1755H65.5485V21.6657H65.7318ZM63.3719 21.7573H65.6402V21.5741H63.3719V21.7573ZM63.2803 8.47286V21.6657H63.4636V8.47286H63.2803ZM65.7318 15.185V10.4634H65.5485V15.185H65.7318ZM67.9084 15.0934H65.6402V15.2766H67.9084V15.0934ZM69.8839 14.4688C69.4424 14.8662 68.8185 15.0934 67.9084 15.0934V15.2766C68.8499 15.2766 69.5222 15.0409 70.0065 14.605L69.8839 14.4688ZM70.5479 12.8242C70.5479 13.4979 70.3238 14.0729 69.8839 14.4688L70.0065 14.605C70.4924 14.1678 70.7312 13.5391 70.7312 12.8242H70.5479ZM69.9267 11.1299C70.3229 11.5261 70.5479 12.1029 70.5479 12.8242H70.7312C70.7312 12.0642 70.4933 11.4374 70.0563 11.0003L69.9267 11.1299ZM67.9084 10.555C68.8738 10.555 69.5366 10.7398 69.9267 11.1299L70.0563 11.0003C69.6131 10.5572 68.8873 10.3717 67.9084 10.3717V10.555ZM65.6402 10.555H67.9084V10.3717H65.6402V10.555ZM92.8128 8.28855H88.3689V8.47182H92.8128V8.28855ZM95.0554 8.52235C94.4463 8.3818 93.6987 8.28855 92.8128 8.28855V8.47182C93.6859 8.47182 94.4196 8.56373 95.0141 8.70092L95.0554 8.52235ZM96.5764 9.23704C96.1896 8.89856 95.6623 8.70888 95.0617 8.52406L95.0078 8.69922C95.6107 8.88473 96.1019 9.06536 96.4557 9.37496L96.5764 9.23704ZM97.433 10.3798C97.2439 9.95436 96.9579 9.52286 96.571 9.23269L96.4611 9.3793C96.8148 9.64462 97.0843 10.0464 97.2655 10.4542L97.433 10.3798ZM97.7187 11.9446C97.7187 11.3787 97.6243 10.8578 97.4344 10.3829L97.2642 10.451C97.4446 10.9019 97.5354 11.3994 97.5354 11.9446H97.7187ZM97.289 13.5656C97.5762 13.0869 97.7187 12.5147 97.7187 11.9446H97.5354C97.5354 12.4854 97.4001 13.0242 97.1318 13.4713L97.289 13.5656ZM95.9577 14.8027C96.5735 14.4711 97.0025 14.0431 97.289 13.5656L97.1318 13.4713C96.8629 13.9196 96.4586 14.3248 95.8708 14.6413L95.9577 14.8027ZM97.5673 15.9257C97.2301 15.3476 96.6555 14.9198 95.9483 14.6369L95.8802 14.8071C96.5617 15.0797 97.0981 15.4851 97.409 16.018L97.5673 15.9257ZM98.089 17.7772C98.089 17.1108 97.8984 16.4933 97.5673 15.9257L97.409 16.018C97.726 16.5614 97.9057 17.1474 97.9057 17.7772H98.089ZM97.8047 19.4314C97.9951 18.9553 98.089 18.3878 98.089 17.7772H97.9057C97.9057 18.3702 97.8144 18.9136 97.6345 19.3633L97.8047 19.4314ZM96.9467 20.6699C97.3293 20.3351 97.6149 19.9059 97.8047 19.4314L97.6345 19.3633C97.454 19.8146 97.1841 20.2187 96.826 20.532L96.9467 20.6699ZM95.432 21.4291C96.0388 21.2424 96.5622 21.0063 96.9467 20.6699L96.826 20.532C96.4699 20.8436 95.9749 21.0704 95.3781 21.254L95.432 21.4291ZM93.1831 21.6647C94.0636 21.6647 94.8161 21.6186 95.432 21.4291L95.3781 21.254C94.7904 21.4348 94.0617 21.4814 93.1831 21.4814V21.6647ZM88.3689 21.6647H93.1831V21.4814H88.3689V21.6647ZM88.2773 8.38019V21.573H88.4605V8.38019H88.2773ZM90.7288 13.8888V10.3244H90.5455V13.8888H90.7288ZM92.8128 13.7971H90.6371V13.9804H92.8128V13.7971ZM94.6504 13.3569C94.3068 13.6575 93.7351 13.7971 92.8128 13.7971V13.9804C93.7421 13.9804 94.3739 13.8423 94.771 13.4948L94.6504 13.3569ZM95.1746 12.0834C95.1746 12.6626 94.9981 13.0526 94.6504 13.3569L94.771 13.4948C95.1639 13.151 95.3578 12.7078 95.3578 12.0834H95.1746ZM94.6557 10.8606C94.9963 11.1161 95.1746 11.5473 95.1746 12.0834H95.3578C95.3578 11.5086 95.1657 11.014 94.7657 10.714L94.6557 10.8606ZM92.8128 10.416C93.7351 10.416 94.3068 10.5557 94.6504 10.8563L94.771 10.7183C94.3739 10.3709 93.7421 10.2328 92.8128 10.2328V10.416ZM90.6371 10.416H92.8128V10.2328H90.6371V10.416ZM90.7288 19.6751V15.7404H90.5455V19.6751H90.7288ZM93.1831 19.5835H90.6371V19.7667H93.1831V19.5835ZM95.0261 19.1389C94.6779 19.4 94.0988 19.5835 93.1831 19.5835V19.7667C94.1191 19.7667 94.7435 19.5799 95.136 19.2855L95.0261 19.1389ZM95.5449 17.7309C95.5449 18.3626 95.3646 18.8423 95.0207 19.1432L95.1414 19.2812C95.5381 18.934 95.7282 18.3953 95.7282 17.7309H95.5449ZM95.0207 16.3186C95.3646 16.6195 95.5449 17.0992 95.5449 17.7309H95.7282C95.7282 17.0665 95.5381 16.5278 95.1414 16.1806L95.0207 16.3186ZM93.1831 15.8783C94.1054 15.8783 94.6772 16.018 95.0207 16.3186L95.1414 16.1806C94.7443 15.8332 94.1125 15.6951 93.1831 15.6951V15.8783ZM90.6355 15.832L93.1815 15.8783L93.1848 15.6951L90.6388 15.6488L90.6355 15.832ZM130.216 8.37926H138.687V8.19599H130.216V8.37926ZM130.307 21.4805V8.28763H130.124V21.4805H130.307ZM138.687 21.3888H130.216V21.5721H138.687V21.3888ZM138.595 19.49V21.4805H138.778V19.49H138.595ZM132.484 19.5816H138.687V19.3983H132.484V19.5816ZM132.392 15.6941V19.49H132.576V15.6941H132.392ZM137.576 15.6025H132.484V15.7858H137.576V15.6025ZM137.484 13.7036V15.6941H137.667V13.7036H137.484ZM132.484 13.7953H137.576V13.612H132.484V13.7953ZM132.392 10.2781V13.7036H132.576V10.2781H132.392ZM138.687 10.1865H132.484V10.3698H138.687V10.1865ZM138.595 8.28763V10.2781H138.778V8.28763H138.595Z" fill="white"/>
</g>
<defs>
<clipPath id="clip0">
<rect width="29.626" height="29.626" fill="white" transform="translate(0 0.186768)"/>
</clipPath>
<clipPath id="clip1">
<rect width="29.626" height="24.21" fill="white" transform="translate(0 4.35303)"/>
</clipPath>
<clipPath id="clip2">
<rect width="100.358" height="13.7483" fill="white" transform="translate(38.4213 8.05615)"/>
</clipPath>
</defs>
</svg>
