<svg width="84" height="26" viewBox="0 0 84 26" fill="none" xmlns="http://www.w3.org/2000/svg">
<path d="M20.8497 7.89118H26.8583L27.0634 13.8104H27.1221L29.6134 7.89118H35.5928L33.4531 18.6834H29.8186L31.5186 10.223H31.4307L27.6497 18.6834H24.279L23.9565 10.223H23.8393L22.1686 18.6834H18.71L20.8497 7.89118Z" fill="#2D83E8"/>
<path d="M39.2272 18.8627L39.5497 17.1288H38.8169C36.0324 17.1288 35.0359 15.5145 35.0359 13.93C35.0359 11.5683 36.9117 8.78804 40.6048 8.78804H41.2497L41.5721 7.1737H45.6169L45.2945 8.78804H45.9393C47.4341 8.78804 49.8083 9.14678 49.8083 12.0167C49.8083 14.5279 48.0497 17.1587 44.4152 17.1587H43.6238L43.3014 18.8926H39.2272V18.8627ZM40.8979 11.2693H40.6634C39.579 11.2693 38.8755 12.4353 38.8755 13.4517C38.8755 14.0795 39.2565 14.7073 39.9893 14.7073H40.2238L40.8979 11.2693ZM43.9169 14.6774H44.1514C45.2945 14.6774 45.91 13.4218 45.91 12.4652C45.91 11.7776 45.529 11.2394 44.7962 11.2394H44.5617L43.9169 14.6774Z" fill="#2D83E8"/>
<path d="M61.8548 7.89118L61.21 11.09H57.6341L56.1393 18.6834H52.0945L53.5893 11.09H50.0134L50.6583 7.89118H61.8548Z" fill="#2D83E8"/>
<path d="M66.8083 7.89118L65.5772 14.0795H65.6359L69.5341 7.89118H74.2531L72.1134 18.6834H68.0686L69.2703 12.6445H69.2117L65.3428 18.6834H60.5945L62.7341 7.89118H66.8083Z" fill="#2D83E8"/>
<path d="M77.4186 22.7491L77.9755 19.6998L83.6617 21.4337L77.4186 22.7491Z" fill="#2D83E8"/>
<path d="M76.0703 20.3874H17.5083C16.4238 20.3874 15.9548 21.6131 15.5152 22.8089C15.3686 23.2274 15.1048 23.8552 14.929 24.1243C14.5772 23.7656 14.3428 22.0914 14.2255 21.4337L14.1669 21.075C13.8152 18.8029 13.4928 16.4113 13.1997 14.0795C11.8514 3.94501 11.2359 0.387476 9.38931 0.357581C7.07379 0.327685 6.2531 4.51302 3.79103 16.9195L3.46862 18.5339C3.11689 20.3874 2.2962 20.3874 1.94448 20.3874H0.830688L0.566895 22.0017H1.94448C2.8531 22.0017 4.49448 21.5832 5.02207 18.8627L5.34448 17.2484C6.83931 9.59521 8.27552 2.36056 9.27207 2.00182C10.1514 2.95847 11.0014 9.47563 11.6462 14.3187C11.9393 16.6505 12.2617 19.0421 12.6134 21.344L12.6721 21.7028C12.9359 23.5264 13.2876 25.8283 14.9583 25.8283C16.0428 25.8283 16.5117 24.6026 16.9514 23.4068C17.1272 22.9584 17.4203 22.211 17.5962 22.0017H75.7772L76.0703 20.3874Z" fill="#2D83E8"/>
</svg>
