<svg width="126" height="40" viewBox="0 0 126 40" fill="none" xmlns="http://www.w3.org/2000/svg">
<path d="M30.6792 12.0558H39.7677L40.078 21.0091H40.1667L43.9351 12.0558H52.9792L49.7428 28.3798H44.2454L46.8168 15.5828H46.6838L40.9647 28.3798H35.8663L35.3786 15.5828H35.2013L32.6742 28.3798H27.4428L30.6792 12.0558Z" fill="black"/>
<path d="M58.4767 28.6511L58.9643 26.0284H57.856C53.6442 26.0284 52.1369 23.5866 52.1369 21.19C52.1369 17.6177 54.9743 13.4123 60.5604 13.4123H61.5357L62.0234 10.9705H68.1415L67.6538 13.4123H68.6292C70.8902 13.4123 74.4813 13.955 74.4813 18.296C74.4813 22.0943 71.8212 26.0736 66.3238 26.0736H65.1268L64.6391 28.6963H58.4767V28.6511ZM61.0037 17.1655H60.649C59.0087 17.1655 57.9446 18.929 57.9446 20.4665C57.9446 21.4161 58.521 22.3657 59.6293 22.3657H59.984L61.0037 17.1655ZM65.5701 22.3204H65.9248C67.6538 22.3204 68.5848 20.4212 68.5848 18.9742C68.5848 17.9342 68.0085 17.1203 66.9001 17.1203H66.5455L65.5701 22.3204Z" fill="black"/>
<path d="M92.7026 12.0558L91.7272 16.8942H86.3185L84.0574 28.3798H77.9393L80.2003 16.8942H74.7916L75.7669 12.0558H92.7026Z" fill="black"/>
<path d="M100.195 12.0558L98.333 21.4161H98.4217L104.318 12.0558H111.456L108.219 28.3798H102.101L103.919 19.2456H103.83L97.9783 28.3798H90.7962L94.0326 12.0558H100.195Z" fill="black"/>
<path d="M116.244 34.5295L117.086 29.9172L125.687 32.5399L116.244 34.5295Z" fill="black"/>
<path d="M114.205 30.9572H25.6251C23.9847 30.9572 23.2754 32.8112 22.6104 34.6199C22.3887 35.253 21.9897 36.2026 21.7237 36.6096C21.1917 36.067 20.837 33.5347 20.6597 32.5399L20.571 31.9973C20.039 28.5606 19.5513 24.9431 19.108 21.4161C17.0686 6.08689 16.1376 0.705859 13.3446 0.660641C9.84217 0.615422 8.60081 6.94605 4.87675 25.7118L4.38907 28.1537C3.85706 30.9572 2.61571 30.9572 2.0837 30.9572H0.399007L0 33.399H2.0837C3.45806 33.399 5.94077 32.766 6.73878 28.6511L7.22645 26.2093C9.48749 14.6332 11.6599 3.6903 13.1672 3.14767C14.4972 4.59468 15.7829 14.4524 16.7583 21.7778C17.2016 25.3049 17.6893 28.9224 18.2213 32.4042L18.31 32.9469C18.709 35.7052 19.241 39.187 21.768 39.187C23.4084 39.187 24.1177 37.3331 24.7828 35.5243C25.0488 34.846 25.4921 33.7156 25.7581 33.399H113.761L114.205 30.9572Z" fill="black"/>
</svg>
