<svg width="126" height="39" viewBox="0 0 126 39" fill="none" xmlns="http://www.w3.org/2000/svg">
<path d="M30.6792 11.7471H39.7677L40.078 20.7004H40.1667L43.9351 11.7471H52.9792L49.7428 28.071H44.2454L46.8168 15.2741H46.6838L40.9647 28.071H35.8663L35.3786 15.2741H35.2013L32.6742 28.071H27.4428L30.6792 11.7471Z" fill="#2D83E8"/>
<path d="M58.4767 28.3424L58.9643 25.7197H57.856C53.6442 25.7197 52.1369 23.2778 52.1369 20.8813C52.1369 17.309 54.9743 13.1036 60.5604 13.1036H61.5357L62.0234 10.6618H68.1415L67.6538 13.1036H68.6292C70.8902 13.1036 74.4813 13.6462 74.4813 17.9873C74.4813 21.7856 71.8212 25.7649 66.3238 25.7649H65.1268L64.6391 28.3876H58.4767V28.3424ZM61.0037 16.8568H60.649C59.0087 16.8568 57.9446 18.6203 57.9446 20.1578C57.9446 21.1073 58.521 22.0569 59.6293 22.0569H59.984L61.0037 16.8568ZM65.5701 22.0117H65.9248C67.6538 22.0117 68.5848 20.1125 68.5848 18.6655C68.5848 17.6255 68.0085 16.8116 66.9001 16.8116H66.5455L65.5701 22.0117Z" fill="#2D83E8"/>
<path d="M92.7026 11.7471L91.7272 16.5855H86.3185L84.0574 28.071H77.9393L80.2003 16.5855H74.7916L75.7669 11.7471H92.7026Z" fill="#2D83E8"/>
<path d="M100.195 11.7471L98.333 21.1073H98.4217L104.318 11.7471H111.456L108.219 28.071H102.101L103.919 18.9368H103.83L97.9783 28.071H90.7962L94.0326 11.7471H100.195Z" fill="#2D83E8"/>
<path d="M116.244 34.2208L117.086 29.6085L125.687 32.2312L116.244 34.2208Z" fill="#2D83E8"/>
<path d="M114.205 30.6485H25.6251C23.9847 30.6485 23.2754 32.5025 22.6104 34.3112C22.3887 34.9443 21.9897 35.8939 21.7237 36.3009C21.1917 35.7582 20.837 33.226 20.6597 32.2312L20.571 31.6885C20.039 28.2519 19.5513 24.6344 19.108 21.1073C17.0686 5.77818 16.1376 0.397144 13.3446 0.351925C9.84217 0.306706 8.60081 6.63734 4.87675 25.4031L4.38907 27.8449C3.85706 30.6485 2.61571 30.6485 2.0837 30.6485H0.399007L0 33.0903H2.0837C3.45806 33.0903 5.94077 32.4573 6.73878 28.3424L7.22645 25.9005C9.48749 14.3245 11.6599 3.38158 13.1672 2.83896C14.4972 4.28596 15.7829 14.1437 16.7583 21.4691C17.2016 24.9962 17.6893 28.6137 18.2213 32.0955L18.31 32.6381C18.709 35.3965 19.241 38.8783 21.768 38.8783C23.4084 38.8783 24.1177 37.0244 24.7828 35.2156C25.0488 34.5373 25.4921 33.4069 25.7581 33.0903H113.761L114.205 30.6485Z" fill="#2D83E8"/>
</svg>
