<svg width="213" height="39" viewBox="0 0 213 39" fill="none" xmlns="http://www.w3.org/2000/svg">
<path d="M179.38 30.8836H212.922L179.38 38.5334V30.8836Z" fill="white"/>
<path d="M78.7491 13.5987C78.7491 12.4043 78.4443 11.4794 77.8347 10.824C77.2251 10.1685 76.3176 9.84079 75.1123 9.84079V18.2305C77.5368 18.2305 78.7491 16.8322 78.7491 14.0356V13.5987Z" fill="white"/>
<path d="M68.379 14.0356C68.379 15.4485 68.67 16.5045 69.2518 17.2036C69.8337 17.8882 70.7481 18.2305 71.995 18.2305V9.84079C70.7758 9.84079 69.8684 10.1685 69.2726 10.824C68.6769 11.4794 68.379 12.4043 68.379 13.5987V14.0356Z" fill="white"/>
<path d="M135.821 12.3315C136.14 12.2441 136.458 12.2004 136.777 12.2004C137.123 12.2004 137.449 12.2368 137.754 12.3096C138.059 12.3825 138.322 12.5135 138.544 12.7029C138.779 12.8922 138.959 13.1471 139.084 13.4676C139.222 13.788 139.299 14.1886 139.312 14.6692H134.179C134.193 14.2177 134.276 13.8317 134.429 13.5113C134.581 13.1908 134.775 12.9359 135.011 12.7466C135.246 12.5572 135.516 12.4189 135.821 12.3315Z" fill="white"/>
<path d="M160.033 12.3315C160.351 12.2441 160.67 12.2004 160.989 12.2004C161.335 12.2004 161.661 12.2368 161.965 12.3096C162.27 12.3825 162.533 12.5135 162.755 12.7029C162.991 12.8922 163.171 13.1471 163.295 13.4676C163.434 13.788 163.51 14.1886 163.524 14.6692H158.391C158.405 14.2177 158.488 13.8317 158.64 13.5113C158.793 13.1908 158.987 12.9359 159.222 12.7466C159.458 12.5572 159.728 12.4189 160.033 12.3315Z" fill="white"/>
<path d="M186.628 18.6238C186.115 19.2064 185.471 19.4977 184.695 19.4977C183.905 19.4977 183.254 19.2137 182.742 18.6456C182.229 18.063 181.973 17.1818 181.973 16.002V15.565C181.973 14.5017 182.229 13.6933 182.742 13.1399C183.254 12.5718 183.905 12.2878 184.695 12.2878C185.471 12.2878 186.115 12.5718 186.628 13.1399C187.154 13.6933 187.418 14.5017 187.418 15.565V16.002C187.418 17.1672 187.154 18.0411 186.628 18.6238Z" fill="white"/>
<path fill-rule="evenodd" clip-rule="evenodd" d="M13.5915 9.63475V14.1699H21.5915L23.0915 12.8093H33.0915L46.9919 0H212.922V29.0976H0.895892L13.425 17.625H22.425L23.925 18.9855H31.925V14.4504H23.925L22.425 15.8109H12.425L0 27.1882V0H44.0233L32.0915 10.9953H23.0915L21.5915 9.63475H13.5915ZM13.5915 7.82248V6.91545L22.5915 3.74085L31.8055 6.91545V9.18302H24.0915L22.5915 7.82248H13.5915ZM31.925 20.7978V22.6118H13.711V19.4372H21.425L22.925 20.7978H31.925ZM71.995 20.9834C70.9005 20.9834 69.9238 20.8231 69.0648 20.5027C68.2197 20.1677 67.5062 19.6943 66.9243 19.0826C66.3424 18.4708 65.8991 17.7425 65.5943 16.8977C65.2895 16.0384 65.1371 15.0843 65.1371 14.0356V13.5987C65.1371 12.6665 65.2895 11.7998 65.5943 10.9987C65.8991 10.1976 66.3424 9.51307 66.9243 8.94501C67.5062 8.3624 68.2197 7.91087 69.0648 7.59043C69.9238 7.25542 70.9005 7.08792 71.995 7.08792V5.73333H75.1123V7.08792C76.1929 7.08792 77.1558 7.25542 78.0009 7.59043C78.8599 7.91087 79.5803 8.3624 80.1622 8.94501C80.758 9.51307 81.2082 10.1976 81.513 10.9987C81.8178 11.7998 81.9702 12.6665 81.9702 13.5987V14.0356C81.9702 15.0843 81.8178 16.0384 81.513 16.8977C81.2082 17.7425 80.758 18.4708 80.1622 19.0826C79.5803 19.6943 78.8599 20.1677 78.0009 20.5027C77.1558 20.8231 76.1929 20.9834 75.1123 20.9834V22.3379H71.995V20.9834ZM47.579 6.38878H50.6962L55.1227 14.997L59.5284 6.38878H62.5418V21.6825H59.4245V11.9601L55.9956 18.6238H54.1252L50.6962 11.9601V21.6825H47.579V6.38878ZM83.0247 9.09795H87.7006V21.6825H90.8179V9.09795H95.4938V6.38878H83.0247V9.09795ZM97.5646 6.38878H100.682V16.5482L107.02 6.38878H110.034V21.6825H106.916V11.5231L100.557 21.6825H97.5646V6.38878ZM118.965 14.2104H112.315V16.9196H118.965V14.2104ZM124.109 9.09795H119.433V6.38878H131.902V9.09795H127.226V21.6825H124.109V9.09795ZM134.74 21.5951C135.419 21.8281 136.133 21.9447 136.881 21.9447C138.169 21.9447 139.25 21.6388 140.123 21.0271C140.996 20.4153 141.543 19.505 141.765 18.296H139.25C139.098 18.7184 138.841 19.0389 138.481 19.2574C138.121 19.4758 137.588 19.5851 136.881 19.5851C136.549 19.5851 136.216 19.5341 135.883 19.4321C135.565 19.3156 135.281 19.1408 135.031 18.9078C134.782 18.6747 134.581 18.3761 134.429 18.012C134.276 17.6333 134.193 17.1891 134.179 16.6793H141.973V15.4558C141.973 13.6351 141.522 12.2441 140.622 11.2828C139.721 10.3214 138.405 9.84079 136.673 9.84079C135.939 9.84079 135.253 9.96459 134.616 10.2122C133.979 10.4453 133.417 10.8021 132.932 11.2828C132.448 11.7489 132.067 12.3388 131.789 13.0525C131.512 13.7662 131.374 14.6037 131.374 15.565V16.002C131.374 17.007 131.519 17.8882 131.81 18.6456C132.101 19.3884 132.496 20.0075 132.995 20.5027C133.494 20.9834 134.075 21.3475 134.74 21.5951ZM143.849 21.9447C143.739 21.9447 143.6 21.9374 143.434 21.9228C143.267 21.9228 143.129 21.9083 143.018 21.8791V19.2792C143.087 19.2938 143.191 19.301 143.33 19.301C143.593 19.301 143.822 19.2209 144.016 19.0607C144.21 18.8859 144.369 18.5946 144.494 18.1868C144.632 17.779 144.729 17.24 144.785 16.57C144.854 15.8854 144.888 15.0407 144.888 14.0356V10.103H153.617V21.6825H150.874V12.5063H147.424V14.4726C147.424 15.9728 147.348 17.2109 147.195 18.1868C147.057 19.1481 146.835 19.9055 146.53 20.459C146.239 21.0125 145.865 21.3985 145.408 21.617C144.965 21.8354 144.445 21.9447 143.849 21.9447ZM158.952 21.5951C159.631 21.8281 160.344 21.9447 161.092 21.9447C162.381 21.9447 163.462 21.6388 164.334 21.0271C165.207 20.4153 165.755 19.505 165.976 18.296H163.462C163.309 18.7184 163.053 19.0389 162.693 19.2574C162.332 19.4758 161.799 19.5851 161.092 19.5851C160.76 19.5851 160.427 19.5341 160.095 19.4321C159.776 19.3156 159.492 19.1408 159.243 18.9078C158.994 18.6747 158.793 18.3761 158.64 18.012C158.488 17.6333 158.405 17.1891 158.391 16.6793H166.184V15.4558C166.184 13.6351 165.734 12.2441 164.833 11.2828C163.933 10.3214 162.617 9.84079 160.885 9.84079C160.15 9.84079 159.465 9.96459 158.827 10.2122C158.19 10.4453 157.629 10.8021 157.144 11.2828C156.659 11.7489 156.278 12.3388 156.001 13.0525C155.724 13.7662 155.585 14.6037 155.585 15.565V16.002C155.585 17.007 155.731 17.8882 156.022 18.6456C156.313 19.3884 156.708 20.0075 157.206 20.5027C157.705 20.9834 158.287 21.3475 158.952 21.5951ZM168.16 10.103H170.903V14.6474H171.942L175.309 10.103H178.343L174.187 15.5869L178.551 21.6825H175.267L171.942 16.9196H170.903V21.6825H168.16V10.103ZM182.555 21.5951C183.234 21.8281 183.947 21.9447 184.695 21.9447C185.443 21.9447 186.15 21.8209 186.815 21.5733C187.48 21.3256 188.062 20.9542 188.561 20.459C189.073 19.9638 189.475 19.3447 189.766 18.6019C190.057 17.8591 190.202 16.9924 190.202 16.002V15.565C190.202 14.6183 190.057 13.788 189.766 13.0743C189.475 12.3606 189.073 11.7634 188.561 11.2828C188.062 10.8021 187.48 10.4453 186.815 10.2122C186.15 9.96459 185.443 9.84079 184.695 9.84079C183.947 9.84079 183.234 9.96459 182.555 10.2122C181.89 10.4453 181.308 10.8021 180.809 11.2828C180.31 11.7634 179.915 12.3606 179.624 13.0743C179.333 13.788 179.188 14.6183 179.188 15.565V16.002C179.188 17.007 179.333 17.8809 179.624 18.6238C179.915 19.3666 180.31 19.9856 180.809 20.4808C181.308 20.9761 181.89 21.3475 182.555 21.5951ZM192.168 10.103H195.41L198.465 16.3515L201.52 10.103H204.637V21.6825H202.019V14.1449L199.338 19.3884H197.468L194.787 14.1449V21.6825H192.168V10.103Z" fill="white"/>
</svg>
