<svg width="128" height="27" viewBox="0 0 128 27" fill="none" xmlns="http://www.w3.org/2000/svg">
<g clip-path="url(#clip08769876)">
<g clip-path="url(#clip180980)">
<path fill-rule="evenodd" clip-rule="evenodd" d="M27.8289 21.0718H23.7912V3.7854H4.94859V21.0718H0.910889V22.6701H3.93916L2.04649 25.2777L2.7615 25.7824L4.99065 22.6701H6.92538L5.03271 25.2777L5.74771 25.7824L8.01892 22.6701H9.91159L8.01892 25.2777L8.73393 25.7824L11.0051 22.6701H12.8978L11.0051 25.2777L11.7201 25.7824L13.9913 22.6701H15.884L14.0334 25.2777L14.7064 25.7824L16.9776 22.6701H18.9123L17.0196 25.2777L17.7346 25.7824L19.9638 22.6701H21.8985L20.0058 25.2777L20.7208 25.7824L22.95 22.6701H24.8847L22.9921 25.2777L23.7071 25.7824L25.9783 22.6701H27.8289V21.0718ZM22.2349 5.38362H6.5468V21.0718H22.2349V5.38362ZM18.7441 8.58007L18.7861 17.749H17.1037V17.7069L17.0617 10.683L16.6831 11.7766L15.2111 15.3516H13.5708L12.0566 11.7766L11.636 10.7251L11.6781 17.749L9.99571 17.7911L9.95365 8.58007H12.3931L14.4119 13.3748L16.3467 8.58007H18.7441Z" fill="white"/>
</g>
</g>
<g clip-path="url(#clip269876987)">
<path fill-rule="evenodd" clip-rule="evenodd" d="M110.77 19.5156C109.256 19.5156 108.162 19.1792 107.447 18.5062C106.732 17.8333 106.312 16.7818 106.228 15.3518H108.415C108.457 16.193 108.667 16.7397 109.046 17.0762C109.424 17.4127 109.971 17.5809 110.77 17.5809C111.611 17.5809 112.2 17.4127 112.578 17.1183C112.957 16.8238 113.167 16.4453 113.167 15.9827C113.167 15.52 112.999 15.1835 112.663 14.9732C112.326 14.7209 111.906 14.5526 111.401 14.3844C110.896 14.2162 110.349 14.09 109.761 13.9638C109.172 13.8376 108.625 13.6273 108.12 13.375C107.615 13.1226 107.195 12.7861 106.858 12.3655C106.522 11.945 106.354 11.3561 106.354 10.6411C106.354 10.1785 106.438 9.71581 106.606 9.29522C106.774 8.87462 107.069 8.53815 107.405 8.24373C107.784 7.94932 108.204 7.69696 108.751 7.52872C109.298 7.36049 109.929 7.27637 110.686 7.27637C112.158 7.27637 113.209 7.57078 113.924 8.20167C114.597 8.83256 114.976 9.79993 115.06 11.1038H112.873C112.831 10.4308 112.621 9.92611 112.284 9.63169C111.948 9.33728 111.401 9.16904 110.686 9.2111C109.929 9.2111 109.382 9.33728 109.003 9.63169C108.667 9.92611 108.499 10.2626 108.499 10.6411C108.499 11.0617 108.667 11.3982 109.003 11.6085C109.34 11.8188 109.761 12.0291 110.265 12.1553C110.77 12.3235 111.317 12.4497 111.906 12.5758C112.494 12.702 113.041 12.9123 113.546 13.1647C114.051 13.417 114.471 13.7535 114.808 14.2162C115.144 14.6788 115.312 15.2676 115.312 16.0247C115.312 16.5294 115.228 16.9921 115.06 17.4547C114.892 17.9174 114.597 18.2539 114.219 18.5483C113.84 18.8427 113.378 19.095 112.789 19.2633C112.2 19.4315 111.527 19.5156 110.77 19.5156ZM99.2457 7.40257H96.8483L92.6003 19.3895H94.7454L95.7127 16.3612H100.255L101.265 19.3895H103.536L99.2457 7.40257ZM98.8251 11.945L99.7084 14.5527H96.3436L97.2269 11.945L98.026 9.46347L98.8251 11.945ZM68.8368 9.29528H72.538V19.4316H74.5989L74.5569 9.25322H78.2581V7.44467L68.8368 7.48673V9.29528ZM53.9899 7.52876H51.929L51.971 19.5157H54.0319L53.9899 7.52876ZM38.9746 7.57076H35.9043L35.9464 19.5156H38.0073L37.9652 9.84197L38.6802 11.6505L40.6149 16.4032H42.6759L44.6106 11.6926L45.3256 9.84197L45.3677 19.5577H47.4286L47.3865 7.57076H44.3582L41.7085 14.0479L38.9746 7.57076ZM58.4902 7.52876H62.612C64.2102 7.52876 65.3879 7.86524 66.145 8.53819C66.902 9.21114 67.2385 10.1785 67.2385 11.4823C67.2385 12.66 66.86 13.6274 66.0608 14.3424C65.3038 15.0574 64.1261 15.4359 62.612 15.4359H60.5511V19.5157H58.4902V7.52876ZM60.5511 9.33732V13.6274H62.612C63.4532 13.6274 64.042 13.4171 64.4626 13.0385C64.8832 12.66 65.0935 12.1132 65.0935 11.4823C65.0935 10.8094 64.8832 10.2626 64.5046 9.88409C64.1261 9.50555 63.4952 9.33732 62.612 9.33732H60.5511ZM81.2022 7.44467H85.2399C86.039 7.44467 86.712 7.52878 87.2588 7.65496C87.8055 7.8232 88.2682 7.99144 88.6047 8.28585C88.9411 8.53821 89.1935 8.91674 89.3617 9.29528C89.53 9.71587 89.6141 10.1785 89.6141 10.6832C89.6141 11.1879 89.4879 11.6927 89.2355 12.1133C88.9832 12.5338 88.6046 12.9124 88.0579 13.2068C88.6888 13.4592 89.1935 13.8377 89.4879 14.3424C89.7823 14.8471 89.9506 15.3939 89.9506 15.9827C89.9506 16.5295 89.8664 17.0342 89.6982 17.4548C89.53 17.8754 89.2776 18.2539 88.9411 18.5483C88.6047 18.8428 88.142 19.053 87.5952 19.2213C87.0485 19.3895 86.3755 19.4316 85.5764 19.4316H81.2022V7.44467ZM83.2631 9.21116V12.4497H85.2399C86.0811 12.4497 86.6279 12.3236 86.9643 12.0291C87.3008 11.7347 87.4691 11.3562 87.4691 10.8094C87.4691 10.3047 87.3008 9.88411 86.9643 9.63175C86.6279 9.33734 86.0811 9.21116 85.2399 9.21116H83.2631ZM83.2631 14.1321V17.7071H85.5764C86.4176 17.7071 86.9643 17.5389 87.3008 17.2866C87.6373 16.9921 87.8055 16.5295 87.8055 15.9407C87.8055 15.3518 87.6373 14.8892 87.3008 14.5948C86.9643 14.3003 86.4176 14.1742 85.5764 14.1742L83.2631 14.1321ZM126.921 7.36047H119.224V19.3474H126.921V17.5388H121.285V14.09H125.911V12.2814H121.285V9.16902H126.921V7.36047Z" fill="white"/>
<path d="M107.447 18.5062L107.504 18.4456V18.4456L107.447 18.5062ZM106.228 15.3518V15.2685H106.139L106.144 15.3567L106.228 15.3518ZM108.415 15.3518L108.498 15.3476L108.494 15.2685H108.415V15.3518ZM109.046 17.0762L109.101 17.014V17.014L109.046 17.0762ZM112.578 17.1183L112.63 17.184H112.63L112.578 17.1183ZM112.663 14.9732L112.612 15.0401L112.618 15.0438L112.663 14.9732ZM111.401 14.3844L111.427 14.3054L111.401 14.3844ZM108.12 13.375L108.083 13.4494L108.12 13.375ZM106.858 12.3655L106.923 12.3135L106.858 12.3655ZM106.606 9.29522L106.683 9.32614L106.606 9.29522ZM107.405 8.24373L107.354 8.1779L107.35 8.18108L107.405 8.24373ZM108.751 7.52872L108.727 7.44915V7.44915L108.751 7.52872ZM113.924 8.20167L113.981 8.14091L113.979 8.13924L113.924 8.20167ZM115.06 11.1038V11.187H115.149L115.143 11.0984L115.06 11.1038ZM112.873 11.1038L112.79 11.109L112.795 11.187H112.873V11.1038ZM112.284 9.63169L112.229 9.69435V9.69435L112.284 9.63169ZM110.686 9.2111V9.2945L110.691 9.29421L110.686 9.2111ZM109.003 9.63169L108.952 9.56586L108.949 9.56903L109.003 9.63169ZM109.003 11.6085L108.959 11.6791V11.6791L109.003 11.6085ZM110.265 12.1553L110.292 12.076L110.285 12.0745L110.265 12.1553ZM111.906 12.5758L111.923 12.4944L111.906 12.5758ZM113.546 13.1647L113.509 13.2391L113.546 13.1647ZM114.808 14.2162L114.875 14.1672V14.1672L114.808 14.2162ZM112.789 19.2633L112.812 19.3433L112.789 19.2633ZM96.8483 7.40257V7.31931H96.7895L96.7699 7.37476L96.8483 7.40257ZM99.2457 7.40257L99.3241 7.37451L99.3043 7.31931H99.2457V7.40257ZM92.6003 19.3895L92.5219 19.3617L92.4825 19.4727H92.6003V19.3895ZM94.7454 19.3895V19.4727H94.8062L94.8247 19.4148L94.7454 19.3895ZM95.7127 16.3612V16.278H95.6519L95.6334 16.3359L95.7127 16.3612ZM100.255 16.3612L100.334 16.3349L100.315 16.278H100.255V16.3612ZM101.265 19.3895L101.186 19.4158L101.205 19.4727H101.265V19.3895ZM103.536 19.3895V19.4727H103.654L103.614 19.3614L103.536 19.3895ZM99.7084 14.5527V14.6359H99.8245L99.7872 14.5259L99.7084 14.5527ZM98.8251 11.945L98.7459 11.9705L98.7463 11.9717L98.8251 11.945ZM96.3436 14.5527L96.2648 14.5259L96.2275 14.6359H96.3436V14.5527ZM97.2269 11.945L97.3057 11.9717L97.3061 11.9705L97.2269 11.945ZM98.026 9.46347L98.1052 9.43795L98.026 9.19187L97.9467 9.43795L98.026 9.46347ZM72.538 9.29528H72.6213V9.21202H72.538V9.29528ZM68.8368 9.29528H68.7535V9.37853H68.8368V9.29528ZM72.538 19.4316H72.4548V19.5148H72.538V19.4316ZM74.5989 19.4316V19.5148H74.6825L74.6822 19.4312L74.5989 19.4316ZM74.5569 9.25322V9.16996H74.4733L74.4736 9.25356L74.5569 9.25322ZM78.2581 9.25322V9.33648H78.3413V9.25322H78.2581ZM78.2581 7.44467H78.3413V7.36104L78.2577 7.36141L78.2581 7.44467ZM68.8368 7.48673L68.8364 7.40347L68.7535 7.40384V7.48673H68.8368ZM51.929 7.52876V7.44551H51.8454L51.8457 7.52906L51.929 7.52876ZM53.9899 7.52876L54.0731 7.52847L54.0728 7.44551H53.9899V7.52876ZM51.971 19.5157L51.8878 19.516L51.888 19.5989H51.971V19.5157ZM54.0319 19.5157V19.5989H54.1155L54.1152 19.5154L54.0319 19.5157ZM35.9043 7.57076V7.48751H35.8207L35.821 7.57106L35.9043 7.57076ZM38.9746 7.57076L39.0513 7.53839L39.0299 7.48751H38.9746V7.57076ZM35.9464 19.5156L35.8631 19.5159L35.8634 19.5989H35.9464V19.5156ZM38.0073 19.5156V19.5989H38.0909L38.0905 19.5153L38.0073 19.5156ZM37.9652 9.84197L38.0426 9.81136L37.88 9.40007L37.8819 9.84233L37.9652 9.84197ZM38.6802 11.6505L38.6028 11.6811L38.6031 11.6819L38.6802 11.6505ZM40.6149 16.4032L40.5378 16.4346L40.5589 16.4865H40.6149V16.4032ZM42.6759 16.4032V16.4865H42.7317L42.7529 16.4349L42.6759 16.4032ZM44.6106 11.6926L44.6876 11.7242L44.6882 11.7226L44.6106 11.6926ZM45.3256 9.84197L45.4088 9.84161L45.4069 9.40041L45.2479 9.81196L45.3256 9.84197ZM45.3677 19.5577L45.2844 19.558L45.2848 19.6409H45.3677V19.5577ZM47.4286 19.5577V19.6409H47.5121L47.5118 19.5574L47.4286 19.5577ZM47.3865 7.57076L47.4698 7.57047L47.4695 7.48751H47.3865V7.57076ZM44.3582 7.57076V7.48751H44.3023L44.2812 7.53924L44.3582 7.57076ZM41.7085 14.0479L41.6318 14.0803L41.7097 14.2649L41.7855 14.0794L41.7085 14.0479ZM58.4902 7.52876V7.44551H58.4069V7.52876H58.4902ZM66.145 8.53819L66.2003 8.47596L66.145 8.53819ZM66.0608 14.3424L66.0053 14.2803L66.0037 14.2819L66.0608 14.3424ZM60.5511 15.4359V15.3527H60.4678V15.4359H60.5511ZM60.5511 19.5157V19.5989H60.6343V19.5157H60.5511ZM58.4902 19.5157H58.4069V19.5989H58.4902V19.5157ZM60.5511 13.6274H60.4678V13.7106H60.5511V13.6274ZM60.5511 9.33732V9.25406H60.4678V9.33732H60.5511ZM64.5046 9.88409L64.4458 9.94296L64.5046 9.88409ZM81.2022 7.44467V7.36141H81.1189V7.44467H81.2022ZM87.2588 7.65496L87.2833 7.57518L87.2775 7.57384L87.2588 7.65496ZM88.6047 8.28585L88.5497 8.34869L88.5547 8.35246L88.6047 8.28585ZM89.3617 9.29528L89.4391 9.26433L89.4378 9.26146L89.3617 9.29528ZM88.0579 13.2068L88.0184 13.1335L87.8616 13.2179L88.027 13.2841L88.0579 13.2068ZM89.4879 14.3424L89.416 14.3844V14.3844L89.4879 14.3424ZM89.6982 17.4548L89.6209 17.4239H89.6209L89.6982 17.4548ZM81.2022 19.4316H81.1189V19.5148H81.2022V19.4316ZM83.2631 12.4497H83.1799V12.533H83.2631V12.4497ZM83.2631 9.21116V9.1279H83.1799V9.21116H83.2631ZM86.9643 9.63175L86.9094 9.69459L86.9144 9.69836L86.9643 9.63175ZM83.2631 17.7071H83.1799V17.7904H83.2631V17.7071ZM83.2631 14.1321L83.2646 14.0489L83.1799 14.0473V14.1321H83.2631ZM87.3008 17.2866L87.3509 17.3533L87.3556 17.3492L87.3008 17.2866ZM85.5764 14.1742L85.5749 14.2574H85.5764V14.1742ZM119.224 7.36047V7.27721H119.141V7.36047H119.224ZM126.921 7.36047H127.004V7.27721H126.921V7.36047ZM119.224 19.3474H119.141V19.4306H119.224V19.3474ZM126.921 19.3474V19.4306H127.004V19.3474H126.921ZM126.921 17.5388H127.004V17.4556H126.921V17.5388ZM121.285 17.5388H121.202V17.6221H121.285V17.5388ZM121.285 14.09V14.0067H121.202V14.09H121.285ZM125.911 14.09V14.1732H125.995V14.09H125.911ZM125.911 12.2814H125.995V12.1982H125.911V12.2814ZM121.285 12.2814H121.202V12.3647H121.285V12.2814ZM121.285 9.16902V9.08576H121.202V9.16902H121.285ZM126.921 9.16902V9.25227H127.004V9.16902H126.921ZM107.39 18.5668C108.127 19.2603 109.245 19.5989 110.77 19.5989V19.4324C109.266 19.4324 108.198 19.098 107.504 18.4456L107.39 18.5668ZM106.144 15.3567C106.229 16.7995 106.654 17.8744 107.39 18.5668L107.504 18.4456C106.81 17.7921 106.394 16.7641 106.311 15.3469L106.144 15.3567ZM108.415 15.2685H106.228V15.435H108.415V15.2685ZM109.101 17.014C108.746 16.6989 108.539 16.1788 108.498 15.3476L108.331 15.3559C108.374 16.2071 108.588 16.7805 108.99 17.1384L109.101 17.014ZM110.77 17.4977C109.981 17.4977 109.458 17.3316 109.101 17.014L108.99 17.1384C109.39 17.4938 109.96 17.6642 110.77 17.6642V17.4977ZM112.527 17.0525C112.17 17.3309 111.602 17.4977 110.77 17.4977V17.6642C111.62 17.6642 112.23 17.4945 112.63 17.184L112.527 17.0525ZM113.084 15.9827C113.084 16.4159 112.889 16.7715 112.527 17.0525L112.63 17.184C113.025 16.8762 113.251 16.4747 113.251 15.9827H113.084ZM112.618 15.0438C112.926 15.2362 113.084 15.5431 113.084 15.9827H113.251C113.251 15.4969 113.072 15.1309 112.707 14.9026L112.618 15.0438ZM111.374 14.4634C111.878 14.6313 112.288 14.7961 112.613 15.0398L112.713 14.9066C112.365 14.6456 111.933 14.474 111.427 14.3054L111.374 14.4634ZM109.743 14.0452C110.332 14.1713 110.875 14.2967 111.374 14.4634L111.427 14.3054C110.918 14.1356 110.367 14.0086 109.778 13.8824L109.743 14.0452ZM108.083 13.4494C108.593 13.7043 109.146 13.9173 109.743 14.0452L109.778 13.8824C109.197 13.758 108.657 13.5504 108.157 13.3005L108.083 13.4494ZM106.793 12.4176C107.138 12.848 107.568 13.192 108.083 13.4494L108.157 13.3005C107.663 13.0533 107.252 12.7243 106.923 12.3135L106.793 12.4176ZM106.27 10.6411C106.27 11.3682 106.441 11.9776 106.793 12.4176L106.923 12.3135C106.602 11.9123 106.437 11.3441 106.437 10.6411H106.27ZM106.529 9.2643C106.356 9.69537 106.27 10.1686 106.27 10.6411H106.437C106.437 10.1883 106.519 9.73624 106.683 9.32614L106.529 9.2643ZM107.35 8.18108C107.009 8.4799 106.704 8.82666 106.529 9.2643L106.683 9.32614C106.845 8.92258 107.129 8.59639 107.46 8.30639L107.35 8.18108ZM108.727 7.44915C108.168 7.62102 107.739 7.87896 107.354 8.17801L107.456 8.30945C107.829 8.01967 108.241 7.7729 108.776 7.6083L108.727 7.44915ZM110.686 7.19311C109.923 7.19311 109.283 7.27789 108.727 7.44915L108.776 7.6083C109.313 7.44308 109.935 7.35962 110.686 7.35962V7.19311ZM113.979 8.13924C113.243 7.48905 112.167 7.19311 110.686 7.19311V7.35962C112.149 7.35962 113.176 7.65252 113.869 8.2641L113.979 8.13924ZM115.143 11.0984C115.058 9.78226 114.675 8.79137 113.981 8.14093L113.867 8.26241C114.52 8.87376 114.894 9.8176 114.977 11.1091L115.143 11.0984ZM112.873 11.187H115.06V11.0205H112.873V11.187ZM112.229 9.69435C112.543 9.96887 112.749 10.4486 112.79 11.109L112.956 11.0986C112.913 10.413 112.698 9.88334 112.339 9.56903L112.229 9.69435ZM110.691 9.29421C111.392 9.25296 111.914 9.41886 112.229 9.69435L112.339 9.56903C111.981 9.25569 111.41 9.08511 110.681 9.12798L110.691 9.29421ZM109.055 9.69741C109.411 9.41999 109.935 9.29435 110.686 9.29435V9.12784C109.922 9.12784 109.353 9.25457 108.952 9.56597L109.055 9.69741ZM108.582 10.6411C108.582 10.291 108.736 9.9761 109.058 9.69435L108.949 9.56903C108.598 9.87611 108.415 10.2342 108.415 10.6411H108.582ZM109.048 11.5379C108.739 11.3447 108.582 11.0369 108.582 10.6411H108.415C108.415 11.0866 108.595 11.4516 108.959 11.6791L109.048 11.5379ZM110.285 12.0745C109.791 11.951 109.379 11.7449 109.048 11.5379L108.959 11.6791C109.301 11.8927 109.73 12.1072 110.245 12.236L110.285 12.0745ZM111.923 12.4944C111.334 12.3683 110.792 12.2429 110.292 12.0763L110.239 12.2342C110.748 12.4041 111.299 12.531 111.888 12.6573L111.923 12.4944ZM113.583 13.0902C113.073 12.8354 112.52 12.6224 111.923 12.4944L111.888 12.6573C112.469 12.7817 113.009 12.9892 113.509 13.2391L113.583 13.0902ZM114.875 14.1672C114.53 13.6926 114.098 13.3478 113.583 13.0902L113.509 13.2391C114.003 13.4862 114.413 13.8144 114.74 14.2651L114.875 14.1672ZM115.396 16.0247C115.396 15.2551 115.224 14.6477 114.875 14.1672L114.74 14.2651C115.064 14.7099 115.229 15.2802 115.229 16.0247H115.396ZM115.138 17.4832C115.31 17.0116 115.396 16.5393 115.396 16.0247H115.229C115.229 16.5195 115.147 16.9726 114.982 17.4263L115.138 17.4832ZM114.27 18.614C114.657 18.3131 114.963 17.9648 115.138 17.4832L114.982 17.4263C114.82 17.87 114.538 18.1946 114.168 18.4826L114.27 18.614ZM112.812 19.3433C113.411 19.1721 113.883 18.9148 114.27 18.614L114.168 18.4826C113.797 18.7706 113.344 19.018 112.766 19.1832L112.812 19.3433ZM110.77 19.5989C111.533 19.5989 112.214 19.5141 112.812 19.3433L112.766 19.1832C112.186 19.3489 111.521 19.4324 110.77 19.4324V19.5989ZM96.8483 7.48582H99.2457V7.31931H96.8483V7.48582ZM92.6788 19.4173L96.9268 7.43038L96.7699 7.37476L92.5219 19.3617L92.6788 19.4173ZM94.7454 19.3062H92.6003V19.4727H94.7454V19.3062ZM95.6334 16.3359L94.666 19.3641L94.8247 19.4148L95.792 16.3865L95.6334 16.3359ZM100.255 16.278H95.7127V16.4445H100.255V16.278ZM101.344 19.3632L100.334 16.3349L100.176 16.3875L101.186 19.4158L101.344 19.3632ZM103.536 19.3062H101.265V19.4727H103.536V19.3062ZM99.1673 7.43062L103.457 19.4175L103.614 19.3614L99.3241 7.37451L99.1673 7.43062ZM99.7872 14.5259L98.904 11.9183L98.7463 11.9717L99.6295 14.5794L99.7872 14.5259ZM96.3436 14.6359H99.7084V14.4694H96.3436V14.6359ZM97.148 11.9183L96.2648 14.5259L96.4225 14.5794L97.3057 11.9717L97.148 11.9183ZM97.9467 9.43795L97.1476 11.9195L97.3061 11.9705L98.1052 9.489L97.9467 9.43795ZM98.9044 11.9195L98.1052 9.43795L97.9467 9.489L98.7459 11.9705L98.9044 11.9195ZM72.538 9.21202H68.8368V9.37853H72.538V9.21202ZM72.6213 19.4316V9.29528H72.4548V19.4316H72.6213ZM74.5989 19.3483H72.538V19.5148H74.5989V19.3483ZM74.4736 9.25356L74.5157 19.4319L74.6822 19.4312L74.6401 9.25287L74.4736 9.25356ZM78.2581 9.16996H74.5569V9.33648H78.2581V9.16996ZM78.1748 7.44467V9.25322H78.3413V7.44467H78.1748ZM68.8372 7.56998L78.2585 7.52792L78.2577 7.36141L68.8364 7.40347L68.8372 7.56998ZM68.9201 9.29528V7.48673H68.7535V9.29528H68.9201ZM51.929 7.61202H53.9899V7.44551H51.929V7.61202ZM52.0543 19.5154L52.0122 7.52847L51.8457 7.52906L51.8878 19.516L52.0543 19.5154ZM54.0319 19.4324H51.971V19.5989H54.0319V19.4324ZM53.9066 7.52906L53.9487 19.516L54.1152 19.5154L54.0731 7.52847L53.9066 7.52906ZM35.9043 7.65402H38.9746V7.48751H35.9043V7.65402ZM36.0296 19.5153L35.9876 7.57047L35.821 7.57106L35.8631 19.5159L36.0296 19.5153ZM38.0073 19.4324H35.9464V19.5989H38.0073V19.4324ZM37.8819 9.84233L37.924 19.516L38.0905 19.5153L38.0485 9.84161L37.8819 9.84233ZM38.7576 11.6199L38.0426 9.81136L37.8878 9.87258L38.6028 11.6811L38.7576 11.6199ZM40.6921 16.3718L38.7573 11.6191L38.6031 11.6819L40.5378 16.4346L40.6921 16.3718ZM42.6759 16.32H40.6149V16.4865H42.6759V16.32ZM44.5336 11.6609L42.5988 16.3716L42.7529 16.4349L44.6876 11.7242L44.5336 11.6609ZM45.2479 9.81196L44.5329 11.6626L44.6882 11.7226L45.4033 9.87197L45.2479 9.81196ZM45.4509 19.5573L45.4088 9.84161L45.2423 9.84233L45.2844 19.558L45.4509 19.5573ZM47.4286 19.4744H45.3677V19.6409H47.4286V19.4744ZM47.3032 7.57105L47.3453 19.558L47.5118 19.5574L47.4698 7.57047L47.3032 7.57105ZM44.3582 7.65402H47.3865V7.48751H44.3582V7.65402ZM41.7855 14.0794L44.4353 7.60229L44.2812 7.53924L41.6314 14.0164L41.7855 14.0794ZM38.8979 7.60314L41.6318 14.0803L41.7852 14.0155L39.0513 7.53839L38.8979 7.60314ZM62.612 7.44551H58.4902V7.61202H62.612V7.44551ZM66.2003 8.47596C65.4213 7.78352 64.2194 7.44551 62.612 7.44551V7.61202C64.201 7.61202 65.3545 7.94696 66.0896 8.60042L66.2003 8.47596ZM67.3218 11.4823C67.3218 10.1641 66.9811 9.17003 66.2003 8.47596L66.0896 8.60042C66.8229 9.25225 67.1552 10.1929 67.1552 11.4823H67.3218ZM66.1164 14.4044C66.9361 13.671 67.3218 12.6794 67.3218 11.4823H67.1552C67.1552 12.6406 66.7838 13.5838 66.0053 14.2803L66.1164 14.4044ZM62.612 15.5192C64.1382 15.5192 65.3399 15.1378 66.118 14.4029L66.0037 14.2819C65.2676 14.977 64.114 15.3527 62.612 15.3527V15.5192ZM60.5511 15.5192H62.612V15.3527H60.5511V15.5192ZM60.6343 19.5157V15.4359H60.4678V19.5157H60.6343ZM58.4902 19.5989H60.5511V19.4324H58.4902V19.5989ZM58.4069 7.52876V19.5157H58.5734V7.52876H58.4069ZM60.6343 13.6274V9.33732H60.4678V13.6274H60.6343ZM62.612 13.5441H60.5511V13.7106H62.612V13.5441ZM64.4069 12.9767C64.0057 13.3377 63.4389 13.5441 62.612 13.5441V13.7106C63.4674 13.7106 64.0783 13.4964 64.5183 13.1004L64.4069 12.9767ZM65.0102 11.4823C65.0102 12.0945 64.8066 12.6169 64.4069 12.9767L64.5183 13.1004C64.9597 12.7031 65.1767 12.132 65.1767 11.4823H65.0102ZM64.4458 9.94296C64.8058 10.3029 65.0102 10.827 65.0102 11.4823H65.1767C65.1767 10.7918 64.9606 10.2223 64.5635 9.82522L64.4458 9.94296ZM62.612 9.42057C63.4891 9.42057 64.0913 9.58853 64.4458 9.94296L64.5635 9.82522C64.1609 9.42258 63.5013 9.25406 62.612 9.25406V9.42057ZM60.5511 9.42057H62.612V9.25406H60.5511V9.42057ZM85.2399 7.36141H81.2022V7.52792H85.2399V7.36141ZM87.2775 7.57384C86.7241 7.44613 86.0448 7.36141 85.2399 7.36141V7.52792C86.0332 7.52792 86.6999 7.61144 87.24 7.73609L87.2775 7.57384ZM88.6595 8.2232C88.308 7.91566 87.829 7.74331 87.2832 7.57539L87.2343 7.73454C87.7821 7.90309 88.2283 8.06721 88.5498 8.34851L88.6595 8.2232ZM89.4378 9.26146C89.266 8.87495 89.0061 8.4829 88.6546 8.21925L88.5547 8.35246C88.8761 8.59352 89.121 8.95854 89.2856 9.32909L89.4378 9.26146ZM89.6973 10.6832C89.6973 10.1691 89.6116 9.69585 89.439 9.26436L89.2844 9.3262C89.4483 9.7359 89.5308 10.1879 89.5308 10.6832H89.6973ZM89.3069 12.1561C89.5679 11.7211 89.6973 11.2013 89.6973 10.6832H89.5308C89.5308 11.1746 89.4079 11.6642 89.1642 12.0704L89.3069 12.1561ZM88.0974 13.2801C88.6568 12.9788 89.0466 12.59 89.3069 12.1561L89.1642 12.0704C88.9198 12.4777 88.5525 12.8459 88.0184 13.1335L88.0974 13.2801ZM89.5598 14.3004C89.2534 13.7752 88.7314 13.3865 88.0888 13.1295L88.027 13.2841C88.6462 13.5318 89.1335 13.9001 89.416 14.3844L89.5598 14.3004ZM90.0338 15.9827C90.0338 15.3773 89.8607 14.8162 89.5598 14.3004L89.416 14.3844C89.704 14.8781 89.8673 15.4105 89.8673 15.9827H90.0338ZM89.7755 17.4857C89.9485 17.0531 90.0338 16.5375 90.0338 15.9827H89.8673C89.8673 16.5215 89.7843 17.0153 89.6209 17.4239L89.7755 17.4857ZM88.996 18.611C89.3436 18.3068 89.603 17.9169 89.7755 17.4857L89.6209 17.4239C89.4569 17.8339 89.2116 18.201 88.8863 18.4857L88.996 18.611ZM87.6197 19.3009C88.171 19.1312 88.6466 18.9167 88.996 18.611L88.8863 18.4857C88.5627 18.7688 88.113 18.9749 87.5707 19.1417L87.6197 19.3009ZM85.5764 19.5148C86.3764 19.5148 87.0601 19.473 87.6197 19.3009L87.5707 19.1417C87.0368 19.306 86.3746 19.3483 85.5764 19.3483V19.5148ZM81.2022 19.5148H85.5764V19.3483H81.2022V19.5148ZM81.1189 7.44467V19.4316H81.2855V7.44467H81.1189ZM83.3464 12.4497V9.21116H83.1799V12.4497H83.3464ZM85.2399 12.3665H83.2631V12.533H85.2399V12.3665ZM86.9095 11.9665C86.5974 12.2396 86.0779 12.3665 85.2399 12.3665V12.533C86.0843 12.533 86.6583 12.4075 87.0192 12.0918L86.9095 11.9665ZM87.3858 10.8094C87.3858 11.3356 87.2255 11.69 86.9095 11.9665L87.0192 12.0918C87.3761 11.7794 87.5523 11.3767 87.5523 10.8094H87.3858ZM86.9144 9.69836C87.2239 9.93046 87.3858 10.3223 87.3858 10.8094H87.5523C87.5523 10.2871 87.3778 9.83776 87.0143 9.56515L86.9144 9.69836ZM85.2399 9.29442C86.0779 9.29442 86.5974 9.42129 86.9095 9.69441L87.0192 9.5691C86.6583 9.25338 86.0843 9.1279 85.2399 9.1279V9.29442ZM83.2631 9.29442H85.2399V9.1279H83.2631V9.29442ZM83.3464 17.7071V14.1321H83.1799V17.7071H83.3464ZM85.5764 17.6239H83.2631V17.7904H85.5764V17.6239ZM87.2509 17.2199C86.9345 17.4572 86.4083 17.6239 85.5764 17.6239V17.7904C86.4268 17.7904 86.9942 17.6206 87.3508 17.3532L87.2509 17.2199ZM87.7223 15.9407C87.7223 16.5146 87.5585 16.9505 87.246 17.2239L87.3556 17.3492C87.7161 17.0338 87.8888 16.5443 87.8888 15.9407H87.7223ZM87.246 14.6574C87.5585 14.9309 87.7223 15.3667 87.7223 15.9407H87.8888C87.8888 15.337 87.7161 14.8475 87.3556 14.5321L87.246 14.6574ZM85.5764 14.2574C86.4144 14.2574 86.9339 14.3843 87.246 14.6574L87.3556 14.5321C86.9948 14.2164 86.4208 14.0909 85.5764 14.0909V14.2574ZM83.2616 14.2153L85.5749 14.2574L85.5779 14.0909L83.2646 14.0489L83.2616 14.2153ZM119.224 7.44372H126.921V7.27721H119.224V7.44372ZM119.307 19.3474V7.36047H119.141V19.3474H119.307ZM126.921 19.2641H119.224V19.4306H126.921V19.2641ZM126.838 17.5388V19.3474H127.004V17.5388H126.838ZM121.285 17.6221H126.921V17.4556H121.285V17.6221ZM121.202 14.09V17.5388H121.368V14.09H121.202ZM125.911 14.0067H121.285V14.1732H125.911V14.0067ZM125.828 12.2814V14.09H125.995V12.2814H125.828ZM121.285 12.3647H125.911V12.1982H121.285V12.3647ZM121.202 9.16902V12.2814H121.368V9.16902H121.202ZM126.921 9.08576H121.285V9.25227H126.921V9.08576ZM126.838 7.36047V9.16902H127.004V7.36047H126.838Z" fill="white"/>
</g>
<defs>
<clipPath id="clip08769876">
<rect width="26.918" height="26.918" fill="white" transform="translate(0.910889)"/>
</clipPath>
<clipPath id="clip180980">
<rect width="26.918" height="21.997" fill="white" transform="translate(0.910889 3.7854)"/>
</clipPath>
<clipPath id="clip269876987">
<rect width="91.1847" height="12.4916" fill="white" transform="translate(35.8201 7.15015)"/>
</clipPath>
</defs>
</svg>
