<svg width="31" height="30" viewBox="0 0 31 30" fill="none" xmlns="http://www.w3.org/2000/svg">
<path fill-rule="evenodd" clip-rule="evenodd" d="M30.6862 14.8139C30.6862 22.9517 24.0088 29.5487 15.7717 29.5487C7.53463 29.5487 0.857178 22.9517 0.857178 14.8139C0.857178 6.67611 7.53463 0.0791016 15.7717 0.0791016C24.0088 0.0791016 30.6862 6.67611 30.6862 14.8139ZM16.3054 10.9563C14.8557 11.5516 11.9563 12.7864 7.60727 14.6577C6.90331 14.9347 6.53343 15.2058 6.50061 15.474C6.44289 15.9199 7.01067 16.0967 7.78367 16.3374C7.88943 16.3703 7.99902 16.4044 8.11138 16.4406C8.87202 16.6852 9.89516 16.9711 10.4291 16.9828C10.9123 16.9946 11.4493 16.7972 12.0458 16.3934C16.1085 13.6852 18.2055 12.3149 18.3368 12.2854C18.4322 12.2648 18.5605 12.2382 18.647 12.3149C18.7335 12.3915 18.7246 12.5359 18.7156 12.5742C18.6581 12.8153 16.3725 14.9135 15.2307 15.9616C14.8931 16.2716 14.6555 16.4897 14.6052 16.5408C14.4885 16.6601 14.3697 16.773 14.2555 16.8816C13.546 17.5559 13.0138 18.0616 14.283 18.8866C14.8759 19.2735 15.3538 19.5952 15.8277 19.9142C16.3717 20.2805 16.9104 20.6432 17.6119 21.0968C17.7867 21.2099 17.9537 21.3274 18.1164 21.4419C18.734 21.8767 19.2897 22.2678 19.9744 22.2049C20.3741 22.1666 20.7857 21.7982 20.9945 20.6931C21.4867 18.0821 22.4591 12.4298 22.6829 10.0987C22.7037 9.89539 22.6769 9.63311 22.659 9.51818C22.6411 9.40325 22.5993 9.24116 22.4472 9.12034C22.2682 8.97888 21.9908 8.94647 21.8685 8.94942C21.3077 8.95826 20.4487 9.25295 16.3054 10.9563Z" fill="#252F3C"/>
</svg>
