<svg width="81" height="15" viewBox="0 0 81 15" fill="none" xmlns="http://www.w3.org/2000/svg">
<path d="M0.566895 3.53143V0.254883H8.52546V3.53143H6.30784V14.1221H2.78452V3.53143H0.566895ZM13.6923 0.254883V5.56078H15.7855V0.254883H19.3089V14.1221H15.7855V8.83733H13.6923V14.1221H10.1689V0.254883H13.6923ZM29.1539 0.254883V3.53143H24.8638V5.56078H28.7394V8.83733H24.8638V10.8455H29.1539V14.1221H21.3405V0.254883H29.1539ZM44.1629 7.10393C45.2267 7.69582 45.7587 8.66822 45.7587 10.0211V10.4439C45.7587 11.5995 45.3857 12.5014 44.6395 13.1497C43.9073 13.798 42.8917 14.1221 41.5929 14.1221H36.6603V0.254883H41.3442C42.643 0.254883 43.6586 0.579012 44.3908 1.22728C45.1231 1.87554 45.4893 2.76338 45.4893 3.8908V4.31358C45.4893 5.55375 45.0472 6.48387 44.1629 7.10393ZM40.1836 3.42574V5.6242H40.9297C41.2889 5.6242 41.5515 5.55375 41.7173 5.41281C41.8831 5.25781 41.966 5.01819 41.966 4.69408V4.33472C41.966 3.72871 41.6205 3.42574 40.9297 3.42574H40.1836ZM42.2147 9.66175C42.2147 9.05575 41.8692 8.75277 41.1784 8.75277H40.1836V10.9512H41.1784C41.5376 10.9512 41.8002 10.8808 41.966 10.7398C42.1318 10.5848 42.2147 10.3452 42.2147 10.0211V9.66175ZM55.3214 0.254883V3.53143H51.0312V5.56078H54.9069V8.83733H51.0312V10.8455H55.3214V14.1221H47.5079V0.254883H55.3214ZM60.7457 0.254883V10.8455H65.0359V14.1221H57.2224V0.254883H60.7457ZM70.1965 0.254883V10.8455H74.4867V14.1221H66.6732V0.254883H70.1965ZM78.7293 14.3969C78.1355 14.3969 77.6448 14.2066 77.2578 13.8261C76.8847 13.4315 76.6982 12.9313 76.6982 12.3253C76.6982 11.7052 76.8847 11.2049 77.2578 10.8244C77.6448 10.4439 78.1355 10.2536 78.7293 10.2536C79.3376 10.2536 79.8277 10.4439 80.2008 10.8244C80.5738 11.2049 80.7604 11.7052 80.7604 12.3253C80.7604 12.9453 80.5738 13.4456 80.2008 13.8261C79.8277 14.2066 79.3376 14.3969 78.7293 14.3969Z" fill="#EA3A2D"/>
</svg>
