<svg width="122" height="23" viewBox="0 0 122 23" fill="none" xmlns="http://www.w3.org/2000/svg">
<path d="M0 5.87375V0.917725H12.0379V5.87375H8.68361V21.8929H3.35432V5.87375H0ZM19.8531 0.917725V8.94329H23.0193V0.917725H28.3486V21.8929H23.0193V13.8993H19.8531V21.8929H14.5238V0.917725H19.8531ZM43.2401 0.917725V5.87375H36.7509V8.94329H42.6131V13.8993H36.7509V16.9369H43.2401V21.8929H31.4216V0.917725H43.2401ZM65.9422 11.2774C67.5514 12.1727 68.356 13.6435 68.356 15.6899V16.3294C68.356 18.0773 67.7917 19.4415 66.6632 20.4221C65.5555 21.4027 64.0195 21.8929 62.0549 21.8929H54.5939V0.917725H61.6787C63.6433 0.917725 65.1794 1.40799 66.287 2.38854C67.3946 3.36909 67.9485 4.71202 67.9485 6.41731V7.0568C67.9485 8.93266 67.2797 10.3395 65.9422 11.2774ZM59.9232 5.71388V9.03921H61.0517C61.5951 9.03921 61.9922 8.93266 62.243 8.71947C62.4938 8.48502 62.6192 8.12259 62.6192 7.63234V7.08878C62.6192 6.17215 62.0967 5.71388 61.0517 5.71388H59.9232ZM62.9954 15.1463C62.9954 14.2297 62.4729 13.7714 61.4279 13.7714H59.9232V17.0968H61.4279C61.9713 17.0968 62.3684 16.9902 62.6192 16.777C62.87 16.5426 62.9954 16.1801 62.9954 15.6899V15.1463ZM82.8203 0.917725V5.87375H76.3311V8.94329H82.1933V13.8993H76.3311V16.9369H82.8203V21.8929H71.0018V0.917725H82.8203ZM91.025 0.917725V16.9369H97.5142V21.8929H85.6957V0.917725H91.025ZM105.32 0.917725V16.9369H111.809V21.8929H99.9907V0.917725H105.32ZM118.226 22.3086C117.328 22.3086 116.586 22.0208 116.001 21.4453C115.436 20.8484 115.154 20.0917 115.154 19.1751C115.154 18.2372 115.436 17.4804 116.001 16.9049C116.586 16.3294 117.328 16.0416 118.226 16.0416C119.147 16.0416 119.888 16.3294 120.452 16.9049C121.016 17.4804 121.299 18.2372 121.299 19.1751C121.299 20.113 121.016 20.8697 120.452 21.4453C119.888 22.0208 119.147 22.3086 118.226 22.3086Z" fill="black"/>
</svg>
