<svg width="122" height="22" viewBox="0 0 122 22" fill="none" xmlns="http://www.w3.org/2000/svg">
<path d="M0 5.56503V0.609009H12.0379V5.56503H8.68361V21.5842H3.35432V5.56503H0ZM19.8531 0.609009V8.63457H23.0193V0.609009H28.3486V21.5842H23.0193V13.5906H19.8531V21.5842H14.5238V0.609009H19.8531ZM43.2401 0.609009V5.56503H36.7509V8.63457H42.6131V13.5906H36.7509V16.6282H43.2401V21.5842H31.4216V0.609009H43.2401ZM65.9422 10.9687C67.5514 11.864 68.356 13.3348 68.356 15.3812V16.0207C68.356 17.7686 67.7917 19.1328 66.6632 20.1134C65.5555 21.0939 64.0195 21.5842 62.0549 21.5842H54.5939V0.609009H61.6787C63.6433 0.609009 65.1794 1.09928 66.287 2.07983C67.3946 3.06038 67.9485 4.4033 67.9485 6.1086V6.74809C67.9485 8.62394 67.2797 10.0308 65.9422 10.9687ZM59.9232 5.40516V8.7305H61.0517C61.5951 8.7305 61.9922 8.62394 62.243 8.41075C62.4938 8.1763 62.6192 7.81387 62.6192 7.32362V6.78006C62.6192 5.86343 62.0967 5.40516 61.0517 5.40516H59.9232ZM62.9954 14.8376C62.9954 13.921 62.4729 13.4627 61.4279 13.4627H59.9232V16.788H61.4279C61.9713 16.788 62.3684 16.6815 62.6192 16.4683C62.87 16.2338 62.9954 15.8714 62.9954 15.3812V14.8376ZM82.8203 0.609009V5.56503H76.3311V8.63457H82.1933V13.5906H76.3311V16.6282H82.8203V21.5842H71.0018V0.609009H82.8203ZM91.025 0.609009V16.6282H97.5142V21.5842H85.6957V0.609009H91.025ZM105.32 0.609009V16.6282H111.809V21.5842H99.9907V0.609009H105.32ZM118.226 21.9999C117.328 21.9999 116.586 21.7121 116.001 21.1365C115.436 20.5397 115.154 19.783 115.154 18.8664C115.154 17.9285 115.436 17.1717 116.001 16.5962C116.586 16.0207 117.328 15.7329 118.226 15.7329C119.147 15.7329 119.888 16.0207 120.452 16.5962C121.016 17.1717 121.299 17.9285 121.299 18.8664C121.299 19.8043 121.016 20.561 120.452 21.1365C119.888 21.7121 119.147 21.9999 118.226 21.9999Z" fill="#EA3A2D"/>
</svg>
