<svg width="30" height="30" viewBox="0 0 30 30" fill="none" xmlns="http://www.w3.org/2000/svg">
<path fill-rule="evenodd" clip-rule="evenodd" d="M29.5705 14.8139C29.5705 22.9517 22.9735 29.5487 14.8357 29.5487C6.69783 29.5487 0.10083 22.9517 0.10083 14.8139C0.10083 6.6761 6.69783 0.0791016 14.8357 0.0791016C22.9735 0.0791016 29.5705 6.6761 29.5705 14.8139ZM22.2473 12.4784C22.2473 17.1715 18.6741 22.5865 12.1392 22.5865C10.1352 22.5865 8.26393 21.9972 6.70939 20.9805C6.98936 21.0173 7.26932 21.032 7.55665 21.032C9.22169 21.032 10.7541 20.4647 11.9697 19.5143C10.4152 19.4849 9.1038 18.4608 8.65438 17.0462C8.87541 17.0904 9.09643 17.1126 9.32483 17.1126C9.64898 17.1126 9.96579 17.0684 10.2605 16.9873C8.6323 16.6558 7.4093 15.2265 7.4093 13.5025V13.4583C7.88818 13.7236 8.43336 13.8856 9.0154 13.9004C8.05763 13.2668 7.4314 12.1764 7.4314 10.946C7.4314 10.2977 7.60821 9.6862 7.91029 9.16311C9.66373 11.3144 12.2792 12.729 15.2335 12.8763C15.1672 12.6185 15.1377 12.3458 15.1377 12.0659C15.1377 10.1062 16.7291 8.51479 18.6888 8.51479C19.7129 8.51479 20.6338 8.94208 21.2821 9.63465C22.0926 9.47255 22.8514 9.17785 23.5366 8.77265C23.2713 9.60515 22.7114 10.2977 21.9747 10.7398C22.6967 10.6513 23.3818 10.4598 24.0154 10.1798C23.5366 10.8944 22.9324 11.5207 22.2399 12.0217C22.2473 12.169 22.2473 12.3238 22.2473 12.4784Z" fill="#252F3C"/>
</svg>
