<svg width="29" height="28" viewBox="0 0 29 28" fill="none" xmlns="http://www.w3.org/2000/svg">
<path d="M9.95276 27.5811H18.3602C26.1371 27.5811 28.0288 25.6894 28.0288 17.9125V9.50503C28.0288 1.93831 26.1371 0.0466309 18.3602 0.0466309H9.95276C2.17586 0.0466309 0.28418 1.93831 0.28418 9.71521V18.1227C0.494366 25.8996 2.17586 27.5811 9.95276 27.5811ZM5.74903 8.87447H7.85089C8.27127 8.87447 8.48145 9.08465 8.69164 9.71521C9.74257 12.6578 11.4241 15.1801 12.0546 15.1801C12.2648 15.1801 12.475 14.9699 12.475 14.3393V11.1865C12.475 9.9254 11.6342 9.71521 11.6342 9.29484C11.6342 9.08465 11.8444 8.87447 12.0546 8.87447H15.2074C15.6278 8.87447 15.838 9.08465 15.838 9.71521V13.7088C15.838 14.1291 16.0482 14.3393 16.0482 14.3393C16.2584 14.3393 16.4685 14.1291 16.8889 13.7088C18.3602 12.0273 19.4112 9.50503 19.4112 9.50503C19.6213 9.29484 19.8315 8.87447 20.2519 8.87447H22.3538C22.9843 8.87447 23.1945 9.08465 22.9843 9.71521C22.7741 10.9763 20.2519 14.3393 20.2519 14.3393C20.0417 14.7597 20.0417 14.7597 20.2519 15.1801C20.4621 15.3902 21.0926 16.0208 21.7232 16.6514C22.564 17.7023 23.1945 18.543 23.4047 18.9634C23.6149 19.594 23.4047 19.8042 22.7741 19.8042H20.6723C19.8315 19.8042 19.6213 19.1736 18.3602 17.9125C17.0991 16.8616 16.6787 16.6514 16.2584 16.6514C15.838 16.6514 15.6278 16.8616 15.6278 17.2819V18.9634C15.6278 19.3838 15.4176 19.8042 14.1565 19.8042C12.0546 19.8042 9.74258 18.543 8.06108 16.0208C5.74903 12.4476 5.11847 9.9254 5.11847 9.29484C5.11847 9.08465 5.11847 8.87447 5.74903 8.87447Z" fill="#252F3C"/>
</svg>
