<svg width="30" height="30" viewBox="0 0 30 30" fill="none" xmlns="http://www.w3.org/2000/svg">
<path fill-rule="evenodd" clip-rule="evenodd" d="M25.3567 4.42637C22.6215 1.67726 18.9746 0.166992 15.091 0.166992C7.09422 0.166992 0.579866 6.68134 0.572906 14.6781C0.572906 17.2393 1.24104 19.7309 2.50772 21.9372L0.45459 29.4607L8.1521 27.4424C10.2748 28.5977 12.662 29.2101 15.091 29.2101H15.098C23.0947 29.2101 29.6091 22.6958 29.616 14.692C29.6091 10.8154 28.0988 7.16853 25.3567 4.42637ZM15.091 26.7533C12.9195 26.7533 10.7968 26.1687 8.94552 25.0691L8.50705 24.8046L3.94144 26.0017L5.1594 21.5474L4.87405 21.0881C3.66305 19.1672 3.02971 16.947 3.02971 14.6712C3.02971 8.03154 8.44441 2.61683 15.098 2.61683C18.3203 2.61683 21.3478 3.87655 23.6306 6.1524C25.9065 8.43521 27.1592 11.4627 27.1592 14.6851C27.1523 21.3456 21.7376 26.7533 15.091 26.7533ZM21.7097 17.7195C21.3478 17.5386 19.5661 16.6617 19.2321 16.5364C18.898 16.4181 18.6544 16.3554 18.4178 16.7173C18.1742 17.0792 17.4782 17.9005 17.2694 18.1371C17.0606 18.3807 16.8449 18.4086 16.483 18.2276C16.121 18.0467 14.9518 17.6639 13.5668 16.425C12.488 15.4646 11.7642 14.2745 11.5485 13.9125C11.3397 13.5506 11.5276 13.3558 11.7085 13.1748C11.8686 13.0147 12.0705 12.7503 12.2514 12.5415C12.4324 12.3327 12.495 12.1796 12.6133 11.936C12.7316 11.6924 12.676 11.4836 12.5855 11.3026C12.495 11.1217 11.7712 9.33302 11.465 8.6092C11.1726 7.8993 10.8734 7.99674 10.6507 7.98978C10.4419 7.97586 10.1983 7.97586 9.95468 7.97586C9.71109 7.97586 9.32134 8.06634 8.98727 8.42825C8.6532 8.79015 7.7206 9.66709 7.7206 11.4557C7.7206 13.2444 9.02207 14.9635 9.20303 15.2071C9.38398 15.4507 11.7573 19.1115 15.3972 20.6844C16.2602 21.0602 16.9353 21.283 17.4643 21.45C18.3343 21.7284 19.1207 21.6866 19.7471 21.5961C20.4431 21.4917 21.8907 20.7192 22.1969 19.8701C22.4962 19.021 22.4962 18.2972 22.4057 18.1441C22.3152 17.991 22.0717 17.9005 21.7097 17.7195Z" fill="#252F3C"/>
</svg>
